%TF.GenerationSoftware,KiCad,Pcbnew,7.0.8*%
%TF.CreationDate,2023-12-06T00:15:51+05:30*%
%TF.ProjectId,PD Board,50442042-6f61-4726-942e-6b696361645f,V04*%
%TF.SameCoordinates,Original*%
%TF.FileFunction,Soldermask,Bot*%
%TF.FilePolarity,Negative*%
%FSLAX46Y46*%
G04 Gerber Fmt 4.6, Leading zero omitted, Abs format (unit mm)*
G04 Created by KiCad (PCBNEW 7.0.8) date 2023-12-06 00:15:51*
%MOMM*%
%LPD*%
G01*
G04 APERTURE LIST*
G04 Aperture macros list*
%AMRoundRect*
0 Rectangle with rounded corners*
0 $1 Rounding radius*
0 $2 $3 $4 $5 $6 $7 $8 $9 X,Y pos of 4 corners*
0 Add a 4 corners polygon primitive as box body*
4,1,4,$2,$3,$4,$5,$6,$7,$8,$9,$2,$3,0*
0 Add four circle primitives for the rounded corners*
1,1,$1+$1,$2,$3*
1,1,$1+$1,$4,$5*
1,1,$1+$1,$6,$7*
1,1,$1+$1,$8,$9*
0 Add four rect primitives between the rounded corners*
20,1,$1+$1,$2,$3,$4,$5,0*
20,1,$1+$1,$4,$5,$6,$7,0*
20,1,$1+$1,$6,$7,$8,$9,0*
20,1,$1+$1,$8,$9,$2,$3,0*%
G04 Aperture macros list end*
%ADD10RoundRect,0.250000X-0.350000X-0.625000X0.350000X-0.625000X0.350000X0.625000X-0.350000X0.625000X0*%
%ADD11O,1.200000X1.750000*%
%ADD12C,6.204000*%
%ADD13RoundRect,0.102000X3.000000X3.000000X-3.000000X3.000000X-3.000000X-3.000000X3.000000X-3.000000X0*%
%ADD14C,0.700000*%
%ADD15C,4.400000*%
%ADD16RoundRect,0.102000X3.000000X-3.000000X3.000000X3.000000X-3.000000X3.000000X-3.000000X-3.000000X0*%
%ADD17R,2.000000X2.000000*%
%ADD18C,2.000000*%
%ADD19RoundRect,0.102000X-3.000000X-3.000000X3.000000X-3.000000X3.000000X3.000000X-3.000000X3.000000X0*%
G04 APERTURE END LIST*
D10*
%TO.C,P16*%
X239400000Y-81400000D03*
D11*
X241400000Y-81400000D03*
%TD*%
D10*
%TO.C,P19*%
X255125000Y-86950000D03*
D11*
X257125000Y-86950000D03*
%TD*%
D12*
%TO.C,J1*%
X238850000Y-102800000D03*
D13*
X246050000Y-102800000D03*
%TD*%
D14*
%TO.C,H2*%
X191700000Y-104983274D03*
X192183274Y-103816548D03*
X192183274Y-106150000D03*
X193350000Y-103333274D03*
D15*
X193350000Y-104983274D03*
D14*
X193350000Y-106633274D03*
X194516726Y-103816548D03*
X194516726Y-106150000D03*
X195000000Y-104983274D03*
%TD*%
D10*
%TO.C,P7*%
X262425000Y-86950000D03*
D11*
X264425000Y-86950000D03*
%TD*%
D10*
%TO.C,P24*%
X232350000Y-93000000D03*
D11*
X234350000Y-93000000D03*
%TD*%
D10*
%TO.C,P26*%
X247725000Y-81300000D03*
D11*
X249725000Y-81300000D03*
%TD*%
D10*
%TO.C,P13*%
X218200000Y-81400000D03*
D11*
X220200000Y-81400000D03*
%TD*%
D14*
%TO.C,H1*%
X263033274Y-104983274D03*
X263516548Y-103816548D03*
X263516548Y-106150000D03*
X264683274Y-103333274D03*
D15*
X264683274Y-104983274D03*
D14*
X264683274Y-106633274D03*
X265850000Y-103816548D03*
X265850000Y-106150000D03*
X266333274Y-104983274D03*
%TD*%
D10*
%TO.C,P17*%
X255125000Y-75650000D03*
D11*
X257125000Y-75650000D03*
%TD*%
D10*
%TO.C,P21*%
X218200000Y-87200000D03*
D11*
X220200000Y-87200000D03*
%TD*%
D10*
%TO.C,P25*%
X247725000Y-75650000D03*
D11*
X249725000Y-75650000D03*
%TD*%
D10*
%TO.C,P23*%
X232350000Y-87250000D03*
D11*
X234350000Y-87250000D03*
%TD*%
D10*
%TO.C,P4*%
X239350000Y-75600000D03*
D11*
X241350000Y-75600000D03*
%TD*%
D10*
%TO.C,P22*%
X225300000Y-87200000D03*
D11*
X227300000Y-87200000D03*
%TD*%
D10*
%TO.C,P14*%
X225250000Y-81400000D03*
D11*
X227250000Y-81400000D03*
%TD*%
D10*
%TO.C,P28*%
X247725000Y-92650000D03*
D11*
X249725000Y-92650000D03*
%TD*%
D12*
%TO.C,J2*%
X195800000Y-77800000D03*
D16*
X195800000Y-85000000D03*
%TD*%
D17*
%TO.C,C3*%
X195000000Y-93650000D03*
D18*
X195000000Y-98650000D03*
%TD*%
D10*
%TO.C,P27*%
X247725000Y-86950000D03*
D11*
X249725000Y-86950000D03*
%TD*%
D10*
%TO.C,P2*%
X225250000Y-75600000D03*
D11*
X227250000Y-75600000D03*
%TD*%
D10*
%TO.C,P1*%
X218200000Y-75600000D03*
D11*
X220200000Y-75600000D03*
%TD*%
D10*
%TO.C,P5*%
X262425000Y-75650000D03*
D11*
X264425000Y-75650000D03*
%TD*%
D10*
%TO.C,P18*%
X255125000Y-81300000D03*
D11*
X257125000Y-81300000D03*
%TD*%
D10*
%TO.C,P3*%
X232300000Y-75600000D03*
D11*
X234300000Y-75600000D03*
%TD*%
D10*
%TO.C,P15*%
X232300000Y-81400000D03*
D11*
X234300000Y-81400000D03*
%TD*%
D10*
%TO.C,P20*%
X255125000Y-92650000D03*
D11*
X257125000Y-92650000D03*
%TD*%
D10*
%TO.C,P8*%
X262425000Y-92650000D03*
D11*
X264425000Y-92650000D03*
%TD*%
D12*
%TO.C,J7*%
X229600000Y-102800000D03*
D19*
X222400000Y-102800000D03*
%TD*%
D10*
%TO.C,P6*%
X262425000Y-81300000D03*
D11*
X264425000Y-81300000D03*
%TD*%
M02*
