%TF.GenerationSoftware,KiCad,Pcbnew,7.0.8*%
%TF.CreationDate,2023-12-06T00:15:51+05:30*%
%TF.ProjectId,PD Board,50442042-6f61-4726-942e-6b696361645f,V04*%
%TF.SameCoordinates,Original*%
%TF.FileFunction,Soldermask,Top*%
%TF.FilePolarity,Negative*%
%FSLAX46Y46*%
G04 Gerber Fmt 4.6, Leading zero omitted, Abs format (unit mm)*
G04 Created by KiCad (PCBNEW 7.0.8) date 2023-12-06 00:15:51*
%MOMM*%
%LPD*%
G01*
G04 APERTURE LIST*
G04 Aperture macros list*
%AMRoundRect*
0 Rectangle with rounded corners*
0 $1 Rounding radius*
0 $2 $3 $4 $5 $6 $7 $8 $9 X,Y pos of 4 corners*
0 Add a 4 corners polygon primitive as box body*
4,1,4,$2,$3,$4,$5,$6,$7,$8,$9,$2,$3,0*
0 Add four circle primitives for the rounded corners*
1,1,$1+$1,$2,$3*
1,1,$1+$1,$4,$5*
1,1,$1+$1,$6,$7*
1,1,$1+$1,$8,$9*
0 Add four rect primitives between the rounded corners*
20,1,$1+$1,$2,$3,$4,$5,0*
20,1,$1+$1,$4,$5,$6,$7,0*
20,1,$1+$1,$6,$7,$8,$9,0*
20,1,$1+$1,$8,$9,$2,$3,0*%
G04 Aperture macros list end*
%ADD10C,0.010000*%
%ADD11RoundRect,0.250000X-0.312500X-0.625000X0.312500X-0.625000X0.312500X0.625000X-0.312500X0.625000X0*%
%ADD12R,2.950000X3.500000*%
%ADD13RoundRect,0.250000X-0.350000X-0.625000X0.350000X-0.625000X0.350000X0.625000X-0.350000X0.625000X0*%
%ADD14O,1.200000X1.750000*%
%ADD15C,6.204000*%
%ADD16RoundRect,0.102000X3.000000X3.000000X-3.000000X3.000000X-3.000000X-3.000000X3.000000X-3.000000X0*%
%ADD17C,0.700000*%
%ADD18C,4.400000*%
%ADD19R,1.500000X2.000000*%
%ADD20R,3.800000X2.000000*%
%ADD21RoundRect,0.250000X0.475000X-0.250000X0.475000X0.250000X-0.475000X0.250000X-0.475000X-0.250000X0*%
%ADD22RoundRect,0.250000X-1.500000X-0.550000X1.500000X-0.550000X1.500000X0.550000X-1.500000X0.550000X0*%
%ADD23RoundRect,0.102000X3.000000X-3.000000X3.000000X3.000000X-3.000000X3.000000X-3.000000X-3.000000X0*%
%ADD24R,2.000000X2.000000*%
%ADD25C,2.000000*%
%ADD26RoundRect,0.250000X1.000000X-1.400000X1.000000X1.400000X-1.000000X1.400000X-1.000000X-1.400000X0*%
%ADD27RoundRect,0.250000X-0.250000X-0.475000X0.250000X-0.475000X0.250000X0.475000X-0.250000X0.475000X0*%
%ADD28RoundRect,0.250000X0.250000X0.475000X-0.250000X0.475000X-0.250000X-0.475000X0.250000X-0.475000X0*%
%ADD29RoundRect,0.250000X0.625000X-0.312500X0.625000X0.312500X-0.625000X0.312500X-0.625000X-0.312500X0*%
%ADD30R,2.000000X1.500000*%
%ADD31R,2.000000X3.800000*%
%ADD32RoundRect,0.102000X-3.000000X-3.000000X3.000000X-3.000000X3.000000X3.000000X-3.000000X3.000000X0*%
G04 APERTURE END LIST*
%TO.C,U2*%
D10*
X206370000Y-90370000D02*
X205230000Y-90370000D01*
X205230000Y-86830000D01*
X206370000Y-86830000D01*
X206370000Y-90370000D01*
G36*
X206370000Y-90370000D02*
G01*
X205230000Y-90370000D01*
X205230000Y-86830000D01*
X206370000Y-86830000D01*
X206370000Y-90370000D01*
G37*
X208070000Y-90370000D02*
X206930000Y-90370000D01*
X206930000Y-86830000D01*
X208070000Y-86830000D01*
X208070000Y-90370000D01*
G36*
X208070000Y-90370000D02*
G01*
X206930000Y-90370000D01*
X206930000Y-86830000D01*
X208070000Y-86830000D01*
X208070000Y-90370000D01*
G37*
X209770000Y-90370000D02*
X208630000Y-90370000D01*
X208630000Y-86830000D01*
X209770000Y-86830000D01*
X209770000Y-90370000D01*
G36*
X209770000Y-90370000D02*
G01*
X208630000Y-90370000D01*
X208630000Y-86830000D01*
X209770000Y-86830000D01*
X209770000Y-90370000D01*
G37*
X211470000Y-90370000D02*
X210330000Y-90370000D01*
X210330000Y-86830000D01*
X211470000Y-86830000D01*
X211470000Y-90370000D01*
G36*
X211470000Y-90370000D02*
G01*
X210330000Y-90370000D01*
X210330000Y-86830000D01*
X211470000Y-86830000D01*
X211470000Y-90370000D01*
G37*
X213170000Y-90370000D02*
X212030000Y-90370000D01*
X212030000Y-86830000D01*
X213170000Y-86830000D01*
X213170000Y-90370000D01*
G36*
X213170000Y-90370000D02*
G01*
X212030000Y-90370000D01*
X212030000Y-86830000D01*
X213170000Y-86830000D01*
X213170000Y-90370000D01*
G37*
X214620000Y-82370000D02*
X203780000Y-82370000D01*
X203780000Y-73630000D01*
X214620000Y-73630000D01*
X214620000Y-82370000D01*
G36*
X214620000Y-82370000D02*
G01*
X203780000Y-82370000D01*
X203780000Y-73630000D01*
X214620000Y-73630000D01*
X214620000Y-82370000D01*
G37*
%TD*%
D11*
%TO.C,R2*%
X206037500Y-91850000D03*
X208962500Y-91850000D03*
%TD*%
D12*
%TO.C,L1*%
X218075000Y-94550000D03*
X212625000Y-94550000D03*
%TD*%
D13*
%TO.C,P16*%
X239400000Y-81400000D03*
D14*
X241400000Y-81400000D03*
%TD*%
D13*
%TO.C,P19*%
X255125000Y-86950000D03*
D14*
X257125000Y-86950000D03*
%TD*%
D15*
%TO.C,J1*%
X238850000Y-102800000D03*
D16*
X246050000Y-102800000D03*
%TD*%
D17*
%TO.C,H2*%
X191700000Y-104983274D03*
X192183274Y-103816548D03*
X192183274Y-106150000D03*
X193350000Y-103333274D03*
D18*
X193350000Y-104983274D03*
D17*
X193350000Y-106633274D03*
X194516726Y-103816548D03*
X194516726Y-106150000D03*
X195000000Y-104983274D03*
%TD*%
D13*
%TO.C,P7*%
X262425000Y-86950000D03*
D14*
X264425000Y-86950000D03*
%TD*%
D11*
%TO.C,R1*%
X201087500Y-91850000D03*
X204012500Y-91850000D03*
%TD*%
D13*
%TO.C,P24*%
X232350000Y-93000000D03*
D14*
X234350000Y-93000000D03*
%TD*%
D13*
%TO.C,P26*%
X247725000Y-81300000D03*
D14*
X249725000Y-81300000D03*
%TD*%
D13*
%TO.C,P13*%
X218200000Y-81400000D03*
D14*
X220200000Y-81400000D03*
%TD*%
D17*
%TO.C,H1*%
X263033274Y-104983274D03*
X263516548Y-103816548D03*
X263516548Y-106150000D03*
X264683274Y-103333274D03*
D18*
X264683274Y-104983274D03*
D17*
X264683274Y-106633274D03*
X265850000Y-103816548D03*
X265850000Y-106150000D03*
X266333274Y-104983274D03*
%TD*%
D13*
%TO.C,P17*%
X255125000Y-75650000D03*
D14*
X257125000Y-75650000D03*
%TD*%
D19*
%TO.C,U5*%
X238500000Y-94550000D03*
X240800000Y-94550000D03*
D20*
X240800000Y-88250000D03*
D19*
X243100000Y-94550000D03*
%TD*%
D21*
%TO.C,C2*%
X214550000Y-89750000D03*
X214550000Y-87850000D03*
%TD*%
D13*
%TO.C,P21*%
X218200000Y-87200000D03*
D14*
X220200000Y-87200000D03*
%TD*%
D13*
%TO.C,P25*%
X247725000Y-75650000D03*
D14*
X249725000Y-75650000D03*
%TD*%
D13*
%TO.C,P23*%
X232350000Y-87250000D03*
D14*
X234350000Y-87250000D03*
%TD*%
D13*
%TO.C,P4*%
X239350000Y-75600000D03*
D14*
X241350000Y-75600000D03*
%TD*%
D13*
%TO.C,P22*%
X225300000Y-87200000D03*
D14*
X227300000Y-87200000D03*
%TD*%
D13*
%TO.C,P14*%
X225250000Y-81400000D03*
D14*
X227250000Y-81400000D03*
%TD*%
D21*
%TO.C,C4*%
X202150000Y-82900000D03*
X202150000Y-81000000D03*
%TD*%
D22*
%TO.C,C1*%
X222250000Y-94600000D03*
X227650000Y-94600000D03*
%TD*%
D13*
%TO.C,P28*%
X247725000Y-92650000D03*
D14*
X249725000Y-92650000D03*
%TD*%
D15*
%TO.C,J2*%
X195800000Y-77800000D03*
D23*
X195800000Y-85000000D03*
%TD*%
D24*
%TO.C,C3*%
X195000000Y-93650000D03*
D25*
X195000000Y-98650000D03*
%TD*%
D13*
%TO.C,P27*%
X247725000Y-86950000D03*
D14*
X249725000Y-86950000D03*
%TD*%
D26*
%TO.C,D1*%
X202000000Y-97650000D03*
X208800000Y-97650000D03*
%TD*%
D27*
%TO.C,C11*%
X252050000Y-105750000D03*
X253950000Y-105750000D03*
%TD*%
D28*
%TO.C,C9*%
X242700000Y-97150000D03*
X240800000Y-97150000D03*
%TD*%
D13*
%TO.C,P2*%
X225250000Y-75600000D03*
D14*
X227250000Y-75600000D03*
%TD*%
D13*
%TO.C,P1*%
X218200000Y-75600000D03*
D14*
X220200000Y-75600000D03*
%TD*%
D27*
%TO.C,C10*%
X261250000Y-100500000D03*
X263150000Y-100500000D03*
%TD*%
D13*
%TO.C,P5*%
X262425000Y-75650000D03*
D14*
X264425000Y-75650000D03*
%TD*%
D13*
%TO.C,P18*%
X255125000Y-81300000D03*
D14*
X257125000Y-81300000D03*
%TD*%
D29*
%TO.C,R3*%
X202200000Y-88562500D03*
X202200000Y-85637500D03*
%TD*%
D30*
%TO.C,U4*%
X252600000Y-98350000D03*
X252600000Y-100650000D03*
D31*
X258900000Y-100650000D03*
D30*
X252600000Y-102950000D03*
%TD*%
D13*
%TO.C,P3*%
X232300000Y-75600000D03*
D14*
X234300000Y-75600000D03*
%TD*%
D13*
%TO.C,P15*%
X232300000Y-81400000D03*
D14*
X234300000Y-81400000D03*
%TD*%
D13*
%TO.C,P20*%
X255125000Y-92650000D03*
D14*
X257125000Y-92650000D03*
%TD*%
D13*
%TO.C,P8*%
X262425000Y-92650000D03*
D14*
X264425000Y-92650000D03*
%TD*%
D27*
%TO.C,C12*%
X240450000Y-85850000D03*
X242350000Y-85850000D03*
%TD*%
D15*
%TO.C,J7*%
X229600000Y-102800000D03*
D32*
X222400000Y-102800000D03*
%TD*%
D13*
%TO.C,P6*%
X262425000Y-81300000D03*
D14*
X264425000Y-81300000D03*
%TD*%
M02*
