%TF.GenerationSoftware,KiCad,Pcbnew,7.0.8*%
%TF.CreationDate,2023-12-06T00:15:51+05:30*%
%TF.ProjectId,PD Board,50442042-6f61-4726-942e-6b696361645f,V04*%
%TF.SameCoordinates,Original*%
%TF.FileFunction,Legend,Top*%
%TF.FilePolarity,Positive*%
%FSLAX46Y46*%
G04 Gerber Fmt 4.6, Leading zero omitted, Abs format (unit mm)*
G04 Created by KiCad (PCBNEW 7.0.8) date 2023-12-06 00:15:51*
%MOMM*%
%LPD*%
G01*
G04 APERTURE LIST*
%ADD10C,0.150000*%
%ADD11C,0.200000*%
%ADD12C,0.100000*%
%ADD13C,0.120000*%
%ADD14C,0.127000*%
G04 APERTURE END LIST*
D10*
X212450000Y-103100000D02*
G75*
G03*
X212450000Y-103100000I-200000J0D01*
G01*
X210700000Y-104100000D02*
X210700000Y-101600000D01*
X211900000Y-102100000D02*
G75*
G03*
X211900000Y-102100000I-200000J0D01*
G01*
X212450000Y-103600000D02*
G75*
G03*
X212450000Y-103600000I-200000J0D01*
G01*
X208900000Y-102100000D02*
G75*
G03*
X208900000Y-102100000I-200000J0D01*
G01*
X211900000Y-103100000D02*
G75*
G03*
X211900000Y-103100000I-200000J0D01*
G01*
X208900000Y-103100000D02*
G75*
G03*
X208900000Y-103100000I-200000J0D01*
G01*
X211350000Y-103100000D02*
G75*
G03*
X211350000Y-103100000I-200000J0D01*
G01*
X210400000Y-102100000D02*
G75*
G03*
X210400000Y-102100000I-200000J0D01*
G01*
X212450000Y-102600000D02*
G75*
G03*
X212450000Y-102600000I-200000J0D01*
G01*
X209900000Y-103650000D02*
G75*
G03*
X209900000Y-103650000I-200000J0D01*
G01*
X209750000Y-105550000D02*
X212750000Y-105550000D01*
X212750000Y-106850000D01*
X209750000Y-106850000D01*
X209750000Y-105550000D01*
X205550000Y-101650000D02*
X206850000Y-101650000D01*
X206850000Y-104650000D01*
X205550000Y-104650000D01*
X205550000Y-101650000D01*
X212700000Y-104100000D02*
X212700000Y-101600000D01*
X209400000Y-103100000D02*
G75*
G03*
X209400000Y-103100000I-200000J0D01*
G01*
X212450000Y-101600000D02*
X210700000Y-101600000D01*
X209900000Y-102100000D02*
G75*
G03*
X209900000Y-102100000I-200000J0D01*
G01*
X209400000Y-102600000D02*
G75*
G03*
X209400000Y-102600000I-200000J0D01*
G01*
X209400000Y-102100000D02*
G75*
G03*
X209400000Y-102100000I-200000J0D01*
G01*
X211350000Y-102100000D02*
G75*
G03*
X211350000Y-102100000I-200000J0D01*
G01*
X211900000Y-103600000D02*
G75*
G03*
X211900000Y-103600000I-200000J0D01*
G01*
X208200000Y-101850000D02*
X208200000Y-104100000D01*
X210400000Y-102600000D02*
G75*
G03*
X210400000Y-102600000I-200000J0D01*
G01*
X209900000Y-102600000D02*
G75*
G03*
X209900000Y-102600000I-200000J0D01*
G01*
X208200000Y-101850000D02*
X208200000Y-101600000D01*
X211900000Y-102600000D02*
G75*
G03*
X211900000Y-102600000I-200000J0D01*
G01*
X205650000Y-105550000D02*
X209650000Y-105550000D01*
X209650000Y-106850000D01*
X205650000Y-106850000D01*
X205650000Y-105550000D01*
X212450000Y-101600000D02*
X212700000Y-101600000D01*
X211350000Y-103600000D02*
G75*
G03*
X211350000Y-103600000I-200000J0D01*
G01*
X208200000Y-104100000D02*
X210700000Y-104100000D01*
X210700000Y-101600000D02*
X208200000Y-101600000D01*
X211350000Y-102600000D02*
G75*
G03*
X211350000Y-102600000I-200000J0D01*
G01*
X210700000Y-104100000D02*
X212700000Y-104100000D01*
X208900000Y-102600000D02*
G75*
G03*
X208900000Y-102600000I-200000J0D01*
G01*
X209900000Y-103100000D02*
G75*
G03*
X209900000Y-103100000I-200000J0D01*
G01*
X210700000Y-101600000D02*
X210700000Y-104100000D01*
X212450000Y-102100000D02*
G75*
G03*
X212450000Y-102100000I-200000J0D01*
G01*
X208912969Y-104444295D02*
X209408207Y-104444295D01*
X209408207Y-104444295D02*
X209141541Y-104749057D01*
X209141541Y-104749057D02*
X209255826Y-104749057D01*
X209255826Y-104749057D02*
X209332017Y-104787152D01*
X209332017Y-104787152D02*
X209370112Y-104825247D01*
X209370112Y-104825247D02*
X209408207Y-104901438D01*
X209408207Y-104901438D02*
X209408207Y-105091914D01*
X209408207Y-105091914D02*
X209370112Y-105168104D01*
X209370112Y-105168104D02*
X209332017Y-105206200D01*
X209332017Y-105206200D02*
X209255826Y-105244295D01*
X209255826Y-105244295D02*
X209027255Y-105244295D01*
X209027255Y-105244295D02*
X208951064Y-105206200D01*
X208951064Y-105206200D02*
X208912969Y-105168104D01*
X209674874Y-104710961D02*
X209865350Y-105244295D01*
X209865350Y-105244295D02*
X210055827Y-104710961D01*
X206458207Y-106544295D02*
X206001064Y-106544295D01*
X206229636Y-106544295D02*
X206229636Y-105744295D01*
X206229636Y-105744295D02*
X206153445Y-105858580D01*
X206153445Y-105858580D02*
X206077255Y-105934771D01*
X206077255Y-105934771D02*
X206001064Y-105972866D01*
X206762969Y-105820485D02*
X206801065Y-105782390D01*
X206801065Y-105782390D02*
X206877255Y-105744295D01*
X206877255Y-105744295D02*
X207067731Y-105744295D01*
X207067731Y-105744295D02*
X207143922Y-105782390D01*
X207143922Y-105782390D02*
X207182017Y-105820485D01*
X207182017Y-105820485D02*
X207220112Y-105896676D01*
X207220112Y-105896676D02*
X207220112Y-105972866D01*
X207220112Y-105972866D02*
X207182017Y-106087152D01*
X207182017Y-106087152D02*
X206724874Y-106544295D01*
X206724874Y-106544295D02*
X207220112Y-106544295D01*
X207448684Y-105744295D02*
X207715351Y-106544295D01*
X207715351Y-106544295D02*
X207982017Y-105744295D01*
X208058208Y-106620485D02*
X208667731Y-106620485D01*
X209124874Y-106125247D02*
X209239160Y-106163342D01*
X209239160Y-106163342D02*
X209277255Y-106201438D01*
X209277255Y-106201438D02*
X209315351Y-106277628D01*
X209315351Y-106277628D02*
X209315351Y-106391914D01*
X209315351Y-106391914D02*
X209277255Y-106468104D01*
X209277255Y-106468104D02*
X209239160Y-106506200D01*
X209239160Y-106506200D02*
X209162970Y-106544295D01*
X209162970Y-106544295D02*
X208858208Y-106544295D01*
X208858208Y-106544295D02*
X208858208Y-105744295D01*
X208858208Y-105744295D02*
X209124874Y-105744295D01*
X209124874Y-105744295D02*
X209201065Y-105782390D01*
X209201065Y-105782390D02*
X209239160Y-105820485D01*
X209239160Y-105820485D02*
X209277255Y-105896676D01*
X209277255Y-105896676D02*
X209277255Y-105972866D01*
X209277255Y-105972866D02*
X209239160Y-106049057D01*
X209239160Y-106049057D02*
X209201065Y-106087152D01*
X209201065Y-106087152D02*
X209124874Y-106125247D01*
X209124874Y-106125247D02*
X208858208Y-106125247D01*
X211620112Y-104444295D02*
X211239160Y-104444295D01*
X211239160Y-104444295D02*
X211201064Y-104825247D01*
X211201064Y-104825247D02*
X211239160Y-104787152D01*
X211239160Y-104787152D02*
X211315350Y-104749057D01*
X211315350Y-104749057D02*
X211505826Y-104749057D01*
X211505826Y-104749057D02*
X211582017Y-104787152D01*
X211582017Y-104787152D02*
X211620112Y-104825247D01*
X211620112Y-104825247D02*
X211658207Y-104901438D01*
X211658207Y-104901438D02*
X211658207Y-105091914D01*
X211658207Y-105091914D02*
X211620112Y-105168104D01*
X211620112Y-105168104D02*
X211582017Y-105206200D01*
X211582017Y-105206200D02*
X211505826Y-105244295D01*
X211505826Y-105244295D02*
X211315350Y-105244295D01*
X211315350Y-105244295D02*
X211239160Y-105206200D01*
X211239160Y-105206200D02*
X211201064Y-105168104D01*
X211924874Y-104710961D02*
X212115350Y-105244295D01*
X212115350Y-105244295D02*
X212305827Y-104710961D01*
X205820485Y-104098935D02*
X205782390Y-104060839D01*
X205782390Y-104060839D02*
X205744295Y-103984649D01*
X205744295Y-103984649D02*
X205744295Y-103794173D01*
X205744295Y-103794173D02*
X205782390Y-103717982D01*
X205782390Y-103717982D02*
X205820485Y-103679887D01*
X205820485Y-103679887D02*
X205896676Y-103641792D01*
X205896676Y-103641792D02*
X205972866Y-103641792D01*
X205972866Y-103641792D02*
X206087152Y-103679887D01*
X206087152Y-103679887D02*
X206544295Y-104137030D01*
X206544295Y-104137030D02*
X206544295Y-103641792D01*
X206010961Y-102956077D02*
X206544295Y-102956077D01*
X205706200Y-103146553D02*
X206277628Y-103337030D01*
X206277628Y-103337030D02*
X206277628Y-102841791D01*
X205744295Y-102651315D02*
X206544295Y-102384648D01*
X206544295Y-102384648D02*
X205744295Y-102117982D01*
D11*
X217567219Y-105656517D02*
X217567219Y-106227945D01*
X217567219Y-105942231D02*
X216567219Y-105942231D01*
X216567219Y-105942231D02*
X216710076Y-106037469D01*
X216710076Y-106037469D02*
X216805314Y-106132707D01*
X216805314Y-106132707D02*
X216852933Y-106227945D01*
X216662457Y-105275564D02*
X216614838Y-105227945D01*
X216614838Y-105227945D02*
X216567219Y-105132707D01*
X216567219Y-105132707D02*
X216567219Y-104894612D01*
X216567219Y-104894612D02*
X216614838Y-104799374D01*
X216614838Y-104799374D02*
X216662457Y-104751755D01*
X216662457Y-104751755D02*
X216757695Y-104704136D01*
X216757695Y-104704136D02*
X216852933Y-104704136D01*
X216852933Y-104704136D02*
X216995790Y-104751755D01*
X216995790Y-104751755D02*
X217567219Y-105323183D01*
X217567219Y-105323183D02*
X217567219Y-104704136D01*
X216567219Y-104418421D02*
X217567219Y-104085088D01*
X217567219Y-104085088D02*
X216567219Y-103751755D01*
X217662457Y-103656517D02*
X217662457Y-102894612D01*
X217043409Y-102323183D02*
X217091028Y-102180326D01*
X217091028Y-102180326D02*
X217138647Y-102132707D01*
X217138647Y-102132707D02*
X217233885Y-102085088D01*
X217233885Y-102085088D02*
X217376742Y-102085088D01*
X217376742Y-102085088D02*
X217471980Y-102132707D01*
X217471980Y-102132707D02*
X217519600Y-102180326D01*
X217519600Y-102180326D02*
X217567219Y-102275564D01*
X217567219Y-102275564D02*
X217567219Y-102656516D01*
X217567219Y-102656516D02*
X216567219Y-102656516D01*
X216567219Y-102656516D02*
X216567219Y-102323183D01*
X216567219Y-102323183D02*
X216614838Y-102227945D01*
X216614838Y-102227945D02*
X216662457Y-102180326D01*
X216662457Y-102180326D02*
X216757695Y-102132707D01*
X216757695Y-102132707D02*
X216852933Y-102132707D01*
X216852933Y-102132707D02*
X216948171Y-102180326D01*
X216948171Y-102180326D02*
X216995790Y-102227945D01*
X216995790Y-102227945D02*
X217043409Y-102323183D01*
X217043409Y-102323183D02*
X217043409Y-102656516D01*
X217567219Y-101513659D02*
X217519600Y-101608897D01*
X217519600Y-101608897D02*
X217471980Y-101656516D01*
X217471980Y-101656516D02*
X217376742Y-101704135D01*
X217376742Y-101704135D02*
X217091028Y-101704135D01*
X217091028Y-101704135D02*
X216995790Y-101656516D01*
X216995790Y-101656516D02*
X216948171Y-101608897D01*
X216948171Y-101608897D02*
X216900552Y-101513659D01*
X216900552Y-101513659D02*
X216900552Y-101370802D01*
X216900552Y-101370802D02*
X216948171Y-101275564D01*
X216948171Y-101275564D02*
X216995790Y-101227945D01*
X216995790Y-101227945D02*
X217091028Y-101180326D01*
X217091028Y-101180326D02*
X217376742Y-101180326D01*
X217376742Y-101180326D02*
X217471980Y-101227945D01*
X217471980Y-101227945D02*
X217519600Y-101275564D01*
X217519600Y-101275564D02*
X217567219Y-101370802D01*
X217567219Y-101370802D02*
X217567219Y-101513659D01*
X217567219Y-100608897D02*
X217519600Y-100704135D01*
X217519600Y-100704135D02*
X217471980Y-100751754D01*
X217471980Y-100751754D02*
X217376742Y-100799373D01*
X217376742Y-100799373D02*
X217091028Y-100799373D01*
X217091028Y-100799373D02*
X216995790Y-100751754D01*
X216995790Y-100751754D02*
X216948171Y-100704135D01*
X216948171Y-100704135D02*
X216900552Y-100608897D01*
X216900552Y-100608897D02*
X216900552Y-100466040D01*
X216900552Y-100466040D02*
X216948171Y-100370802D01*
X216948171Y-100370802D02*
X216995790Y-100323183D01*
X216995790Y-100323183D02*
X217091028Y-100275564D01*
X217091028Y-100275564D02*
X217376742Y-100275564D01*
X217376742Y-100275564D02*
X217471980Y-100323183D01*
X217471980Y-100323183D02*
X217519600Y-100370802D01*
X217519600Y-100370802D02*
X217567219Y-100466040D01*
X217567219Y-100466040D02*
X217567219Y-100608897D01*
X217519600Y-99894611D02*
X217567219Y-99799373D01*
X217567219Y-99799373D02*
X217567219Y-99608897D01*
X217567219Y-99608897D02*
X217519600Y-99513659D01*
X217519600Y-99513659D02*
X217424361Y-99466040D01*
X217424361Y-99466040D02*
X217376742Y-99466040D01*
X217376742Y-99466040D02*
X217281504Y-99513659D01*
X217281504Y-99513659D02*
X217233885Y-99608897D01*
X217233885Y-99608897D02*
X217233885Y-99751754D01*
X217233885Y-99751754D02*
X217186266Y-99846992D01*
X217186266Y-99846992D02*
X217091028Y-99894611D01*
X217091028Y-99894611D02*
X217043409Y-99894611D01*
X217043409Y-99894611D02*
X216948171Y-99846992D01*
X216948171Y-99846992D02*
X216900552Y-99751754D01*
X216900552Y-99751754D02*
X216900552Y-99608897D01*
X216900552Y-99608897D02*
X216948171Y-99513659D01*
X216900552Y-99180325D02*
X216900552Y-98799373D01*
X216567219Y-99037468D02*
X217424361Y-99037468D01*
X217424361Y-99037468D02*
X217519600Y-98989849D01*
X217519600Y-98989849D02*
X217567219Y-98894611D01*
X217567219Y-98894611D02*
X217567219Y-98799373D01*
D10*
X210758207Y-106544295D02*
X210301064Y-106544295D01*
X210529636Y-106544295D02*
X210529636Y-105744295D01*
X210529636Y-105744295D02*
X210453445Y-105858580D01*
X210453445Y-105858580D02*
X210377255Y-105934771D01*
X210377255Y-105934771D02*
X210301064Y-105972866D01*
X211062969Y-105820485D02*
X211101065Y-105782390D01*
X211101065Y-105782390D02*
X211177255Y-105744295D01*
X211177255Y-105744295D02*
X211367731Y-105744295D01*
X211367731Y-105744295D02*
X211443922Y-105782390D01*
X211443922Y-105782390D02*
X211482017Y-105820485D01*
X211482017Y-105820485D02*
X211520112Y-105896676D01*
X211520112Y-105896676D02*
X211520112Y-105972866D01*
X211520112Y-105972866D02*
X211482017Y-106087152D01*
X211482017Y-106087152D02*
X211024874Y-106544295D01*
X211024874Y-106544295D02*
X211520112Y-106544295D01*
X211748684Y-105744295D02*
X212015351Y-106544295D01*
X212015351Y-106544295D02*
X212282017Y-105744295D01*
X198914160Y-74015057D02*
X198961779Y-73967438D01*
X198961779Y-73967438D02*
X199057017Y-73919819D01*
X199057017Y-73919819D02*
X199295112Y-73919819D01*
X199295112Y-73919819D02*
X199390350Y-73967438D01*
X199390350Y-73967438D02*
X199437969Y-74015057D01*
X199437969Y-74015057D02*
X199485588Y-74110295D01*
X199485588Y-74110295D02*
X199485588Y-74205533D01*
X199485588Y-74205533D02*
X199437969Y-74348390D01*
X199437969Y-74348390D02*
X198866541Y-74919819D01*
X198866541Y-74919819D02*
X199485588Y-74919819D01*
X200342731Y-74253152D02*
X200342731Y-74919819D01*
X200104636Y-73872200D02*
X199866541Y-74586485D01*
X199866541Y-74586485D02*
X200485588Y-74586485D01*
X200723684Y-73919819D02*
X201057017Y-74919819D01*
X201057017Y-74919819D02*
X201390350Y-73919819D01*
D11*
X246893482Y-98117219D02*
X246322054Y-98117219D01*
X246607768Y-98117219D02*
X246607768Y-97117219D01*
X246607768Y-97117219D02*
X246512530Y-97260076D01*
X246512530Y-97260076D02*
X246417292Y-97355314D01*
X246417292Y-97355314D02*
X246322054Y-97402933D01*
X247274435Y-97212457D02*
X247322054Y-97164838D01*
X247322054Y-97164838D02*
X247417292Y-97117219D01*
X247417292Y-97117219D02*
X247655387Y-97117219D01*
X247655387Y-97117219D02*
X247750625Y-97164838D01*
X247750625Y-97164838D02*
X247798244Y-97212457D01*
X247798244Y-97212457D02*
X247845863Y-97307695D01*
X247845863Y-97307695D02*
X247845863Y-97402933D01*
X247845863Y-97402933D02*
X247798244Y-97545790D01*
X247798244Y-97545790D02*
X247226816Y-98117219D01*
X247226816Y-98117219D02*
X247845863Y-98117219D01*
X248131578Y-97117219D02*
X248464911Y-98117219D01*
X248464911Y-98117219D02*
X248798244Y-97117219D01*
D10*
X205833333Y-94104819D02*
X205500000Y-93628628D01*
X205261905Y-94104819D02*
X205261905Y-93104819D01*
X205261905Y-93104819D02*
X205642857Y-93104819D01*
X205642857Y-93104819D02*
X205738095Y-93152438D01*
X205738095Y-93152438D02*
X205785714Y-93200057D01*
X205785714Y-93200057D02*
X205833333Y-93295295D01*
X205833333Y-93295295D02*
X205833333Y-93438152D01*
X205833333Y-93438152D02*
X205785714Y-93533390D01*
X205785714Y-93533390D02*
X205738095Y-93581009D01*
X205738095Y-93581009D02*
X205642857Y-93628628D01*
X205642857Y-93628628D02*
X205261905Y-93628628D01*
X206214286Y-93200057D02*
X206261905Y-93152438D01*
X206261905Y-93152438D02*
X206357143Y-93104819D01*
X206357143Y-93104819D02*
X206595238Y-93104819D01*
X206595238Y-93104819D02*
X206690476Y-93152438D01*
X206690476Y-93152438D02*
X206738095Y-93200057D01*
X206738095Y-93200057D02*
X206785714Y-93295295D01*
X206785714Y-93295295D02*
X206785714Y-93390533D01*
X206785714Y-93390533D02*
X206738095Y-93533390D01*
X206738095Y-93533390D02*
X206166667Y-94104819D01*
X206166667Y-94104819D02*
X206785714Y-94104819D01*
X212583333Y-99404819D02*
X212107143Y-99404819D01*
X212107143Y-99404819D02*
X212107143Y-98404819D01*
X213440476Y-99404819D02*
X212869048Y-99404819D01*
X213154762Y-99404819D02*
X213154762Y-98404819D01*
X213154762Y-98404819D02*
X213059524Y-98547676D01*
X213059524Y-98547676D02*
X212964286Y-98642914D01*
X212964286Y-98642914D02*
X212869048Y-98690533D01*
X202333333Y-94104819D02*
X202000000Y-93628628D01*
X201761905Y-94104819D02*
X201761905Y-93104819D01*
X201761905Y-93104819D02*
X202142857Y-93104819D01*
X202142857Y-93104819D02*
X202238095Y-93152438D01*
X202238095Y-93152438D02*
X202285714Y-93200057D01*
X202285714Y-93200057D02*
X202333333Y-93295295D01*
X202333333Y-93295295D02*
X202333333Y-93438152D01*
X202333333Y-93438152D02*
X202285714Y-93533390D01*
X202285714Y-93533390D02*
X202238095Y-93581009D01*
X202238095Y-93581009D02*
X202142857Y-93628628D01*
X202142857Y-93628628D02*
X201761905Y-93628628D01*
X203285714Y-94104819D02*
X202714286Y-94104819D01*
X203000000Y-94104819D02*
X203000000Y-93104819D01*
X203000000Y-93104819D02*
X202904762Y-93247676D01*
X202904762Y-93247676D02*
X202809524Y-93342914D01*
X202809524Y-93342914D02*
X202714286Y-93390533D01*
X240088095Y-90404819D02*
X240088095Y-91214342D01*
X240088095Y-91214342D02*
X240135714Y-91309580D01*
X240135714Y-91309580D02*
X240183333Y-91357200D01*
X240183333Y-91357200D02*
X240278571Y-91404819D01*
X240278571Y-91404819D02*
X240469047Y-91404819D01*
X240469047Y-91404819D02*
X240564285Y-91357200D01*
X240564285Y-91357200D02*
X240611904Y-91309580D01*
X240611904Y-91309580D02*
X240659523Y-91214342D01*
X240659523Y-91214342D02*
X240659523Y-90404819D01*
X241611904Y-90404819D02*
X241135714Y-90404819D01*
X241135714Y-90404819D02*
X241088095Y-90881009D01*
X241088095Y-90881009D02*
X241135714Y-90833390D01*
X241135714Y-90833390D02*
X241230952Y-90785771D01*
X241230952Y-90785771D02*
X241469047Y-90785771D01*
X241469047Y-90785771D02*
X241564285Y-90833390D01*
X241564285Y-90833390D02*
X241611904Y-90881009D01*
X241611904Y-90881009D02*
X241659523Y-90976247D01*
X241659523Y-90976247D02*
X241659523Y-91214342D01*
X241659523Y-91214342D02*
X241611904Y-91309580D01*
X241611904Y-91309580D02*
X241564285Y-91357200D01*
X241564285Y-91357200D02*
X241469047Y-91404819D01*
X241469047Y-91404819D02*
X241230952Y-91404819D01*
X241230952Y-91404819D02*
X241135714Y-91357200D01*
X241135714Y-91357200D02*
X241088095Y-91309580D01*
D12*
X238511027Y-92440752D02*
X238749122Y-92440752D01*
X238463408Y-92583609D02*
X238630074Y-92083609D01*
X238630074Y-92083609D02*
X238796741Y-92583609D01*
X238963407Y-92583609D02*
X238963407Y-92083609D01*
X238963407Y-92083609D02*
X239130074Y-92440752D01*
X239130074Y-92440752D02*
X239296740Y-92083609D01*
X239296740Y-92083609D02*
X239296740Y-92583609D01*
X239511027Y-92559800D02*
X239582455Y-92583609D01*
X239582455Y-92583609D02*
X239701503Y-92583609D01*
X239701503Y-92583609D02*
X239749122Y-92559800D01*
X239749122Y-92559800D02*
X239772931Y-92535990D01*
X239772931Y-92535990D02*
X239796741Y-92488371D01*
X239796741Y-92488371D02*
X239796741Y-92440752D01*
X239796741Y-92440752D02*
X239772931Y-92393133D01*
X239772931Y-92393133D02*
X239749122Y-92369323D01*
X239749122Y-92369323D02*
X239701503Y-92345514D01*
X239701503Y-92345514D02*
X239606265Y-92321704D01*
X239606265Y-92321704D02*
X239558646Y-92297895D01*
X239558646Y-92297895D02*
X239534836Y-92274085D01*
X239534836Y-92274085D02*
X239511027Y-92226466D01*
X239511027Y-92226466D02*
X239511027Y-92178847D01*
X239511027Y-92178847D02*
X239534836Y-92131228D01*
X239534836Y-92131228D02*
X239558646Y-92107419D01*
X239558646Y-92107419D02*
X239606265Y-92083609D01*
X239606265Y-92083609D02*
X239725312Y-92083609D01*
X239725312Y-92083609D02*
X239796741Y-92107419D01*
X240272931Y-92583609D02*
X239987217Y-92583609D01*
X240130074Y-92583609D02*
X240130074Y-92083609D01*
X240130074Y-92083609D02*
X240082455Y-92155038D01*
X240082455Y-92155038D02*
X240034836Y-92202657D01*
X240034836Y-92202657D02*
X239987217Y-92226466D01*
X240749121Y-92583609D02*
X240463407Y-92583609D01*
X240606264Y-92583609D02*
X240606264Y-92083609D01*
X240606264Y-92083609D02*
X240558645Y-92155038D01*
X240558645Y-92155038D02*
X240511026Y-92202657D01*
X240511026Y-92202657D02*
X240463407Y-92226466D01*
X241225311Y-92583609D02*
X240939597Y-92583609D01*
X241082454Y-92583609D02*
X241082454Y-92083609D01*
X241082454Y-92083609D02*
X241034835Y-92155038D01*
X241034835Y-92155038D02*
X240987216Y-92202657D01*
X240987216Y-92202657D02*
X240939597Y-92226466D01*
X241391977Y-92083609D02*
X241725310Y-92083609D01*
X241725310Y-92083609D02*
X241511025Y-92583609D01*
X241915786Y-92393133D02*
X242296739Y-92393133D01*
X242487215Y-92083609D02*
X242796739Y-92083609D01*
X242796739Y-92083609D02*
X242630072Y-92274085D01*
X242630072Y-92274085D02*
X242701501Y-92274085D01*
X242701501Y-92274085D02*
X242749120Y-92297895D01*
X242749120Y-92297895D02*
X242772929Y-92321704D01*
X242772929Y-92321704D02*
X242796739Y-92369323D01*
X242796739Y-92369323D02*
X242796739Y-92488371D01*
X242796739Y-92488371D02*
X242772929Y-92535990D01*
X242772929Y-92535990D02*
X242749120Y-92559800D01*
X242749120Y-92559800D02*
X242701501Y-92583609D01*
X242701501Y-92583609D02*
X242558644Y-92583609D01*
X242558644Y-92583609D02*
X242511025Y-92559800D01*
X242511025Y-92559800D02*
X242487215Y-92535990D01*
X243011024Y-92535990D02*
X243034834Y-92559800D01*
X243034834Y-92559800D02*
X243011024Y-92583609D01*
X243011024Y-92583609D02*
X242987215Y-92559800D01*
X242987215Y-92559800D02*
X243011024Y-92535990D01*
X243011024Y-92535990D02*
X243011024Y-92583609D01*
X243201500Y-92083609D02*
X243511024Y-92083609D01*
X243511024Y-92083609D02*
X243344357Y-92274085D01*
X243344357Y-92274085D02*
X243415786Y-92274085D01*
X243415786Y-92274085D02*
X243463405Y-92297895D01*
X243463405Y-92297895D02*
X243487214Y-92321704D01*
X243487214Y-92321704D02*
X243511024Y-92369323D01*
X243511024Y-92369323D02*
X243511024Y-92488371D01*
X243511024Y-92488371D02*
X243487214Y-92535990D01*
X243487214Y-92535990D02*
X243463405Y-92559800D01*
X243463405Y-92559800D02*
X243415786Y-92583609D01*
X243415786Y-92583609D02*
X243272929Y-92583609D01*
X243272929Y-92583609D02*
X243225310Y-92559800D01*
X243225310Y-92559800D02*
X243201500Y-92535990D01*
D10*
X214333333Y-86109580D02*
X214285714Y-86157200D01*
X214285714Y-86157200D02*
X214142857Y-86204819D01*
X214142857Y-86204819D02*
X214047619Y-86204819D01*
X214047619Y-86204819D02*
X213904762Y-86157200D01*
X213904762Y-86157200D02*
X213809524Y-86061961D01*
X213809524Y-86061961D02*
X213761905Y-85966723D01*
X213761905Y-85966723D02*
X213714286Y-85776247D01*
X213714286Y-85776247D02*
X213714286Y-85633390D01*
X213714286Y-85633390D02*
X213761905Y-85442914D01*
X213761905Y-85442914D02*
X213809524Y-85347676D01*
X213809524Y-85347676D02*
X213904762Y-85252438D01*
X213904762Y-85252438D02*
X214047619Y-85204819D01*
X214047619Y-85204819D02*
X214142857Y-85204819D01*
X214142857Y-85204819D02*
X214285714Y-85252438D01*
X214285714Y-85252438D02*
X214333333Y-85300057D01*
X214714286Y-85300057D02*
X214761905Y-85252438D01*
X214761905Y-85252438D02*
X214857143Y-85204819D01*
X214857143Y-85204819D02*
X215095238Y-85204819D01*
X215095238Y-85204819D02*
X215190476Y-85252438D01*
X215190476Y-85252438D02*
X215238095Y-85300057D01*
X215238095Y-85300057D02*
X215285714Y-85395295D01*
X215285714Y-85395295D02*
X215285714Y-85490533D01*
X215285714Y-85490533D02*
X215238095Y-85633390D01*
X215238095Y-85633390D02*
X214666667Y-86204819D01*
X214666667Y-86204819D02*
X215285714Y-86204819D01*
X204609580Y-86666666D02*
X204657200Y-86714285D01*
X204657200Y-86714285D02*
X204704819Y-86857142D01*
X204704819Y-86857142D02*
X204704819Y-86952380D01*
X204704819Y-86952380D02*
X204657200Y-87095237D01*
X204657200Y-87095237D02*
X204561961Y-87190475D01*
X204561961Y-87190475D02*
X204466723Y-87238094D01*
X204466723Y-87238094D02*
X204276247Y-87285713D01*
X204276247Y-87285713D02*
X204133390Y-87285713D01*
X204133390Y-87285713D02*
X203942914Y-87238094D01*
X203942914Y-87238094D02*
X203847676Y-87190475D01*
X203847676Y-87190475D02*
X203752438Y-87095237D01*
X203752438Y-87095237D02*
X203704819Y-86952380D01*
X203704819Y-86952380D02*
X203704819Y-86857142D01*
X203704819Y-86857142D02*
X203752438Y-86714285D01*
X203752438Y-86714285D02*
X203800057Y-86666666D01*
X204038152Y-85809523D02*
X204704819Y-85809523D01*
X203657200Y-86047618D02*
X204371485Y-86285713D01*
X204371485Y-86285713D02*
X204371485Y-85666666D01*
X224883333Y-92859580D02*
X224835714Y-92907200D01*
X224835714Y-92907200D02*
X224692857Y-92954819D01*
X224692857Y-92954819D02*
X224597619Y-92954819D01*
X224597619Y-92954819D02*
X224454762Y-92907200D01*
X224454762Y-92907200D02*
X224359524Y-92811961D01*
X224359524Y-92811961D02*
X224311905Y-92716723D01*
X224311905Y-92716723D02*
X224264286Y-92526247D01*
X224264286Y-92526247D02*
X224264286Y-92383390D01*
X224264286Y-92383390D02*
X224311905Y-92192914D01*
X224311905Y-92192914D02*
X224359524Y-92097676D01*
X224359524Y-92097676D02*
X224454762Y-92002438D01*
X224454762Y-92002438D02*
X224597619Y-91954819D01*
X224597619Y-91954819D02*
X224692857Y-91954819D01*
X224692857Y-91954819D02*
X224835714Y-92002438D01*
X224835714Y-92002438D02*
X224883333Y-92050057D01*
X225835714Y-92954819D02*
X225264286Y-92954819D01*
X225550000Y-92954819D02*
X225550000Y-91954819D01*
X225550000Y-91954819D02*
X225454762Y-92097676D01*
X225454762Y-92097676D02*
X225359524Y-92192914D01*
X225359524Y-92192914D02*
X225264286Y-92240533D01*
X191633333Y-91159580D02*
X191585714Y-91207200D01*
X191585714Y-91207200D02*
X191442857Y-91254819D01*
X191442857Y-91254819D02*
X191347619Y-91254819D01*
X191347619Y-91254819D02*
X191204762Y-91207200D01*
X191204762Y-91207200D02*
X191109524Y-91111961D01*
X191109524Y-91111961D02*
X191061905Y-91016723D01*
X191061905Y-91016723D02*
X191014286Y-90826247D01*
X191014286Y-90826247D02*
X191014286Y-90683390D01*
X191014286Y-90683390D02*
X191061905Y-90492914D01*
X191061905Y-90492914D02*
X191109524Y-90397676D01*
X191109524Y-90397676D02*
X191204762Y-90302438D01*
X191204762Y-90302438D02*
X191347619Y-90254819D01*
X191347619Y-90254819D02*
X191442857Y-90254819D01*
X191442857Y-90254819D02*
X191585714Y-90302438D01*
X191585714Y-90302438D02*
X191633333Y-90350057D01*
X191966667Y-90254819D02*
X192585714Y-90254819D01*
X192585714Y-90254819D02*
X192252381Y-90635771D01*
X192252381Y-90635771D02*
X192395238Y-90635771D01*
X192395238Y-90635771D02*
X192490476Y-90683390D01*
X192490476Y-90683390D02*
X192538095Y-90731009D01*
X192538095Y-90731009D02*
X192585714Y-90826247D01*
X192585714Y-90826247D02*
X192585714Y-91064342D01*
X192585714Y-91064342D02*
X192538095Y-91159580D01*
X192538095Y-91159580D02*
X192490476Y-91207200D01*
X192490476Y-91207200D02*
X192395238Y-91254819D01*
X192395238Y-91254819D02*
X192109524Y-91254819D01*
X192109524Y-91254819D02*
X192014286Y-91207200D01*
X192014286Y-91207200D02*
X191966667Y-91159580D01*
X200511905Y-102204819D02*
X200511905Y-101204819D01*
X200511905Y-101204819D02*
X200750000Y-101204819D01*
X200750000Y-101204819D02*
X200892857Y-101252438D01*
X200892857Y-101252438D02*
X200988095Y-101347676D01*
X200988095Y-101347676D02*
X201035714Y-101442914D01*
X201035714Y-101442914D02*
X201083333Y-101633390D01*
X201083333Y-101633390D02*
X201083333Y-101776247D01*
X201083333Y-101776247D02*
X201035714Y-101966723D01*
X201035714Y-101966723D02*
X200988095Y-102061961D01*
X200988095Y-102061961D02*
X200892857Y-102157200D01*
X200892857Y-102157200D02*
X200750000Y-102204819D01*
X200750000Y-102204819D02*
X200511905Y-102204819D01*
X202035714Y-102204819D02*
X201464286Y-102204819D01*
X201750000Y-102204819D02*
X201750000Y-101204819D01*
X201750000Y-101204819D02*
X201654762Y-101347676D01*
X201654762Y-101347676D02*
X201559524Y-101442914D01*
X201559524Y-101442914D02*
X201464286Y-101490533D01*
X255657142Y-106759580D02*
X255609523Y-106807200D01*
X255609523Y-106807200D02*
X255466666Y-106854819D01*
X255466666Y-106854819D02*
X255371428Y-106854819D01*
X255371428Y-106854819D02*
X255228571Y-106807200D01*
X255228571Y-106807200D02*
X255133333Y-106711961D01*
X255133333Y-106711961D02*
X255085714Y-106616723D01*
X255085714Y-106616723D02*
X255038095Y-106426247D01*
X255038095Y-106426247D02*
X255038095Y-106283390D01*
X255038095Y-106283390D02*
X255085714Y-106092914D01*
X255085714Y-106092914D02*
X255133333Y-105997676D01*
X255133333Y-105997676D02*
X255228571Y-105902438D01*
X255228571Y-105902438D02*
X255371428Y-105854819D01*
X255371428Y-105854819D02*
X255466666Y-105854819D01*
X255466666Y-105854819D02*
X255609523Y-105902438D01*
X255609523Y-105902438D02*
X255657142Y-105950057D01*
X256609523Y-106854819D02*
X256038095Y-106854819D01*
X256323809Y-106854819D02*
X256323809Y-105854819D01*
X256323809Y-105854819D02*
X256228571Y-105997676D01*
X256228571Y-105997676D02*
X256133333Y-106092914D01*
X256133333Y-106092914D02*
X256038095Y-106140533D01*
X257561904Y-106854819D02*
X256990476Y-106854819D01*
X257276190Y-106854819D02*
X257276190Y-105854819D01*
X257276190Y-105854819D02*
X257180952Y-105997676D01*
X257180952Y-105997676D02*
X257085714Y-106092914D01*
X257085714Y-106092914D02*
X256990476Y-106140533D01*
X244383333Y-97759580D02*
X244335714Y-97807200D01*
X244335714Y-97807200D02*
X244192857Y-97854819D01*
X244192857Y-97854819D02*
X244097619Y-97854819D01*
X244097619Y-97854819D02*
X243954762Y-97807200D01*
X243954762Y-97807200D02*
X243859524Y-97711961D01*
X243859524Y-97711961D02*
X243811905Y-97616723D01*
X243811905Y-97616723D02*
X243764286Y-97426247D01*
X243764286Y-97426247D02*
X243764286Y-97283390D01*
X243764286Y-97283390D02*
X243811905Y-97092914D01*
X243811905Y-97092914D02*
X243859524Y-96997676D01*
X243859524Y-96997676D02*
X243954762Y-96902438D01*
X243954762Y-96902438D02*
X244097619Y-96854819D01*
X244097619Y-96854819D02*
X244192857Y-96854819D01*
X244192857Y-96854819D02*
X244335714Y-96902438D01*
X244335714Y-96902438D02*
X244383333Y-96950057D01*
X244859524Y-97854819D02*
X245050000Y-97854819D01*
X245050000Y-97854819D02*
X245145238Y-97807200D01*
X245145238Y-97807200D02*
X245192857Y-97759580D01*
X245192857Y-97759580D02*
X245288095Y-97616723D01*
X245288095Y-97616723D02*
X245335714Y-97426247D01*
X245335714Y-97426247D02*
X245335714Y-97045295D01*
X245335714Y-97045295D02*
X245288095Y-96950057D01*
X245288095Y-96950057D02*
X245240476Y-96902438D01*
X245240476Y-96902438D02*
X245145238Y-96854819D01*
X245145238Y-96854819D02*
X244954762Y-96854819D01*
X244954762Y-96854819D02*
X244859524Y-96902438D01*
X244859524Y-96902438D02*
X244811905Y-96950057D01*
X244811905Y-96950057D02*
X244764286Y-97045295D01*
X244764286Y-97045295D02*
X244764286Y-97283390D01*
X244764286Y-97283390D02*
X244811905Y-97378628D01*
X244811905Y-97378628D02*
X244859524Y-97426247D01*
X244859524Y-97426247D02*
X244954762Y-97473866D01*
X244954762Y-97473866D02*
X245145238Y-97473866D01*
X245145238Y-97473866D02*
X245240476Y-97426247D01*
X245240476Y-97426247D02*
X245288095Y-97378628D01*
X245288095Y-97378628D02*
X245335714Y-97283390D01*
X263507142Y-97959580D02*
X263459523Y-98007200D01*
X263459523Y-98007200D02*
X263316666Y-98054819D01*
X263316666Y-98054819D02*
X263221428Y-98054819D01*
X263221428Y-98054819D02*
X263078571Y-98007200D01*
X263078571Y-98007200D02*
X262983333Y-97911961D01*
X262983333Y-97911961D02*
X262935714Y-97816723D01*
X262935714Y-97816723D02*
X262888095Y-97626247D01*
X262888095Y-97626247D02*
X262888095Y-97483390D01*
X262888095Y-97483390D02*
X262935714Y-97292914D01*
X262935714Y-97292914D02*
X262983333Y-97197676D01*
X262983333Y-97197676D02*
X263078571Y-97102438D01*
X263078571Y-97102438D02*
X263221428Y-97054819D01*
X263221428Y-97054819D02*
X263316666Y-97054819D01*
X263316666Y-97054819D02*
X263459523Y-97102438D01*
X263459523Y-97102438D02*
X263507142Y-97150057D01*
X264459523Y-98054819D02*
X263888095Y-98054819D01*
X264173809Y-98054819D02*
X264173809Y-97054819D01*
X264173809Y-97054819D02*
X264078571Y-97197676D01*
X264078571Y-97197676D02*
X263983333Y-97292914D01*
X263983333Y-97292914D02*
X263888095Y-97340533D01*
X265078571Y-97054819D02*
X265173809Y-97054819D01*
X265173809Y-97054819D02*
X265269047Y-97102438D01*
X265269047Y-97102438D02*
X265316666Y-97150057D01*
X265316666Y-97150057D02*
X265364285Y-97245295D01*
X265364285Y-97245295D02*
X265411904Y-97435771D01*
X265411904Y-97435771D02*
X265411904Y-97673866D01*
X265411904Y-97673866D02*
X265364285Y-97864342D01*
X265364285Y-97864342D02*
X265316666Y-97959580D01*
X265316666Y-97959580D02*
X265269047Y-98007200D01*
X265269047Y-98007200D02*
X265173809Y-98054819D01*
X265173809Y-98054819D02*
X265078571Y-98054819D01*
X265078571Y-98054819D02*
X264983333Y-98007200D01*
X264983333Y-98007200D02*
X264935714Y-97959580D01*
X264935714Y-97959580D02*
X264888095Y-97864342D01*
X264888095Y-97864342D02*
X264840476Y-97673866D01*
X264840476Y-97673866D02*
X264840476Y-97435771D01*
X264840476Y-97435771D02*
X264888095Y-97245295D01*
X264888095Y-97245295D02*
X264935714Y-97150057D01*
X264935714Y-97150057D02*
X264983333Y-97102438D01*
X264983333Y-97102438D02*
X265078571Y-97054819D01*
X202183333Y-90654819D02*
X201850000Y-90178628D01*
X201611905Y-90654819D02*
X201611905Y-89654819D01*
X201611905Y-89654819D02*
X201992857Y-89654819D01*
X201992857Y-89654819D02*
X202088095Y-89702438D01*
X202088095Y-89702438D02*
X202135714Y-89750057D01*
X202135714Y-89750057D02*
X202183333Y-89845295D01*
X202183333Y-89845295D02*
X202183333Y-89988152D01*
X202183333Y-89988152D02*
X202135714Y-90083390D01*
X202135714Y-90083390D02*
X202088095Y-90131009D01*
X202088095Y-90131009D02*
X201992857Y-90178628D01*
X201992857Y-90178628D02*
X201611905Y-90178628D01*
X202516667Y-89654819D02*
X203135714Y-89654819D01*
X203135714Y-89654819D02*
X202802381Y-90035771D01*
X202802381Y-90035771D02*
X202945238Y-90035771D01*
X202945238Y-90035771D02*
X203040476Y-90083390D01*
X203040476Y-90083390D02*
X203088095Y-90131009D01*
X203088095Y-90131009D02*
X203135714Y-90226247D01*
X203135714Y-90226247D02*
X203135714Y-90464342D01*
X203135714Y-90464342D02*
X203088095Y-90559580D01*
X203088095Y-90559580D02*
X203040476Y-90607200D01*
X203040476Y-90607200D02*
X202945238Y-90654819D01*
X202945238Y-90654819D02*
X202659524Y-90654819D01*
X202659524Y-90654819D02*
X202564286Y-90607200D01*
X202564286Y-90607200D02*
X202516667Y-90559580D01*
X254554819Y-101561904D02*
X255364342Y-101561904D01*
X255364342Y-101561904D02*
X255459580Y-101514285D01*
X255459580Y-101514285D02*
X255507200Y-101466666D01*
X255507200Y-101466666D02*
X255554819Y-101371428D01*
X255554819Y-101371428D02*
X255554819Y-101180952D01*
X255554819Y-101180952D02*
X255507200Y-101085714D01*
X255507200Y-101085714D02*
X255459580Y-101038095D01*
X255459580Y-101038095D02*
X255364342Y-100990476D01*
X255364342Y-100990476D02*
X254554819Y-100990476D01*
X254888152Y-100085714D02*
X255554819Y-100085714D01*
X254507200Y-100323809D02*
X255221485Y-100561904D01*
X255221485Y-100561904D02*
X255221485Y-99942857D01*
D12*
X256540752Y-103288972D02*
X256540752Y-103050877D01*
X256683609Y-103336591D02*
X256183609Y-103169925D01*
X256183609Y-103169925D02*
X256683609Y-103003258D01*
X256683609Y-102836592D02*
X256183609Y-102836592D01*
X256183609Y-102836592D02*
X256540752Y-102669925D01*
X256540752Y-102669925D02*
X256183609Y-102503259D01*
X256183609Y-102503259D02*
X256683609Y-102503259D01*
X256659800Y-102288972D02*
X256683609Y-102217544D01*
X256683609Y-102217544D02*
X256683609Y-102098496D01*
X256683609Y-102098496D02*
X256659800Y-102050877D01*
X256659800Y-102050877D02*
X256635990Y-102027068D01*
X256635990Y-102027068D02*
X256588371Y-102003258D01*
X256588371Y-102003258D02*
X256540752Y-102003258D01*
X256540752Y-102003258D02*
X256493133Y-102027068D01*
X256493133Y-102027068D02*
X256469323Y-102050877D01*
X256469323Y-102050877D02*
X256445514Y-102098496D01*
X256445514Y-102098496D02*
X256421704Y-102193734D01*
X256421704Y-102193734D02*
X256397895Y-102241353D01*
X256397895Y-102241353D02*
X256374085Y-102265163D01*
X256374085Y-102265163D02*
X256326466Y-102288972D01*
X256326466Y-102288972D02*
X256278847Y-102288972D01*
X256278847Y-102288972D02*
X256231228Y-102265163D01*
X256231228Y-102265163D02*
X256207419Y-102241353D01*
X256207419Y-102241353D02*
X256183609Y-102193734D01*
X256183609Y-102193734D02*
X256183609Y-102074687D01*
X256183609Y-102074687D02*
X256207419Y-102003258D01*
X256683609Y-101527068D02*
X256683609Y-101812782D01*
X256683609Y-101669925D02*
X256183609Y-101669925D01*
X256183609Y-101669925D02*
X256255038Y-101717544D01*
X256255038Y-101717544D02*
X256302657Y-101765163D01*
X256302657Y-101765163D02*
X256326466Y-101812782D01*
X256683609Y-101050878D02*
X256683609Y-101336592D01*
X256683609Y-101193735D02*
X256183609Y-101193735D01*
X256183609Y-101193735D02*
X256255038Y-101241354D01*
X256255038Y-101241354D02*
X256302657Y-101288973D01*
X256302657Y-101288973D02*
X256326466Y-101336592D01*
X256683609Y-100574688D02*
X256683609Y-100860402D01*
X256683609Y-100717545D02*
X256183609Y-100717545D01*
X256183609Y-100717545D02*
X256255038Y-100765164D01*
X256255038Y-100765164D02*
X256302657Y-100812783D01*
X256302657Y-100812783D02*
X256326466Y-100860402D01*
X256183609Y-100408022D02*
X256183609Y-100074689D01*
X256183609Y-100074689D02*
X256683609Y-100288974D01*
X256493133Y-99884213D02*
X256493133Y-99503261D01*
X256183609Y-99027070D02*
X256183609Y-99265165D01*
X256183609Y-99265165D02*
X256421704Y-99288974D01*
X256421704Y-99288974D02*
X256397895Y-99265165D01*
X256397895Y-99265165D02*
X256374085Y-99217546D01*
X256374085Y-99217546D02*
X256374085Y-99098498D01*
X256374085Y-99098498D02*
X256397895Y-99050879D01*
X256397895Y-99050879D02*
X256421704Y-99027070D01*
X256421704Y-99027070D02*
X256469323Y-99003260D01*
X256469323Y-99003260D02*
X256588371Y-99003260D01*
X256588371Y-99003260D02*
X256635990Y-99027070D01*
X256635990Y-99027070D02*
X256659800Y-99050879D01*
X256659800Y-99050879D02*
X256683609Y-99098498D01*
X256683609Y-99098498D02*
X256683609Y-99217546D01*
X256683609Y-99217546D02*
X256659800Y-99265165D01*
X256659800Y-99265165D02*
X256635990Y-99288974D01*
X256635990Y-98788975D02*
X256659800Y-98765165D01*
X256659800Y-98765165D02*
X256683609Y-98788975D01*
X256683609Y-98788975D02*
X256659800Y-98812784D01*
X256659800Y-98812784D02*
X256635990Y-98788975D01*
X256635990Y-98788975D02*
X256683609Y-98788975D01*
X256183609Y-98455642D02*
X256183609Y-98408023D01*
X256183609Y-98408023D02*
X256207419Y-98360404D01*
X256207419Y-98360404D02*
X256231228Y-98336594D01*
X256231228Y-98336594D02*
X256278847Y-98312785D01*
X256278847Y-98312785D02*
X256374085Y-98288975D01*
X256374085Y-98288975D02*
X256493133Y-98288975D01*
X256493133Y-98288975D02*
X256588371Y-98312785D01*
X256588371Y-98312785D02*
X256635990Y-98336594D01*
X256635990Y-98336594D02*
X256659800Y-98360404D01*
X256659800Y-98360404D02*
X256683609Y-98408023D01*
X256683609Y-98408023D02*
X256683609Y-98455642D01*
X256683609Y-98455642D02*
X256659800Y-98503261D01*
X256659800Y-98503261D02*
X256635990Y-98527070D01*
X256635990Y-98527070D02*
X256588371Y-98550880D01*
X256588371Y-98550880D02*
X256493133Y-98574689D01*
X256493133Y-98574689D02*
X256374085Y-98574689D01*
X256374085Y-98574689D02*
X256278847Y-98550880D01*
X256278847Y-98550880D02*
X256231228Y-98527070D01*
X256231228Y-98527070D02*
X256207419Y-98503261D01*
X256207419Y-98503261D02*
X256183609Y-98455642D01*
D10*
X237607142Y-86209580D02*
X237559523Y-86257200D01*
X237559523Y-86257200D02*
X237416666Y-86304819D01*
X237416666Y-86304819D02*
X237321428Y-86304819D01*
X237321428Y-86304819D02*
X237178571Y-86257200D01*
X237178571Y-86257200D02*
X237083333Y-86161961D01*
X237083333Y-86161961D02*
X237035714Y-86066723D01*
X237035714Y-86066723D02*
X236988095Y-85876247D01*
X236988095Y-85876247D02*
X236988095Y-85733390D01*
X236988095Y-85733390D02*
X237035714Y-85542914D01*
X237035714Y-85542914D02*
X237083333Y-85447676D01*
X237083333Y-85447676D02*
X237178571Y-85352438D01*
X237178571Y-85352438D02*
X237321428Y-85304819D01*
X237321428Y-85304819D02*
X237416666Y-85304819D01*
X237416666Y-85304819D02*
X237559523Y-85352438D01*
X237559523Y-85352438D02*
X237607142Y-85400057D01*
X238559523Y-86304819D02*
X237988095Y-86304819D01*
X238273809Y-86304819D02*
X238273809Y-85304819D01*
X238273809Y-85304819D02*
X238178571Y-85447676D01*
X238178571Y-85447676D02*
X238083333Y-85542914D01*
X238083333Y-85542914D02*
X237988095Y-85590533D01*
X238940476Y-85400057D02*
X238988095Y-85352438D01*
X238988095Y-85352438D02*
X239083333Y-85304819D01*
X239083333Y-85304819D02*
X239321428Y-85304819D01*
X239321428Y-85304819D02*
X239416666Y-85352438D01*
X239416666Y-85352438D02*
X239464285Y-85400057D01*
X239464285Y-85400057D02*
X239511904Y-85495295D01*
X239511904Y-85495295D02*
X239511904Y-85590533D01*
X239511904Y-85590533D02*
X239464285Y-85733390D01*
X239464285Y-85733390D02*
X238892857Y-86304819D01*
X238892857Y-86304819D02*
X239511904Y-86304819D01*
X211188095Y-85254819D02*
X211188095Y-86064342D01*
X211188095Y-86064342D02*
X211235714Y-86159580D01*
X211235714Y-86159580D02*
X211283333Y-86207200D01*
X211283333Y-86207200D02*
X211378571Y-86254819D01*
X211378571Y-86254819D02*
X211569047Y-86254819D01*
X211569047Y-86254819D02*
X211664285Y-86207200D01*
X211664285Y-86207200D02*
X211711904Y-86159580D01*
X211711904Y-86159580D02*
X211759523Y-86064342D01*
X211759523Y-86064342D02*
X211759523Y-85254819D01*
X212188095Y-85350057D02*
X212235714Y-85302438D01*
X212235714Y-85302438D02*
X212330952Y-85254819D01*
X212330952Y-85254819D02*
X212569047Y-85254819D01*
X212569047Y-85254819D02*
X212664285Y-85302438D01*
X212664285Y-85302438D02*
X212711904Y-85350057D01*
X212711904Y-85350057D02*
X212759523Y-85445295D01*
X212759523Y-85445295D02*
X212759523Y-85540533D01*
X212759523Y-85540533D02*
X212711904Y-85683390D01*
X212711904Y-85683390D02*
X212140476Y-86254819D01*
X212140476Y-86254819D02*
X212759523Y-86254819D01*
D12*
X205901503Y-83753014D02*
X205544360Y-83753014D01*
X205544360Y-83753014D02*
X205544360Y-83003014D01*
X206151503Y-83753014D02*
X206151503Y-83003014D01*
X206151503Y-83003014D02*
X206401503Y-83538728D01*
X206401503Y-83538728D02*
X206651503Y-83003014D01*
X206651503Y-83003014D02*
X206651503Y-83753014D01*
X206972932Y-83074442D02*
X207008646Y-83038728D01*
X207008646Y-83038728D02*
X207080075Y-83003014D01*
X207080075Y-83003014D02*
X207258646Y-83003014D01*
X207258646Y-83003014D02*
X207330075Y-83038728D01*
X207330075Y-83038728D02*
X207365789Y-83074442D01*
X207365789Y-83074442D02*
X207401503Y-83145871D01*
X207401503Y-83145871D02*
X207401503Y-83217300D01*
X207401503Y-83217300D02*
X207365789Y-83324442D01*
X207365789Y-83324442D02*
X206937217Y-83753014D01*
X206937217Y-83753014D02*
X207401503Y-83753014D01*
X208080075Y-83003014D02*
X207722932Y-83003014D01*
X207722932Y-83003014D02*
X207687218Y-83360157D01*
X207687218Y-83360157D02*
X207722932Y-83324442D01*
X207722932Y-83324442D02*
X207794361Y-83288728D01*
X207794361Y-83288728D02*
X207972932Y-83288728D01*
X207972932Y-83288728D02*
X208044361Y-83324442D01*
X208044361Y-83324442D02*
X208080075Y-83360157D01*
X208080075Y-83360157D02*
X208115789Y-83431585D01*
X208115789Y-83431585D02*
X208115789Y-83610157D01*
X208115789Y-83610157D02*
X208080075Y-83681585D01*
X208080075Y-83681585D02*
X208044361Y-83717300D01*
X208044361Y-83717300D02*
X207972932Y-83753014D01*
X207972932Y-83753014D02*
X207794361Y-83753014D01*
X207794361Y-83753014D02*
X207722932Y-83717300D01*
X207722932Y-83717300D02*
X207687218Y-83681585D01*
X208544361Y-83324442D02*
X208472932Y-83288728D01*
X208472932Y-83288728D02*
X208437218Y-83253014D01*
X208437218Y-83253014D02*
X208401504Y-83181585D01*
X208401504Y-83181585D02*
X208401504Y-83145871D01*
X208401504Y-83145871D02*
X208437218Y-83074442D01*
X208437218Y-83074442D02*
X208472932Y-83038728D01*
X208472932Y-83038728D02*
X208544361Y-83003014D01*
X208544361Y-83003014D02*
X208687218Y-83003014D01*
X208687218Y-83003014D02*
X208758647Y-83038728D01*
X208758647Y-83038728D02*
X208794361Y-83074442D01*
X208794361Y-83074442D02*
X208830075Y-83145871D01*
X208830075Y-83145871D02*
X208830075Y-83181585D01*
X208830075Y-83181585D02*
X208794361Y-83253014D01*
X208794361Y-83253014D02*
X208758647Y-83288728D01*
X208758647Y-83288728D02*
X208687218Y-83324442D01*
X208687218Y-83324442D02*
X208544361Y-83324442D01*
X208544361Y-83324442D02*
X208472932Y-83360157D01*
X208472932Y-83360157D02*
X208437218Y-83395871D01*
X208437218Y-83395871D02*
X208401504Y-83467300D01*
X208401504Y-83467300D02*
X208401504Y-83610157D01*
X208401504Y-83610157D02*
X208437218Y-83681585D01*
X208437218Y-83681585D02*
X208472932Y-83717300D01*
X208472932Y-83717300D02*
X208544361Y-83753014D01*
X208544361Y-83753014D02*
X208687218Y-83753014D01*
X208687218Y-83753014D02*
X208758647Y-83717300D01*
X208758647Y-83717300D02*
X208794361Y-83681585D01*
X208794361Y-83681585D02*
X208830075Y-83610157D01*
X208830075Y-83610157D02*
X208830075Y-83467300D01*
X208830075Y-83467300D02*
X208794361Y-83395871D01*
X208794361Y-83395871D02*
X208758647Y-83360157D01*
X208758647Y-83360157D02*
X208687218Y-83324442D01*
X209080075Y-83003014D02*
X209580075Y-83003014D01*
X209580075Y-83003014D02*
X209258647Y-83753014D01*
X209830076Y-83717300D02*
X209937219Y-83753014D01*
X209937219Y-83753014D02*
X210115790Y-83753014D01*
X210115790Y-83753014D02*
X210187219Y-83717300D01*
X210187219Y-83717300D02*
X210222933Y-83681585D01*
X210222933Y-83681585D02*
X210258647Y-83610157D01*
X210258647Y-83610157D02*
X210258647Y-83538728D01*
X210258647Y-83538728D02*
X210222933Y-83467300D01*
X210222933Y-83467300D02*
X210187219Y-83431585D01*
X210187219Y-83431585D02*
X210115790Y-83395871D01*
X210115790Y-83395871D02*
X209972933Y-83360157D01*
X209972933Y-83360157D02*
X209901504Y-83324442D01*
X209901504Y-83324442D02*
X209865790Y-83288728D01*
X209865790Y-83288728D02*
X209830076Y-83217300D01*
X209830076Y-83217300D02*
X209830076Y-83145871D01*
X209830076Y-83145871D02*
X209865790Y-83074442D01*
X209865790Y-83074442D02*
X209901504Y-83038728D01*
X209901504Y-83038728D02*
X209972933Y-83003014D01*
X209972933Y-83003014D02*
X210151504Y-83003014D01*
X210151504Y-83003014D02*
X210258647Y-83038728D01*
X210580076Y-83467300D02*
X211151505Y-83467300D01*
X211472933Y-83538728D02*
X211830076Y-83538728D01*
X211401504Y-83753014D02*
X211651504Y-83003014D01*
X211651504Y-83003014D02*
X211901504Y-83753014D01*
X212151504Y-83753014D02*
X212151504Y-83003014D01*
X212151504Y-83003014D02*
X212330075Y-83003014D01*
X212330075Y-83003014D02*
X212437218Y-83038728D01*
X212437218Y-83038728D02*
X212508647Y-83110157D01*
X212508647Y-83110157D02*
X212544361Y-83181585D01*
X212544361Y-83181585D02*
X212580075Y-83324442D01*
X212580075Y-83324442D02*
X212580075Y-83431585D01*
X212580075Y-83431585D02*
X212544361Y-83574442D01*
X212544361Y-83574442D02*
X212508647Y-83645871D01*
X212508647Y-83645871D02*
X212437218Y-83717300D01*
X212437218Y-83717300D02*
X212330075Y-83753014D01*
X212330075Y-83753014D02*
X212151504Y-83753014D01*
X213115790Y-83003014D02*
X213115790Y-83538728D01*
X213115790Y-83538728D02*
X213080075Y-83645871D01*
X213080075Y-83645871D02*
X213008647Y-83717300D01*
X213008647Y-83717300D02*
X212901504Y-83753014D01*
X212901504Y-83753014D02*
X212830075Y-83753014D01*
D13*
%TO.C,R2*%
X206772936Y-90940000D02*
X208227064Y-90940000D01*
X206772936Y-92760000D02*
X208227064Y-92760000D01*
%TO.C,L1*%
X218810000Y-96500000D02*
X218810000Y-97350000D01*
X218810000Y-91800000D02*
X218810000Y-92600000D01*
X218200000Y-97960000D02*
X212500000Y-97960000D01*
X212500000Y-91140000D02*
X218150000Y-91140000D01*
X211890000Y-97350000D02*
X211890000Y-96500000D01*
X211890000Y-92600000D02*
X211890000Y-91750000D01*
X218200000Y-97960000D02*
G75*
G03*
X218810000Y-97350000I0J610000D01*
G01*
X218810000Y-91800000D02*
G75*
G03*
X218150000Y-91140000I-660002J-2D01*
G01*
X211890000Y-97350000D02*
G75*
G03*
X212500000Y-97960000I610000J0D01*
G01*
X212500000Y-91140000D02*
G75*
G03*
X211890000Y-91750000I0J-610000D01*
G01*
%TO.C,P16*%
X237040000Y-79290000D02*
X237040000Y-80540000D01*
X237340000Y-79590000D02*
X237340000Y-84310000D01*
X237340000Y-80900000D02*
X237950000Y-80900000D01*
X237340000Y-82200000D02*
X237950000Y-82200000D01*
X237340000Y-84310000D02*
X243460000Y-84310000D01*
X237950000Y-80200000D02*
X237950000Y-83700000D01*
X237950000Y-83700000D02*
X242850000Y-83700000D01*
X238290000Y-79290000D02*
X237040000Y-79290000D01*
X238800000Y-79390000D02*
X238800000Y-79590000D01*
X239100000Y-79390000D02*
X238800000Y-79390000D01*
X239100000Y-79490000D02*
X238800000Y-79490000D01*
X239100000Y-79590000D02*
X239100000Y-79390000D01*
X239900000Y-79590000D02*
X239900000Y-80200000D01*
X239900000Y-80200000D02*
X237950000Y-80200000D01*
X240300000Y-83200000D02*
X240500000Y-83200000D01*
X240300000Y-83700000D02*
X240300000Y-83200000D01*
X240400000Y-83700000D02*
X240400000Y-83200000D01*
X240500000Y-83200000D02*
X240500000Y-83700000D01*
X240900000Y-80200000D02*
X240900000Y-79590000D01*
X242850000Y-80200000D02*
X240900000Y-80200000D01*
X242850000Y-83700000D02*
X242850000Y-80200000D01*
X243460000Y-79590000D02*
X237340000Y-79590000D01*
X243460000Y-80900000D02*
X242850000Y-80900000D01*
X243460000Y-82200000D02*
X242850000Y-82200000D01*
X243460000Y-84310000D02*
X243460000Y-79590000D01*
%TO.C,P19*%
X252765000Y-84840000D02*
X252765000Y-86090000D01*
X253065000Y-85140000D02*
X253065000Y-89860000D01*
X253065000Y-86450000D02*
X253675000Y-86450000D01*
X253065000Y-87750000D02*
X253675000Y-87750000D01*
X253065000Y-89860000D02*
X259185000Y-89860000D01*
X253675000Y-85750000D02*
X253675000Y-89250000D01*
X253675000Y-89250000D02*
X258575000Y-89250000D01*
X254015000Y-84840000D02*
X252765000Y-84840000D01*
X254525000Y-84940000D02*
X254525000Y-85140000D01*
X254825000Y-84940000D02*
X254525000Y-84940000D01*
X254825000Y-85040000D02*
X254525000Y-85040000D01*
X254825000Y-85140000D02*
X254825000Y-84940000D01*
X255625000Y-85140000D02*
X255625000Y-85750000D01*
X255625000Y-85750000D02*
X253675000Y-85750000D01*
X256025000Y-88750000D02*
X256225000Y-88750000D01*
X256025000Y-89250000D02*
X256025000Y-88750000D01*
X256125000Y-89250000D02*
X256125000Y-88750000D01*
X256225000Y-88750000D02*
X256225000Y-89250000D01*
X256625000Y-85750000D02*
X256625000Y-85140000D01*
X258575000Y-85750000D02*
X256625000Y-85750000D01*
X258575000Y-89250000D02*
X258575000Y-85750000D01*
X259185000Y-85140000D02*
X253065000Y-85140000D01*
X259185000Y-86450000D02*
X258575000Y-86450000D01*
X259185000Y-87750000D02*
X258575000Y-87750000D01*
X259185000Y-89860000D02*
X259185000Y-85140000D01*
D14*
%TO.C,J1*%
X250200000Y-106850000D02*
X237500000Y-106850000D01*
X250200000Y-98750000D02*
X250200000Y-106850000D01*
X237500000Y-106850000D02*
X234700000Y-104400000D01*
X237500000Y-98750000D02*
X250200000Y-98750000D01*
X234700000Y-104400000D02*
X234700000Y-101200000D01*
X234700000Y-101200000D02*
X237500000Y-98750000D01*
D13*
%TO.C,P7*%
X260065000Y-84840000D02*
X260065000Y-86090000D01*
X260365000Y-85140000D02*
X260365000Y-89860000D01*
X260365000Y-86450000D02*
X260975000Y-86450000D01*
X260365000Y-87750000D02*
X260975000Y-87750000D01*
X260365000Y-89860000D02*
X266485000Y-89860000D01*
X260975000Y-85750000D02*
X260975000Y-89250000D01*
X260975000Y-89250000D02*
X265875000Y-89250000D01*
X261315000Y-84840000D02*
X260065000Y-84840000D01*
X261825000Y-84940000D02*
X261825000Y-85140000D01*
X262125000Y-84940000D02*
X261825000Y-84940000D01*
X262125000Y-85040000D02*
X261825000Y-85040000D01*
X262125000Y-85140000D02*
X262125000Y-84940000D01*
X262925000Y-85140000D02*
X262925000Y-85750000D01*
X262925000Y-85750000D02*
X260975000Y-85750000D01*
X263325000Y-88750000D02*
X263525000Y-88750000D01*
X263325000Y-89250000D02*
X263325000Y-88750000D01*
X263425000Y-89250000D02*
X263425000Y-88750000D01*
X263525000Y-88750000D02*
X263525000Y-89250000D01*
X263925000Y-85750000D02*
X263925000Y-85140000D01*
X265875000Y-85750000D02*
X263925000Y-85750000D01*
X265875000Y-89250000D02*
X265875000Y-85750000D01*
X266485000Y-85140000D02*
X260365000Y-85140000D01*
X266485000Y-86450000D02*
X265875000Y-86450000D01*
X266485000Y-87750000D02*
X265875000Y-87750000D01*
X266485000Y-89860000D02*
X266485000Y-85140000D01*
%TO.C,R1*%
X201822936Y-90940000D02*
X203277064Y-90940000D01*
X201822936Y-92760000D02*
X203277064Y-92760000D01*
%TO.C,G\u002A\u002A\u002A*%
G36*
X204598487Y-106104243D02*
G01*
X204619493Y-106159974D01*
X204621721Y-106168550D01*
X204644748Y-106260000D01*
X204752374Y-106260000D01*
X204811872Y-106263113D01*
X204850959Y-106271127D01*
X204860000Y-106278548D01*
X204844140Y-106303774D01*
X204802680Y-106340802D01*
X204744799Y-106381675D01*
X204731422Y-106390000D01*
X204713044Y-106405052D01*
X204708813Y-106427079D01*
X204718737Y-106467783D01*
X204731505Y-106506083D01*
X204748373Y-106562834D01*
X204755333Y-106602610D01*
X204753654Y-106613011D01*
X204732644Y-106608780D01*
X204690296Y-106586287D01*
X204655710Y-106563929D01*
X204568610Y-106504002D01*
X204499305Y-106561463D01*
X204444523Y-106603266D01*
X204413474Y-106615845D01*
X204402292Y-106598931D01*
X204406604Y-106555000D01*
X204419081Y-106494644D01*
X204431171Y-106446462D01*
X204432263Y-106413043D01*
X204408426Y-106382486D01*
X204372197Y-106356462D01*
X204318033Y-106315036D01*
X204302070Y-106285419D01*
X204324409Y-106267241D01*
X204385148Y-106260134D01*
X204398333Y-106260000D01*
X204457454Y-106258402D01*
X204489986Y-106247678D01*
X204509336Y-106218934D01*
X204524583Y-106176250D01*
X204551328Y-106112357D01*
X204575864Y-106088363D01*
X204598487Y-106104243D01*
G37*
G36*
X204598561Y-104724216D02*
G01*
X204619500Y-104779949D01*
X204621476Y-104787579D01*
X204644259Y-104878057D01*
X204745557Y-104884028D01*
X204804394Y-104891035D01*
X204843716Y-104902401D01*
X204852607Y-104910000D01*
X204841012Y-104932086D01*
X204805055Y-104965595D01*
X204780104Y-104984151D01*
X204701849Y-105038302D01*
X204733174Y-105130235D01*
X204749381Y-105185698D01*
X204755568Y-105223962D01*
X204753804Y-105232861D01*
X204732560Y-105229065D01*
X204690940Y-105207225D01*
X204666912Y-105191777D01*
X204612613Y-105156654D01*
X204576309Y-105143999D01*
X204543005Y-105153658D01*
X204497706Y-105185481D01*
X204491777Y-105190000D01*
X204438781Y-105227148D01*
X204410379Y-105236546D01*
X204402108Y-105217932D01*
X204406518Y-105185000D01*
X204420127Y-105122117D01*
X204430413Y-105078692D01*
X204433168Y-105041774D01*
X204414250Y-105011415D01*
X204371762Y-104978692D01*
X204317975Y-104935775D01*
X204302074Y-104905528D01*
X204324254Y-104887224D01*
X204384710Y-104880140D01*
X204398333Y-104880000D01*
X204457454Y-104878402D01*
X204489986Y-104867678D01*
X204509336Y-104838934D01*
X204524583Y-104796250D01*
X204551355Y-104732343D01*
X204575931Y-104708340D01*
X204598561Y-104724216D01*
G37*
G36*
X202616021Y-106097168D02*
G01*
X202636098Y-106140525D01*
X202644905Y-106165000D01*
X202663352Y-106214845D01*
X202684276Y-106240745D01*
X202720640Y-106251662D01*
X202776572Y-106256045D01*
X202834749Y-106262728D01*
X202872266Y-106273342D01*
X202880000Y-106280919D01*
X202865107Y-106302809D01*
X202827323Y-106336944D01*
X202803078Y-106355470D01*
X202726156Y-106411192D01*
X202754299Y-106507708D01*
X202768624Y-106564806D01*
X202774209Y-106604322D01*
X202772534Y-106614131D01*
X202752247Y-106609308D01*
X202712901Y-106585482D01*
X202694425Y-106572019D01*
X202637632Y-106533822D01*
X202594181Y-106523605D01*
X202548988Y-106541203D01*
X202508222Y-106570000D01*
X202458132Y-106606092D01*
X202431588Y-106617317D01*
X202421776Y-106604847D01*
X202421128Y-106585000D01*
X202428252Y-106542955D01*
X202444159Y-106486676D01*
X202446415Y-106480000D01*
X202459271Y-106436097D01*
X202455043Y-106407360D01*
X202427832Y-106379345D01*
X202395287Y-106354874D01*
X202350525Y-106318179D01*
X202323560Y-106288509D01*
X202320000Y-106279874D01*
X202337994Y-106268567D01*
X202384029Y-106261368D01*
X202420627Y-106260000D01*
X202485002Y-106256600D01*
X202519497Y-106244379D01*
X202532502Y-106225000D01*
X202563322Y-106138223D01*
X202587499Y-106090284D01*
X202600759Y-106080000D01*
X202616021Y-106097168D01*
G37*
G36*
X202324143Y-102578823D02*
G01*
X202522499Y-102632897D01*
X202710711Y-102718626D01*
X202882349Y-102832415D01*
X203030981Y-102970667D01*
X203150177Y-103129788D01*
X203154716Y-103137333D01*
X203236550Y-103290638D01*
X203291110Y-103434812D01*
X203323001Y-103584886D01*
X203335720Y-103728244D01*
X203336502Y-103893524D01*
X203321516Y-104024309D01*
X203290272Y-104123070D01*
X203243938Y-104190642D01*
X203176723Y-104251016D01*
X203081250Y-104327233D01*
X202963820Y-104414995D01*
X202830732Y-104510003D01*
X202688288Y-104607956D01*
X202542788Y-104704557D01*
X202400531Y-104795507D01*
X202267820Y-104876506D01*
X202150953Y-104943256D01*
X202105993Y-104967097D01*
X202023159Y-104993309D01*
X201921862Y-104994276D01*
X201796414Y-104969924D01*
X201770000Y-104962607D01*
X201587768Y-104891644D01*
X201414277Y-104788890D01*
X201257074Y-104660573D01*
X201123705Y-104512921D01*
X201021716Y-104352163D01*
X201015663Y-104340000D01*
X200935290Y-104132215D01*
X200892557Y-103918479D01*
X200887332Y-103703362D01*
X200919481Y-103491434D01*
X200988870Y-103287266D01*
X201049938Y-103167608D01*
X201089817Y-103109057D01*
X201148402Y-103035077D01*
X201215653Y-102958053D01*
X201245940Y-102925832D01*
X201405926Y-102788324D01*
X201588940Y-102680880D01*
X201789044Y-102605982D01*
X202000301Y-102566107D01*
X202122075Y-102560000D01*
X202324143Y-102578823D01*
G37*
G36*
X204220000Y-102145673D02*
G01*
X204331736Y-102150168D01*
X204413745Y-102156715D01*
X204476297Y-102166973D01*
X204529664Y-102182599D01*
X204581281Y-102203956D01*
X204698504Y-102276959D01*
X204784348Y-102373597D01*
X204837101Y-102490671D01*
X204855049Y-102624984D01*
X204849514Y-102704687D01*
X204826586Y-102816375D01*
X204787641Y-102947462D01*
X204737799Y-103083386D01*
X204682179Y-103209585D01*
X204650806Y-103269886D01*
X204525478Y-103468772D01*
X204366132Y-103679780D01*
X204175829Y-103900030D01*
X203957631Y-104126642D01*
X203714600Y-104356737D01*
X203449799Y-104587436D01*
X203166288Y-104815859D01*
X202867131Y-105039126D01*
X202555389Y-105254360D01*
X202505698Y-105287105D01*
X202043281Y-105577015D01*
X201589218Y-105835972D01*
X201145295Y-106063148D01*
X200713297Y-106257713D01*
X200295010Y-106418841D01*
X199892220Y-106545702D01*
X199670000Y-106602421D01*
X199524092Y-106631197D01*
X199367310Y-106653278D01*
X199208269Y-106668205D01*
X199055586Y-106675519D01*
X198917876Y-106674762D01*
X198803755Y-106665475D01*
X198736934Y-106652094D01*
X198589534Y-106594753D01*
X198477161Y-106518156D01*
X198399648Y-106422057D01*
X198356828Y-106306213D01*
X198348533Y-106170376D01*
X198357342Y-106094519D01*
X198404047Y-105919099D01*
X198487159Y-105730289D01*
X198605788Y-105529154D01*
X198759044Y-105316757D01*
X198946037Y-105094165D01*
X199165876Y-104862441D01*
X199417673Y-104622651D01*
X199700536Y-104375858D01*
X199990000Y-104141538D01*
X200062692Y-104085575D01*
X200124083Y-104040079D01*
X200167297Y-104010032D01*
X200185000Y-104000312D01*
X200199049Y-104006034D01*
X200192118Y-104025972D01*
X200161926Y-104062799D01*
X200106198Y-104119187D01*
X200022653Y-104197810D01*
X199995000Y-104223226D01*
X199759191Y-104448606D01*
X199559703Y-104659819D01*
X199395826Y-104857827D01*
X199266850Y-105043592D01*
X199172068Y-105218076D01*
X199110769Y-105382241D01*
X199095902Y-105443109D01*
X199086601Y-105570997D01*
X199113407Y-105682965D01*
X199174723Y-105776443D01*
X199268950Y-105848861D01*
X199375421Y-105892436D01*
X199479415Y-105911660D01*
X199612347Y-105919410D01*
X199764992Y-105916201D01*
X199928124Y-105902546D01*
X200092519Y-105878960D01*
X200248953Y-105845956D01*
X200260000Y-105843143D01*
X200561445Y-105754260D01*
X200882847Y-105639132D01*
X201217379Y-105501221D01*
X201558210Y-105343988D01*
X201898513Y-105170896D01*
X202231458Y-104985406D01*
X202550218Y-104790981D01*
X202847964Y-104591082D01*
X203100000Y-104403316D01*
X203411799Y-104148932D01*
X203686180Y-103906653D01*
X203923670Y-103675922D01*
X204124792Y-103456182D01*
X204290074Y-103246875D01*
X204420040Y-103047445D01*
X204474432Y-102946267D01*
X204543251Y-102782940D01*
X204577513Y-102639704D01*
X204577184Y-102516446D01*
X204542231Y-102413051D01*
X204472619Y-102329406D01*
X204368315Y-102265398D01*
X204258869Y-102227996D01*
X204165375Y-102212521D01*
X204046294Y-102205347D01*
X203915182Y-102206547D01*
X203785598Y-102216194D01*
X203720000Y-102225108D01*
X203687562Y-102218356D01*
X203680000Y-102210000D01*
X203690881Y-102194145D01*
X203735271Y-102179243D01*
X203806679Y-102166069D01*
X203898616Y-102155394D01*
X204004590Y-102147992D01*
X204118111Y-102144637D01*
X204220000Y-102145673D01*
G37*
%TO.C,P24*%
X229990000Y-90890000D02*
X229990000Y-92140000D01*
X230290000Y-91190000D02*
X230290000Y-95910000D01*
X230290000Y-92500000D02*
X230900000Y-92500000D01*
X230290000Y-93800000D02*
X230900000Y-93800000D01*
X230290000Y-95910000D02*
X236410000Y-95910000D01*
X230900000Y-91800000D02*
X230900000Y-95300000D01*
X230900000Y-95300000D02*
X235800000Y-95300000D01*
X231240000Y-90890000D02*
X229990000Y-90890000D01*
X231750000Y-90990000D02*
X231750000Y-91190000D01*
X232050000Y-90990000D02*
X231750000Y-90990000D01*
X232050000Y-91090000D02*
X231750000Y-91090000D01*
X232050000Y-91190000D02*
X232050000Y-90990000D01*
X232850000Y-91190000D02*
X232850000Y-91800000D01*
X232850000Y-91800000D02*
X230900000Y-91800000D01*
X233250000Y-94800000D02*
X233450000Y-94800000D01*
X233250000Y-95300000D02*
X233250000Y-94800000D01*
X233350000Y-95300000D02*
X233350000Y-94800000D01*
X233450000Y-94800000D02*
X233450000Y-95300000D01*
X233850000Y-91800000D02*
X233850000Y-91190000D01*
X235800000Y-91800000D02*
X233850000Y-91800000D01*
X235800000Y-95300000D02*
X235800000Y-91800000D01*
X236410000Y-91190000D02*
X230290000Y-91190000D01*
X236410000Y-92500000D02*
X235800000Y-92500000D01*
X236410000Y-93800000D02*
X235800000Y-93800000D01*
X236410000Y-95910000D02*
X236410000Y-91190000D01*
%TO.C,P26*%
X245365000Y-79190000D02*
X245365000Y-80440000D01*
X245665000Y-79490000D02*
X245665000Y-84210000D01*
X245665000Y-80800000D02*
X246275000Y-80800000D01*
X245665000Y-82100000D02*
X246275000Y-82100000D01*
X245665000Y-84210000D02*
X251785000Y-84210000D01*
X246275000Y-80100000D02*
X246275000Y-83600000D01*
X246275000Y-83600000D02*
X251175000Y-83600000D01*
X246615000Y-79190000D02*
X245365000Y-79190000D01*
X247125000Y-79290000D02*
X247125000Y-79490000D01*
X247425000Y-79290000D02*
X247125000Y-79290000D01*
X247425000Y-79390000D02*
X247125000Y-79390000D01*
X247425000Y-79490000D02*
X247425000Y-79290000D01*
X248225000Y-79490000D02*
X248225000Y-80100000D01*
X248225000Y-80100000D02*
X246275000Y-80100000D01*
X248625000Y-83100000D02*
X248825000Y-83100000D01*
X248625000Y-83600000D02*
X248625000Y-83100000D01*
X248725000Y-83600000D02*
X248725000Y-83100000D01*
X248825000Y-83100000D02*
X248825000Y-83600000D01*
X249225000Y-80100000D02*
X249225000Y-79490000D01*
X251175000Y-80100000D02*
X249225000Y-80100000D01*
X251175000Y-83600000D02*
X251175000Y-80100000D01*
X251785000Y-79490000D02*
X245665000Y-79490000D01*
X251785000Y-80800000D02*
X251175000Y-80800000D01*
X251785000Y-82100000D02*
X251175000Y-82100000D01*
X251785000Y-84210000D02*
X251785000Y-79490000D01*
%TO.C,P13*%
X215840000Y-79290000D02*
X215840000Y-80540000D01*
X216140000Y-79590000D02*
X216140000Y-84310000D01*
X216140000Y-80900000D02*
X216750000Y-80900000D01*
X216140000Y-82200000D02*
X216750000Y-82200000D01*
X216140000Y-84310000D02*
X222260000Y-84310000D01*
X216750000Y-80200000D02*
X216750000Y-83700000D01*
X216750000Y-83700000D02*
X221650000Y-83700000D01*
X217090000Y-79290000D02*
X215840000Y-79290000D01*
X217600000Y-79390000D02*
X217600000Y-79590000D01*
X217900000Y-79390000D02*
X217600000Y-79390000D01*
X217900000Y-79490000D02*
X217600000Y-79490000D01*
X217900000Y-79590000D02*
X217900000Y-79390000D01*
X218700000Y-79590000D02*
X218700000Y-80200000D01*
X218700000Y-80200000D02*
X216750000Y-80200000D01*
X219100000Y-83200000D02*
X219300000Y-83200000D01*
X219100000Y-83700000D02*
X219100000Y-83200000D01*
X219200000Y-83700000D02*
X219200000Y-83200000D01*
X219300000Y-83200000D02*
X219300000Y-83700000D01*
X219700000Y-80200000D02*
X219700000Y-79590000D01*
X221650000Y-80200000D02*
X219700000Y-80200000D01*
X221650000Y-83700000D02*
X221650000Y-80200000D01*
X222260000Y-79590000D02*
X216140000Y-79590000D01*
X222260000Y-80900000D02*
X221650000Y-80900000D01*
X222260000Y-82200000D02*
X221650000Y-82200000D01*
X222260000Y-84310000D02*
X222260000Y-79590000D01*
%TO.C,P17*%
X252765000Y-73540000D02*
X252765000Y-74790000D01*
X253065000Y-73840000D02*
X253065000Y-78560000D01*
X253065000Y-75150000D02*
X253675000Y-75150000D01*
X253065000Y-76450000D02*
X253675000Y-76450000D01*
X253065000Y-78560000D02*
X259185000Y-78560000D01*
X253675000Y-74450000D02*
X253675000Y-77950000D01*
X253675000Y-77950000D02*
X258575000Y-77950000D01*
X254015000Y-73540000D02*
X252765000Y-73540000D01*
X254525000Y-73640000D02*
X254525000Y-73840000D01*
X254825000Y-73640000D02*
X254525000Y-73640000D01*
X254825000Y-73740000D02*
X254525000Y-73740000D01*
X254825000Y-73840000D02*
X254825000Y-73640000D01*
X255625000Y-73840000D02*
X255625000Y-74450000D01*
X255625000Y-74450000D02*
X253675000Y-74450000D01*
X256025000Y-77450000D02*
X256225000Y-77450000D01*
X256025000Y-77950000D02*
X256025000Y-77450000D01*
X256125000Y-77950000D02*
X256125000Y-77450000D01*
X256225000Y-77450000D02*
X256225000Y-77950000D01*
X256625000Y-74450000D02*
X256625000Y-73840000D01*
X258575000Y-74450000D02*
X256625000Y-74450000D01*
X258575000Y-77950000D02*
X258575000Y-74450000D01*
X259185000Y-73840000D02*
X253065000Y-73840000D01*
X259185000Y-75150000D02*
X258575000Y-75150000D01*
X259185000Y-76450000D02*
X258575000Y-76450000D01*
X259185000Y-78560000D02*
X259185000Y-73840000D01*
%TO.C,U5*%
X237390000Y-95500000D02*
X237390000Y-89490000D01*
X244210000Y-93250000D02*
X244210000Y-89490000D01*
X237390000Y-89490000D02*
X238650000Y-89490000D01*
X244210000Y-89490000D02*
X242950000Y-89490000D01*
%TO.C,C2*%
X213815000Y-89061252D02*
X213815000Y-88538748D01*
X215285000Y-89061252D02*
X215285000Y-88538748D01*
%TO.C,P21*%
X215840000Y-85090000D02*
X215840000Y-86340000D01*
X216140000Y-85390000D02*
X216140000Y-90110000D01*
X216140000Y-86700000D02*
X216750000Y-86700000D01*
X216140000Y-88000000D02*
X216750000Y-88000000D01*
X216140000Y-90110000D02*
X222260000Y-90110000D01*
X216750000Y-86000000D02*
X216750000Y-89500000D01*
X216750000Y-89500000D02*
X221650000Y-89500000D01*
X217090000Y-85090000D02*
X215840000Y-85090000D01*
X217600000Y-85190000D02*
X217600000Y-85390000D01*
X217900000Y-85190000D02*
X217600000Y-85190000D01*
X217900000Y-85290000D02*
X217600000Y-85290000D01*
X217900000Y-85390000D02*
X217900000Y-85190000D01*
X218700000Y-85390000D02*
X218700000Y-86000000D01*
X218700000Y-86000000D02*
X216750000Y-86000000D01*
X219100000Y-89000000D02*
X219300000Y-89000000D01*
X219100000Y-89500000D02*
X219100000Y-89000000D01*
X219200000Y-89500000D02*
X219200000Y-89000000D01*
X219300000Y-89000000D02*
X219300000Y-89500000D01*
X219700000Y-86000000D02*
X219700000Y-85390000D01*
X221650000Y-86000000D02*
X219700000Y-86000000D01*
X221650000Y-89500000D02*
X221650000Y-86000000D01*
X222260000Y-85390000D02*
X216140000Y-85390000D01*
X222260000Y-86700000D02*
X221650000Y-86700000D01*
X222260000Y-88000000D02*
X221650000Y-88000000D01*
X222260000Y-90110000D02*
X222260000Y-85390000D01*
%TO.C,P25*%
X245365000Y-73540000D02*
X245365000Y-74790000D01*
X245665000Y-73840000D02*
X245665000Y-78560000D01*
X245665000Y-75150000D02*
X246275000Y-75150000D01*
X245665000Y-76450000D02*
X246275000Y-76450000D01*
X245665000Y-78560000D02*
X251785000Y-78560000D01*
X246275000Y-74450000D02*
X246275000Y-77950000D01*
X246275000Y-77950000D02*
X251175000Y-77950000D01*
X246615000Y-73540000D02*
X245365000Y-73540000D01*
X247125000Y-73640000D02*
X247125000Y-73840000D01*
X247425000Y-73640000D02*
X247125000Y-73640000D01*
X247425000Y-73740000D02*
X247125000Y-73740000D01*
X247425000Y-73840000D02*
X247425000Y-73640000D01*
X248225000Y-73840000D02*
X248225000Y-74450000D01*
X248225000Y-74450000D02*
X246275000Y-74450000D01*
X248625000Y-77450000D02*
X248825000Y-77450000D01*
X248625000Y-77950000D02*
X248625000Y-77450000D01*
X248725000Y-77950000D02*
X248725000Y-77450000D01*
X248825000Y-77450000D02*
X248825000Y-77950000D01*
X249225000Y-74450000D02*
X249225000Y-73840000D01*
X251175000Y-74450000D02*
X249225000Y-74450000D01*
X251175000Y-77950000D02*
X251175000Y-74450000D01*
X251785000Y-73840000D02*
X245665000Y-73840000D01*
X251785000Y-75150000D02*
X251175000Y-75150000D01*
X251785000Y-76450000D02*
X251175000Y-76450000D01*
X251785000Y-78560000D02*
X251785000Y-73840000D01*
%TO.C,P23*%
X229990000Y-85140000D02*
X229990000Y-86390000D01*
X230290000Y-85440000D02*
X230290000Y-90160000D01*
X230290000Y-86750000D02*
X230900000Y-86750000D01*
X230290000Y-88050000D02*
X230900000Y-88050000D01*
X230290000Y-90160000D02*
X236410000Y-90160000D01*
X230900000Y-86050000D02*
X230900000Y-89550000D01*
X230900000Y-89550000D02*
X235800000Y-89550000D01*
X231240000Y-85140000D02*
X229990000Y-85140000D01*
X231750000Y-85240000D02*
X231750000Y-85440000D01*
X232050000Y-85240000D02*
X231750000Y-85240000D01*
X232050000Y-85340000D02*
X231750000Y-85340000D01*
X232050000Y-85440000D02*
X232050000Y-85240000D01*
X232850000Y-85440000D02*
X232850000Y-86050000D01*
X232850000Y-86050000D02*
X230900000Y-86050000D01*
X233250000Y-89050000D02*
X233450000Y-89050000D01*
X233250000Y-89550000D02*
X233250000Y-89050000D01*
X233350000Y-89550000D02*
X233350000Y-89050000D01*
X233450000Y-89050000D02*
X233450000Y-89550000D01*
X233850000Y-86050000D02*
X233850000Y-85440000D01*
X235800000Y-86050000D02*
X233850000Y-86050000D01*
X235800000Y-89550000D02*
X235800000Y-86050000D01*
X236410000Y-85440000D02*
X230290000Y-85440000D01*
X236410000Y-86750000D02*
X235800000Y-86750000D01*
X236410000Y-88050000D02*
X235800000Y-88050000D01*
X236410000Y-90160000D02*
X236410000Y-85440000D01*
%TO.C,P4*%
X236990000Y-73490000D02*
X236990000Y-74740000D01*
X237290000Y-73790000D02*
X237290000Y-78510000D01*
X237290000Y-75100000D02*
X237900000Y-75100000D01*
X237290000Y-76400000D02*
X237900000Y-76400000D01*
X237290000Y-78510000D02*
X243410000Y-78510000D01*
X237900000Y-74400000D02*
X237900000Y-77900000D01*
X237900000Y-77900000D02*
X242800000Y-77900000D01*
X238240000Y-73490000D02*
X236990000Y-73490000D01*
X238750000Y-73590000D02*
X238750000Y-73790000D01*
X239050000Y-73590000D02*
X238750000Y-73590000D01*
X239050000Y-73690000D02*
X238750000Y-73690000D01*
X239050000Y-73790000D02*
X239050000Y-73590000D01*
X239850000Y-73790000D02*
X239850000Y-74400000D01*
X239850000Y-74400000D02*
X237900000Y-74400000D01*
X240250000Y-77400000D02*
X240450000Y-77400000D01*
X240250000Y-77900000D02*
X240250000Y-77400000D01*
X240350000Y-77900000D02*
X240350000Y-77400000D01*
X240450000Y-77400000D02*
X240450000Y-77900000D01*
X240850000Y-74400000D02*
X240850000Y-73790000D01*
X242800000Y-74400000D02*
X240850000Y-74400000D01*
X242800000Y-77900000D02*
X242800000Y-74400000D01*
X243410000Y-73790000D02*
X237290000Y-73790000D01*
X243410000Y-75100000D02*
X242800000Y-75100000D01*
X243410000Y-76400000D02*
X242800000Y-76400000D01*
X243410000Y-78510000D02*
X243410000Y-73790000D01*
%TO.C,P22*%
X222940000Y-85090000D02*
X222940000Y-86340000D01*
X223240000Y-85390000D02*
X223240000Y-90110000D01*
X223240000Y-86700000D02*
X223850000Y-86700000D01*
X223240000Y-88000000D02*
X223850000Y-88000000D01*
X223240000Y-90110000D02*
X229360000Y-90110000D01*
X223850000Y-86000000D02*
X223850000Y-89500000D01*
X223850000Y-89500000D02*
X228750000Y-89500000D01*
X224190000Y-85090000D02*
X222940000Y-85090000D01*
X224700000Y-85190000D02*
X224700000Y-85390000D01*
X225000000Y-85190000D02*
X224700000Y-85190000D01*
X225000000Y-85290000D02*
X224700000Y-85290000D01*
X225000000Y-85390000D02*
X225000000Y-85190000D01*
X225800000Y-85390000D02*
X225800000Y-86000000D01*
X225800000Y-86000000D02*
X223850000Y-86000000D01*
X226200000Y-89000000D02*
X226400000Y-89000000D01*
X226200000Y-89500000D02*
X226200000Y-89000000D01*
X226300000Y-89500000D02*
X226300000Y-89000000D01*
X226400000Y-89000000D02*
X226400000Y-89500000D01*
X226800000Y-86000000D02*
X226800000Y-85390000D01*
X228750000Y-86000000D02*
X226800000Y-86000000D01*
X228750000Y-89500000D02*
X228750000Y-86000000D01*
X229360000Y-85390000D02*
X223240000Y-85390000D01*
X229360000Y-86700000D02*
X228750000Y-86700000D01*
X229360000Y-88000000D02*
X228750000Y-88000000D01*
X229360000Y-90110000D02*
X229360000Y-85390000D01*
%TO.C,P14*%
X222890000Y-79290000D02*
X222890000Y-80540000D01*
X223190000Y-79590000D02*
X223190000Y-84310000D01*
X223190000Y-80900000D02*
X223800000Y-80900000D01*
X223190000Y-82200000D02*
X223800000Y-82200000D01*
X223190000Y-84310000D02*
X229310000Y-84310000D01*
X223800000Y-80200000D02*
X223800000Y-83700000D01*
X223800000Y-83700000D02*
X228700000Y-83700000D01*
X224140000Y-79290000D02*
X222890000Y-79290000D01*
X224650000Y-79390000D02*
X224650000Y-79590000D01*
X224950000Y-79390000D02*
X224650000Y-79390000D01*
X224950000Y-79490000D02*
X224650000Y-79490000D01*
X224950000Y-79590000D02*
X224950000Y-79390000D01*
X225750000Y-79590000D02*
X225750000Y-80200000D01*
X225750000Y-80200000D02*
X223800000Y-80200000D01*
X226150000Y-83200000D02*
X226350000Y-83200000D01*
X226150000Y-83700000D02*
X226150000Y-83200000D01*
X226250000Y-83700000D02*
X226250000Y-83200000D01*
X226350000Y-83200000D02*
X226350000Y-83700000D01*
X226750000Y-80200000D02*
X226750000Y-79590000D01*
X228700000Y-80200000D02*
X226750000Y-80200000D01*
X228700000Y-83700000D02*
X228700000Y-80200000D01*
X229310000Y-79590000D02*
X223190000Y-79590000D01*
X229310000Y-80900000D02*
X228700000Y-80900000D01*
X229310000Y-82200000D02*
X228700000Y-82200000D01*
X229310000Y-84310000D02*
X229310000Y-79590000D01*
%TO.C,C4*%
X201415000Y-82211252D02*
X201415000Y-81688748D01*
X202885000Y-82211252D02*
X202885000Y-81688748D01*
%TO.C,C1*%
X220512500Y-92752500D02*
X221300000Y-92752500D01*
X220906250Y-92358750D02*
X220906250Y-93146250D01*
X221540000Y-92254437D02*
X221540000Y-93540000D01*
X221540000Y-92254437D02*
X222604437Y-91190000D01*
X221540000Y-96945563D02*
X221540000Y-95660000D01*
X221540000Y-96945563D02*
X222604437Y-98010000D01*
X222604437Y-91190000D02*
X228360000Y-91190000D01*
X222604437Y-98010000D02*
X228360000Y-98010000D01*
X228360000Y-91190000D02*
X228360000Y-93540000D01*
X228360000Y-98010000D02*
X228360000Y-95660000D01*
%TO.C,P28*%
X245365000Y-90540000D02*
X245365000Y-91790000D01*
X245665000Y-90840000D02*
X245665000Y-95560000D01*
X245665000Y-92150000D02*
X246275000Y-92150000D01*
X245665000Y-93450000D02*
X246275000Y-93450000D01*
X245665000Y-95560000D02*
X251785000Y-95560000D01*
X246275000Y-91450000D02*
X246275000Y-94950000D01*
X246275000Y-94950000D02*
X251175000Y-94950000D01*
X246615000Y-90540000D02*
X245365000Y-90540000D01*
X247125000Y-90640000D02*
X247125000Y-90840000D01*
X247425000Y-90640000D02*
X247125000Y-90640000D01*
X247425000Y-90740000D02*
X247125000Y-90740000D01*
X247425000Y-90840000D02*
X247425000Y-90640000D01*
X248225000Y-90840000D02*
X248225000Y-91450000D01*
X248225000Y-91450000D02*
X246275000Y-91450000D01*
X248625000Y-94450000D02*
X248825000Y-94450000D01*
X248625000Y-94950000D02*
X248625000Y-94450000D01*
X248725000Y-94950000D02*
X248725000Y-94450000D01*
X248825000Y-94450000D02*
X248825000Y-94950000D01*
X249225000Y-91450000D02*
X249225000Y-90840000D01*
X251175000Y-91450000D02*
X249225000Y-91450000D01*
X251175000Y-94950000D02*
X251175000Y-91450000D01*
X251785000Y-90840000D02*
X245665000Y-90840000D01*
X251785000Y-92150000D02*
X251175000Y-92150000D01*
X251785000Y-93450000D02*
X251175000Y-93450000D01*
X251785000Y-95560000D02*
X251785000Y-90840000D01*
D14*
%TO.C,J2*%
X191750000Y-89150000D02*
X191750000Y-76450000D01*
X199850000Y-89150000D02*
X191750000Y-89150000D01*
X191750000Y-76450000D02*
X194200000Y-73650000D01*
X199850000Y-76450000D02*
X199850000Y-89150000D01*
X194200000Y-73650000D02*
X197400000Y-73650000D01*
X197400000Y-73650000D02*
X199850000Y-76450000D01*
D13*
%TO.C,C3*%
X197875000Y-90670354D02*
X197875000Y-91670354D01*
X198375000Y-91170354D02*
X197375000Y-91170354D01*
X200080000Y-96150000D02*
X189920000Y-96150000D01*
X200080000Y-96190000D02*
X189920000Y-96190000D01*
X200080000Y-96230000D02*
X189920000Y-96230000D01*
X200079000Y-96270000D02*
X189921000Y-96270000D01*
X200078000Y-96310000D02*
X189922000Y-96310000D01*
X200077000Y-96350000D02*
X189923000Y-96350000D01*
X200075000Y-96390000D02*
X189925000Y-96390000D01*
X200073000Y-96430000D02*
X189927000Y-96430000D01*
X200070000Y-96470000D02*
X189930000Y-96470000D01*
X200068000Y-96510000D02*
X189932000Y-96510000D01*
X200065000Y-96550000D02*
X189935000Y-96550000D01*
X200062000Y-96590000D02*
X189938000Y-96590000D01*
X200058000Y-96630000D02*
X189942000Y-96630000D01*
X200054000Y-96670000D02*
X189946000Y-96670000D01*
X200050000Y-96710000D02*
X189950000Y-96710000D01*
X200045000Y-96750000D02*
X189955000Y-96750000D01*
X200040000Y-96790000D02*
X189960000Y-96790000D01*
X200035000Y-96830000D02*
X189965000Y-96830000D01*
X200030000Y-96871000D02*
X189970000Y-96871000D01*
X200024000Y-96911000D02*
X189976000Y-96911000D01*
X200018000Y-96951000D02*
X189982000Y-96951000D01*
X200011000Y-96991000D02*
X189989000Y-96991000D01*
X200004000Y-97031000D02*
X189996000Y-97031000D01*
X199997000Y-97071000D02*
X190003000Y-97071000D01*
X199990000Y-97111000D02*
X190010000Y-97111000D01*
X199982000Y-97151000D02*
X190018000Y-97151000D01*
X199974000Y-97191000D02*
X190026000Y-97191000D01*
X199965000Y-97231000D02*
X190035000Y-97231000D01*
X199956000Y-97271000D02*
X190044000Y-97271000D01*
X199947000Y-97311000D02*
X190053000Y-97311000D01*
X199938000Y-97351000D02*
X190062000Y-97351000D01*
X199928000Y-97391000D02*
X190072000Y-97391000D01*
X199918000Y-97431000D02*
X196241000Y-97431000D01*
X193759000Y-97431000D02*
X190082000Y-97431000D01*
X199907000Y-97471000D02*
X196241000Y-97471000D01*
X193759000Y-97471000D02*
X190093000Y-97471000D01*
X199897000Y-97511000D02*
X196241000Y-97511000D01*
X193759000Y-97511000D02*
X190103000Y-97511000D01*
X199885000Y-97551000D02*
X196241000Y-97551000D01*
X193759000Y-97551000D02*
X190115000Y-97551000D01*
X199874000Y-97591000D02*
X196241000Y-97591000D01*
X193759000Y-97591000D02*
X190126000Y-97591000D01*
X199862000Y-97631000D02*
X196241000Y-97631000D01*
X193759000Y-97631000D02*
X190138000Y-97631000D01*
X199850000Y-97671000D02*
X196241000Y-97671000D01*
X193759000Y-97671000D02*
X190150000Y-97671000D01*
X199837000Y-97711000D02*
X196241000Y-97711000D01*
X193759000Y-97711000D02*
X190163000Y-97711000D01*
X199824000Y-97751000D02*
X196241000Y-97751000D01*
X193759000Y-97751000D02*
X190176000Y-97751000D01*
X199811000Y-97791000D02*
X196241000Y-97791000D01*
X193759000Y-97791000D02*
X190189000Y-97791000D01*
X199797000Y-97831000D02*
X196241000Y-97831000D01*
X193759000Y-97831000D02*
X190203000Y-97831000D01*
X199783000Y-97871000D02*
X196241000Y-97871000D01*
X193759000Y-97871000D02*
X190217000Y-97871000D01*
X199768000Y-97911000D02*
X196241000Y-97911000D01*
X193759000Y-97911000D02*
X190232000Y-97911000D01*
X199754000Y-97951000D02*
X196241000Y-97951000D01*
X193759000Y-97951000D02*
X190246000Y-97951000D01*
X199738000Y-97991000D02*
X196241000Y-97991000D01*
X193759000Y-97991000D02*
X190262000Y-97991000D01*
X199723000Y-98031000D02*
X196241000Y-98031000D01*
X193759000Y-98031000D02*
X190277000Y-98031000D01*
X199707000Y-98071000D02*
X196241000Y-98071000D01*
X193759000Y-98071000D02*
X190293000Y-98071000D01*
X199690000Y-98111000D02*
X196241000Y-98111000D01*
X193759000Y-98111000D02*
X190310000Y-98111000D01*
X199674000Y-98151000D02*
X196241000Y-98151000D01*
X193759000Y-98151000D02*
X190326000Y-98151000D01*
X199657000Y-98191000D02*
X196241000Y-98191000D01*
X193759000Y-98191000D02*
X190343000Y-98191000D01*
X199639000Y-98231000D02*
X196241000Y-98231000D01*
X193759000Y-98231000D02*
X190361000Y-98231000D01*
X199621000Y-98271000D02*
X196241000Y-98271000D01*
X193759000Y-98271000D02*
X190379000Y-98271000D01*
X199603000Y-98311000D02*
X196241000Y-98311000D01*
X193759000Y-98311000D02*
X190397000Y-98311000D01*
X199584000Y-98351000D02*
X196241000Y-98351000D01*
X193759000Y-98351000D02*
X190416000Y-98351000D01*
X199564000Y-98391000D02*
X196241000Y-98391000D01*
X193759000Y-98391000D02*
X190436000Y-98391000D01*
X199545000Y-98431000D02*
X196241000Y-98431000D01*
X193759000Y-98431000D02*
X190455000Y-98431000D01*
X199525000Y-98471000D02*
X196241000Y-98471000D01*
X193759000Y-98471000D02*
X190475000Y-98471000D01*
X199504000Y-98511000D02*
X196241000Y-98511000D01*
X193759000Y-98511000D02*
X190496000Y-98511000D01*
X199483000Y-98551000D02*
X196241000Y-98551000D01*
X193759000Y-98551000D02*
X190517000Y-98551000D01*
X199462000Y-98591000D02*
X196241000Y-98591000D01*
X193759000Y-98591000D02*
X190538000Y-98591000D01*
X199440000Y-98631000D02*
X196241000Y-98631000D01*
X193759000Y-98631000D02*
X190560000Y-98631000D01*
X199417000Y-98671000D02*
X196241000Y-98671000D01*
X193759000Y-98671000D02*
X190583000Y-98671000D01*
X199395000Y-98711000D02*
X196241000Y-98711000D01*
X193759000Y-98711000D02*
X190605000Y-98711000D01*
X199371000Y-98751000D02*
X196241000Y-98751000D01*
X193759000Y-98751000D02*
X190629000Y-98751000D01*
X199347000Y-98791000D02*
X196241000Y-98791000D01*
X193759000Y-98791000D02*
X190653000Y-98791000D01*
X199323000Y-98831000D02*
X196241000Y-98831000D01*
X193759000Y-98831000D02*
X190677000Y-98831000D01*
X199298000Y-98871000D02*
X196241000Y-98871000D01*
X193759000Y-98871000D02*
X190702000Y-98871000D01*
X199273000Y-98911000D02*
X196241000Y-98911000D01*
X193759000Y-98911000D02*
X190727000Y-98911000D01*
X199247000Y-98951000D02*
X196241000Y-98951000D01*
X193759000Y-98951000D02*
X190753000Y-98951000D01*
X199221000Y-98991000D02*
X196241000Y-98991000D01*
X193759000Y-98991000D02*
X190779000Y-98991000D01*
X199194000Y-99031000D02*
X196241000Y-99031000D01*
X193759000Y-99031000D02*
X190806000Y-99031000D01*
X199166000Y-99071000D02*
X196241000Y-99071000D01*
X193759000Y-99071000D02*
X190834000Y-99071000D01*
X199138000Y-99111000D02*
X196241000Y-99111000D01*
X193759000Y-99111000D02*
X190862000Y-99111000D01*
X199110000Y-99151000D02*
X196241000Y-99151000D01*
X193759000Y-99151000D02*
X190890000Y-99151000D01*
X199080000Y-99191000D02*
X196241000Y-99191000D01*
X193759000Y-99191000D02*
X190920000Y-99191000D01*
X199050000Y-99231000D02*
X196241000Y-99231000D01*
X193759000Y-99231000D02*
X190950000Y-99231000D01*
X199020000Y-99271000D02*
X196241000Y-99271000D01*
X193759000Y-99271000D02*
X190980000Y-99271000D01*
X198989000Y-99311000D02*
X196241000Y-99311000D01*
X193759000Y-99311000D02*
X191011000Y-99311000D01*
X198957000Y-99351000D02*
X196241000Y-99351000D01*
X193759000Y-99351000D02*
X191043000Y-99351000D01*
X198925000Y-99391000D02*
X196241000Y-99391000D01*
X193759000Y-99391000D02*
X191075000Y-99391000D01*
X198892000Y-99431000D02*
X196241000Y-99431000D01*
X193759000Y-99431000D02*
X191108000Y-99431000D01*
X198858000Y-99471000D02*
X196241000Y-99471000D01*
X193759000Y-99471000D02*
X191142000Y-99471000D01*
X198824000Y-99511000D02*
X196241000Y-99511000D01*
X193759000Y-99511000D02*
X191176000Y-99511000D01*
X198789000Y-99551000D02*
X196241000Y-99551000D01*
X193759000Y-99551000D02*
X191211000Y-99551000D01*
X198753000Y-99591000D02*
X196241000Y-99591000D01*
X193759000Y-99591000D02*
X191247000Y-99591000D01*
X198716000Y-99631000D02*
X196241000Y-99631000D01*
X193759000Y-99631000D02*
X191284000Y-99631000D01*
X198679000Y-99671000D02*
X196241000Y-99671000D01*
X193759000Y-99671000D02*
X191321000Y-99671000D01*
X198640000Y-99711000D02*
X196241000Y-99711000D01*
X193759000Y-99711000D02*
X191360000Y-99711000D01*
X198601000Y-99751000D02*
X196241000Y-99751000D01*
X193759000Y-99751000D02*
X191399000Y-99751000D01*
X198561000Y-99791000D02*
X196241000Y-99791000D01*
X193759000Y-99791000D02*
X191439000Y-99791000D01*
X198520000Y-99831000D02*
X196241000Y-99831000D01*
X193759000Y-99831000D02*
X191480000Y-99831000D01*
X198478000Y-99871000D02*
X196241000Y-99871000D01*
X193759000Y-99871000D02*
X191522000Y-99871000D01*
X198436000Y-99911000D02*
X191564000Y-99911000D01*
X198392000Y-99951000D02*
X191608000Y-99951000D01*
X198347000Y-99991000D02*
X191653000Y-99991000D01*
X198301000Y-100031000D02*
X191699000Y-100031000D01*
X198254000Y-100071000D02*
X191746000Y-100071000D01*
X198206000Y-100111000D02*
X191794000Y-100111000D01*
X198156000Y-100151000D02*
X191844000Y-100151000D01*
X198106000Y-100191000D02*
X191894000Y-100191000D01*
X198054000Y-100231000D02*
X191946000Y-100231000D01*
X198000000Y-100271000D02*
X192000000Y-100271000D01*
X197945000Y-100311000D02*
X192055000Y-100311000D01*
X197889000Y-100351000D02*
X192111000Y-100351000D01*
X197830000Y-100391000D02*
X192170000Y-100391000D01*
X197770000Y-100431000D02*
X192230000Y-100431000D01*
X197709000Y-100471000D02*
X192291000Y-100471000D01*
X197645000Y-100511000D02*
X192355000Y-100511000D01*
X197579000Y-100551000D02*
X192421000Y-100551000D01*
X197510000Y-100591000D02*
X192490000Y-100591000D01*
X197439000Y-100631000D02*
X192561000Y-100631000D01*
X197365000Y-100671000D02*
X192635000Y-100671000D01*
X197289000Y-100711000D02*
X192711000Y-100711000D01*
X197209000Y-100751000D02*
X192791000Y-100751000D01*
X197125000Y-100791000D02*
X192875000Y-100791000D01*
X197037000Y-100831000D02*
X192963000Y-100831000D01*
X196944000Y-100871000D02*
X193056000Y-100871000D01*
X196846000Y-100911000D02*
X193154000Y-100911000D01*
X196742000Y-100951000D02*
X193258000Y-100951000D01*
X196630000Y-100991000D02*
X193370000Y-100991000D01*
X196510000Y-101031000D02*
X193490000Y-101031000D01*
X196378000Y-101071000D02*
X193622000Y-101071000D01*
X196230000Y-101111000D02*
X193770000Y-101111000D01*
X196062000Y-101151000D02*
X193938000Y-101151000D01*
X195862000Y-101191000D02*
X194138000Y-101191000D01*
X195599000Y-101231000D02*
X194401000Y-101231000D01*
X200120000Y-96150000D02*
G75*
G03*
X200120000Y-96150000I-5120000J0D01*
G01*
%TO.C,P27*%
X245365000Y-84840000D02*
X245365000Y-86090000D01*
X245665000Y-85140000D02*
X245665000Y-89860000D01*
X245665000Y-86450000D02*
X246275000Y-86450000D01*
X245665000Y-87750000D02*
X246275000Y-87750000D01*
X245665000Y-89860000D02*
X251785000Y-89860000D01*
X246275000Y-85750000D02*
X246275000Y-89250000D01*
X246275000Y-89250000D02*
X251175000Y-89250000D01*
X246615000Y-84840000D02*
X245365000Y-84840000D01*
X247125000Y-84940000D02*
X247125000Y-85140000D01*
X247425000Y-84940000D02*
X247125000Y-84940000D01*
X247425000Y-85040000D02*
X247125000Y-85040000D01*
X247425000Y-85140000D02*
X247425000Y-84940000D01*
X248225000Y-85140000D02*
X248225000Y-85750000D01*
X248225000Y-85750000D02*
X246275000Y-85750000D01*
X248625000Y-88750000D02*
X248825000Y-88750000D01*
X248625000Y-89250000D02*
X248625000Y-88750000D01*
X248725000Y-89250000D02*
X248725000Y-88750000D01*
X248825000Y-88750000D02*
X248825000Y-89250000D01*
X249225000Y-85750000D02*
X249225000Y-85140000D01*
X251175000Y-85750000D02*
X249225000Y-85750000D01*
X251175000Y-89250000D02*
X251175000Y-85750000D01*
X251785000Y-85140000D02*
X245665000Y-85140000D01*
X251785000Y-86450000D02*
X251175000Y-86450000D01*
X251785000Y-87750000D02*
X251175000Y-87750000D01*
X251785000Y-89860000D02*
X251785000Y-85140000D01*
%TO.C,D1*%
X200490000Y-94400000D02*
X209000000Y-94400000D01*
X200490000Y-100900000D02*
X200490000Y-94400000D01*
X200490000Y-100900000D02*
X209000000Y-100900000D01*
%TO.C,C11*%
X252738748Y-105015000D02*
X253261252Y-105015000D01*
X252738748Y-106485000D02*
X253261252Y-106485000D01*
%TO.C,C9*%
X242011252Y-97885000D02*
X241488748Y-97885000D01*
X242011252Y-96415000D02*
X241488748Y-96415000D01*
%TO.C,P2*%
X222890000Y-73490000D02*
X222890000Y-74740000D01*
X223190000Y-73790000D02*
X223190000Y-78510000D01*
X223190000Y-75100000D02*
X223800000Y-75100000D01*
X223190000Y-76400000D02*
X223800000Y-76400000D01*
X223190000Y-78510000D02*
X229310000Y-78510000D01*
X223800000Y-74400000D02*
X223800000Y-77900000D01*
X223800000Y-77900000D02*
X228700000Y-77900000D01*
X224140000Y-73490000D02*
X222890000Y-73490000D01*
X224650000Y-73590000D02*
X224650000Y-73790000D01*
X224950000Y-73590000D02*
X224650000Y-73590000D01*
X224950000Y-73690000D02*
X224650000Y-73690000D01*
X224950000Y-73790000D02*
X224950000Y-73590000D01*
X225750000Y-73790000D02*
X225750000Y-74400000D01*
X225750000Y-74400000D02*
X223800000Y-74400000D01*
X226150000Y-77400000D02*
X226350000Y-77400000D01*
X226150000Y-77900000D02*
X226150000Y-77400000D01*
X226250000Y-77900000D02*
X226250000Y-77400000D01*
X226350000Y-77400000D02*
X226350000Y-77900000D01*
X226750000Y-74400000D02*
X226750000Y-73790000D01*
X228700000Y-74400000D02*
X226750000Y-74400000D01*
X228700000Y-77900000D02*
X228700000Y-74400000D01*
X229310000Y-73790000D02*
X223190000Y-73790000D01*
X229310000Y-75100000D02*
X228700000Y-75100000D01*
X229310000Y-76400000D02*
X228700000Y-76400000D01*
X229310000Y-78510000D02*
X229310000Y-73790000D01*
%TO.C,P1*%
X215840000Y-73490000D02*
X215840000Y-74740000D01*
X216140000Y-73790000D02*
X216140000Y-78510000D01*
X216140000Y-75100000D02*
X216750000Y-75100000D01*
X216140000Y-76400000D02*
X216750000Y-76400000D01*
X216140000Y-78510000D02*
X222260000Y-78510000D01*
X216750000Y-74400000D02*
X216750000Y-77900000D01*
X216750000Y-77900000D02*
X221650000Y-77900000D01*
X217090000Y-73490000D02*
X215840000Y-73490000D01*
X217600000Y-73590000D02*
X217600000Y-73790000D01*
X217900000Y-73590000D02*
X217600000Y-73590000D01*
X217900000Y-73690000D02*
X217600000Y-73690000D01*
X217900000Y-73790000D02*
X217900000Y-73590000D01*
X218700000Y-73790000D02*
X218700000Y-74400000D01*
X218700000Y-74400000D02*
X216750000Y-74400000D01*
X219100000Y-77400000D02*
X219300000Y-77400000D01*
X219100000Y-77900000D02*
X219100000Y-77400000D01*
X219200000Y-77900000D02*
X219200000Y-77400000D01*
X219300000Y-77400000D02*
X219300000Y-77900000D01*
X219700000Y-74400000D02*
X219700000Y-73790000D01*
X221650000Y-74400000D02*
X219700000Y-74400000D01*
X221650000Y-77900000D02*
X221650000Y-74400000D01*
X222260000Y-73790000D02*
X216140000Y-73790000D01*
X222260000Y-75100000D02*
X221650000Y-75100000D01*
X222260000Y-76400000D02*
X221650000Y-76400000D01*
X222260000Y-78510000D02*
X222260000Y-73790000D01*
%TO.C,C10*%
X261938748Y-99765000D02*
X262461252Y-99765000D01*
X261938748Y-101235000D02*
X262461252Y-101235000D01*
%TO.C,P5*%
X260065000Y-73540000D02*
X260065000Y-74790000D01*
X260365000Y-73840000D02*
X260365000Y-78560000D01*
X260365000Y-75150000D02*
X260975000Y-75150000D01*
X260365000Y-76450000D02*
X260975000Y-76450000D01*
X260365000Y-78560000D02*
X266485000Y-78560000D01*
X260975000Y-74450000D02*
X260975000Y-77950000D01*
X260975000Y-77950000D02*
X265875000Y-77950000D01*
X261315000Y-73540000D02*
X260065000Y-73540000D01*
X261825000Y-73640000D02*
X261825000Y-73840000D01*
X262125000Y-73640000D02*
X261825000Y-73640000D01*
X262125000Y-73740000D02*
X261825000Y-73740000D01*
X262125000Y-73840000D02*
X262125000Y-73640000D01*
X262925000Y-73840000D02*
X262925000Y-74450000D01*
X262925000Y-74450000D02*
X260975000Y-74450000D01*
X263325000Y-77450000D02*
X263525000Y-77450000D01*
X263325000Y-77950000D02*
X263325000Y-77450000D01*
X263425000Y-77950000D02*
X263425000Y-77450000D01*
X263525000Y-77450000D02*
X263525000Y-77950000D01*
X263925000Y-74450000D02*
X263925000Y-73840000D01*
X265875000Y-74450000D02*
X263925000Y-74450000D01*
X265875000Y-77950000D02*
X265875000Y-74450000D01*
X266485000Y-73840000D02*
X260365000Y-73840000D01*
X266485000Y-75150000D02*
X265875000Y-75150000D01*
X266485000Y-76450000D02*
X265875000Y-76450000D01*
X266485000Y-78560000D02*
X266485000Y-73840000D01*
%TO.C,P18*%
X252765000Y-79190000D02*
X252765000Y-80440000D01*
X253065000Y-79490000D02*
X253065000Y-84210000D01*
X253065000Y-80800000D02*
X253675000Y-80800000D01*
X253065000Y-82100000D02*
X253675000Y-82100000D01*
X253065000Y-84210000D02*
X259185000Y-84210000D01*
X253675000Y-80100000D02*
X253675000Y-83600000D01*
X253675000Y-83600000D02*
X258575000Y-83600000D01*
X254015000Y-79190000D02*
X252765000Y-79190000D01*
X254525000Y-79290000D02*
X254525000Y-79490000D01*
X254825000Y-79290000D02*
X254525000Y-79290000D01*
X254825000Y-79390000D02*
X254525000Y-79390000D01*
X254825000Y-79490000D02*
X254825000Y-79290000D01*
X255625000Y-79490000D02*
X255625000Y-80100000D01*
X255625000Y-80100000D02*
X253675000Y-80100000D01*
X256025000Y-83100000D02*
X256225000Y-83100000D01*
X256025000Y-83600000D02*
X256025000Y-83100000D01*
X256125000Y-83600000D02*
X256125000Y-83100000D01*
X256225000Y-83100000D02*
X256225000Y-83600000D01*
X256625000Y-80100000D02*
X256625000Y-79490000D01*
X258575000Y-80100000D02*
X256625000Y-80100000D01*
X258575000Y-83600000D02*
X258575000Y-80100000D01*
X259185000Y-79490000D02*
X253065000Y-79490000D01*
X259185000Y-80800000D02*
X258575000Y-80800000D01*
X259185000Y-82100000D02*
X258575000Y-82100000D01*
X259185000Y-84210000D02*
X259185000Y-79490000D01*
%TO.C,R3*%
X201290000Y-87827064D02*
X201290000Y-86372936D01*
X203110000Y-87827064D02*
X203110000Y-86372936D01*
%TO.C,U4*%
X251650000Y-97240000D02*
X257660000Y-97240000D01*
X253900000Y-104060000D02*
X257660000Y-104060000D01*
X257660000Y-97240000D02*
X257660000Y-98500000D01*
X257660000Y-104060000D02*
X257660000Y-102800000D01*
%TO.C,P3*%
X229940000Y-73490000D02*
X229940000Y-74740000D01*
X230240000Y-73790000D02*
X230240000Y-78510000D01*
X230240000Y-75100000D02*
X230850000Y-75100000D01*
X230240000Y-76400000D02*
X230850000Y-76400000D01*
X230240000Y-78510000D02*
X236360000Y-78510000D01*
X230850000Y-74400000D02*
X230850000Y-77900000D01*
X230850000Y-77900000D02*
X235750000Y-77900000D01*
X231190000Y-73490000D02*
X229940000Y-73490000D01*
X231700000Y-73590000D02*
X231700000Y-73790000D01*
X232000000Y-73590000D02*
X231700000Y-73590000D01*
X232000000Y-73690000D02*
X231700000Y-73690000D01*
X232000000Y-73790000D02*
X232000000Y-73590000D01*
X232800000Y-73790000D02*
X232800000Y-74400000D01*
X232800000Y-74400000D02*
X230850000Y-74400000D01*
X233200000Y-77400000D02*
X233400000Y-77400000D01*
X233200000Y-77900000D02*
X233200000Y-77400000D01*
X233300000Y-77900000D02*
X233300000Y-77400000D01*
X233400000Y-77400000D02*
X233400000Y-77900000D01*
X233800000Y-74400000D02*
X233800000Y-73790000D01*
X235750000Y-74400000D02*
X233800000Y-74400000D01*
X235750000Y-77900000D02*
X235750000Y-74400000D01*
X236360000Y-73790000D02*
X230240000Y-73790000D01*
X236360000Y-75100000D02*
X235750000Y-75100000D01*
X236360000Y-76400000D02*
X235750000Y-76400000D01*
X236360000Y-78510000D02*
X236360000Y-73790000D01*
%TO.C,P15*%
X229940000Y-79290000D02*
X229940000Y-80540000D01*
X230240000Y-79590000D02*
X230240000Y-84310000D01*
X230240000Y-80900000D02*
X230850000Y-80900000D01*
X230240000Y-82200000D02*
X230850000Y-82200000D01*
X230240000Y-84310000D02*
X236360000Y-84310000D01*
X230850000Y-80200000D02*
X230850000Y-83700000D01*
X230850000Y-83700000D02*
X235750000Y-83700000D01*
X231190000Y-79290000D02*
X229940000Y-79290000D01*
X231700000Y-79390000D02*
X231700000Y-79590000D01*
X232000000Y-79390000D02*
X231700000Y-79390000D01*
X232000000Y-79490000D02*
X231700000Y-79490000D01*
X232000000Y-79590000D02*
X232000000Y-79390000D01*
X232800000Y-79590000D02*
X232800000Y-80200000D01*
X232800000Y-80200000D02*
X230850000Y-80200000D01*
X233200000Y-83200000D02*
X233400000Y-83200000D01*
X233200000Y-83700000D02*
X233200000Y-83200000D01*
X233300000Y-83700000D02*
X233300000Y-83200000D01*
X233400000Y-83200000D02*
X233400000Y-83700000D01*
X233800000Y-80200000D02*
X233800000Y-79590000D01*
X235750000Y-80200000D02*
X233800000Y-80200000D01*
X235750000Y-83700000D02*
X235750000Y-80200000D01*
X236360000Y-79590000D02*
X230240000Y-79590000D01*
X236360000Y-80900000D02*
X235750000Y-80900000D01*
X236360000Y-82200000D02*
X235750000Y-82200000D01*
X236360000Y-84310000D02*
X236360000Y-79590000D01*
%TO.C,P20*%
X252765000Y-90540000D02*
X252765000Y-91790000D01*
X253065000Y-90840000D02*
X253065000Y-95560000D01*
X253065000Y-92150000D02*
X253675000Y-92150000D01*
X253065000Y-93450000D02*
X253675000Y-93450000D01*
X253065000Y-95560000D02*
X259185000Y-95560000D01*
X253675000Y-91450000D02*
X253675000Y-94950000D01*
X253675000Y-94950000D02*
X258575000Y-94950000D01*
X254015000Y-90540000D02*
X252765000Y-90540000D01*
X254525000Y-90640000D02*
X254525000Y-90840000D01*
X254825000Y-90640000D02*
X254525000Y-90640000D01*
X254825000Y-90740000D02*
X254525000Y-90740000D01*
X254825000Y-90840000D02*
X254825000Y-90640000D01*
X255625000Y-90840000D02*
X255625000Y-91450000D01*
X255625000Y-91450000D02*
X253675000Y-91450000D01*
X256025000Y-94450000D02*
X256225000Y-94450000D01*
X256025000Y-94950000D02*
X256025000Y-94450000D01*
X256125000Y-94950000D02*
X256125000Y-94450000D01*
X256225000Y-94450000D02*
X256225000Y-94950000D01*
X256625000Y-91450000D02*
X256625000Y-90840000D01*
X258575000Y-91450000D02*
X256625000Y-91450000D01*
X258575000Y-94950000D02*
X258575000Y-91450000D01*
X259185000Y-90840000D02*
X253065000Y-90840000D01*
X259185000Y-92150000D02*
X258575000Y-92150000D01*
X259185000Y-93450000D02*
X258575000Y-93450000D01*
X259185000Y-95560000D02*
X259185000Y-90840000D01*
%TO.C,P8*%
X260065000Y-90540000D02*
X260065000Y-91790000D01*
X260365000Y-90840000D02*
X260365000Y-95560000D01*
X260365000Y-92150000D02*
X260975000Y-92150000D01*
X260365000Y-93450000D02*
X260975000Y-93450000D01*
X260365000Y-95560000D02*
X266485000Y-95560000D01*
X260975000Y-91450000D02*
X260975000Y-94950000D01*
X260975000Y-94950000D02*
X265875000Y-94950000D01*
X261315000Y-90540000D02*
X260065000Y-90540000D01*
X261825000Y-90640000D02*
X261825000Y-90840000D01*
X262125000Y-90640000D02*
X261825000Y-90640000D01*
X262125000Y-90740000D02*
X261825000Y-90740000D01*
X262125000Y-90840000D02*
X262125000Y-90640000D01*
X262925000Y-90840000D02*
X262925000Y-91450000D01*
X262925000Y-91450000D02*
X260975000Y-91450000D01*
X263325000Y-94450000D02*
X263525000Y-94450000D01*
X263325000Y-94950000D02*
X263325000Y-94450000D01*
X263425000Y-94950000D02*
X263425000Y-94450000D01*
X263525000Y-94450000D02*
X263525000Y-94950000D01*
X263925000Y-91450000D02*
X263925000Y-90840000D01*
X265875000Y-91450000D02*
X263925000Y-91450000D01*
X265875000Y-94950000D02*
X265875000Y-91450000D01*
X266485000Y-90840000D02*
X260365000Y-90840000D01*
X266485000Y-92150000D02*
X265875000Y-92150000D01*
X266485000Y-93450000D02*
X265875000Y-93450000D01*
X266485000Y-95560000D02*
X266485000Y-90840000D01*
%TO.C,C12*%
X241138748Y-85115000D02*
X241661252Y-85115000D01*
X241138748Y-86585000D02*
X241661252Y-86585000D01*
D14*
%TO.C,J7*%
X218250000Y-98750000D02*
X230950000Y-98750000D01*
X218250000Y-106850000D02*
X218250000Y-98750000D01*
X230950000Y-98750000D02*
X233750000Y-101200000D01*
X230950000Y-106850000D02*
X218250000Y-106850000D01*
X233750000Y-101200000D02*
X233750000Y-104400000D01*
X233750000Y-104400000D02*
X230950000Y-106850000D01*
%TO.C,U2*%
X204120000Y-84905000D02*
X214280000Y-84905000D01*
X214280000Y-84905000D02*
X214280000Y-82620000D01*
X204120000Y-82620000D02*
X204120000Y-84905000D01*
D11*
X205900000Y-91200000D02*
G75*
G03*
X205900000Y-91200000I-100000J0D01*
G01*
D13*
%TO.C,P6*%
X260065000Y-79190000D02*
X260065000Y-80440000D01*
X260365000Y-79490000D02*
X260365000Y-84210000D01*
X260365000Y-80800000D02*
X260975000Y-80800000D01*
X260365000Y-82100000D02*
X260975000Y-82100000D01*
X260365000Y-84210000D02*
X266485000Y-84210000D01*
X260975000Y-80100000D02*
X260975000Y-83600000D01*
X260975000Y-83600000D02*
X265875000Y-83600000D01*
X261315000Y-79190000D02*
X260065000Y-79190000D01*
X261825000Y-79290000D02*
X261825000Y-79490000D01*
X262125000Y-79290000D02*
X261825000Y-79290000D01*
X262125000Y-79390000D02*
X261825000Y-79390000D01*
X262125000Y-79490000D02*
X262125000Y-79290000D01*
X262925000Y-79490000D02*
X262925000Y-80100000D01*
X262925000Y-80100000D02*
X260975000Y-80100000D01*
X263325000Y-83100000D02*
X263525000Y-83100000D01*
X263325000Y-83600000D02*
X263325000Y-83100000D01*
X263425000Y-83600000D02*
X263425000Y-83100000D01*
X263525000Y-83100000D02*
X263525000Y-83600000D01*
X263925000Y-80100000D02*
X263925000Y-79490000D01*
X265875000Y-80100000D02*
X263925000Y-80100000D01*
X265875000Y-83600000D02*
X265875000Y-80100000D01*
X266485000Y-79490000D02*
X260365000Y-79490000D01*
X266485000Y-80800000D02*
X265875000Y-80800000D01*
X266485000Y-82100000D02*
X265875000Y-82100000D01*
X266485000Y-84210000D02*
X266485000Y-79490000D01*
%TD*%
M02*
