%TF.GenerationSoftware,KiCad,Pcbnew,7.0.8*%
%TF.CreationDate,2023-12-06T00:15:51+05:30*%
%TF.ProjectId,PD Board,50442042-6f61-4726-942e-6b696361645f,V04*%
%TF.SameCoordinates,Original*%
%TF.FileFunction,Legend,Bot*%
%TF.FilePolarity,Positive*%
%FSLAX46Y46*%
G04 Gerber Fmt 4.6, Leading zero omitted, Abs format (unit mm)*
G04 Created by KiCad (PCBNEW 7.0.8) date 2023-12-06 00:15:51*
%MOMM*%
%LPD*%
G01*
G04 APERTURE LIST*
%ADD10C,0.150000*%
%ADD11C,0.200000*%
G04 APERTURE END LIST*
D10*
X216900000Y-89400000D02*
X216900000Y-89100000D01*
X242750000Y-74300000D02*
X242750000Y-82850000D01*
X236100000Y-94450000D02*
X230600000Y-94450000D01*
X230600000Y-89400000D02*
X216900000Y-89400000D01*
X218000000Y-98500000D02*
X234000000Y-98500000D01*
X234000000Y-107100000D01*
X218000000Y-107100000D01*
X218000000Y-98500000D01*
X216900000Y-74300000D02*
X216900000Y-89100000D01*
X236100000Y-82850000D02*
X236100000Y-94450000D01*
X234450000Y-98500000D02*
X250450000Y-98500000D01*
X250450000Y-107100000D01*
X234450000Y-107100000D01*
X234450000Y-98500000D01*
X191950000Y-73450000D02*
X200550000Y-73450000D01*
X200550000Y-89450000D01*
X191950000Y-89450000D01*
X191950000Y-73450000D01*
X246200000Y-74300000D02*
X266100000Y-74300000D01*
X266100000Y-94325000D01*
X246200000Y-94325000D01*
X246200000Y-74300000D01*
X242750000Y-74300000D02*
X216900000Y-74300000D01*
X242750000Y-82850000D02*
X236100000Y-82850000D01*
X230600000Y-94450000D02*
X230600000Y-89400000D01*
D11*
X230525564Y-72867219D02*
X229906517Y-72867219D01*
X229906517Y-72867219D02*
X230239850Y-73248171D01*
X230239850Y-73248171D02*
X230096993Y-73248171D01*
X230096993Y-73248171D02*
X230001755Y-73295790D01*
X230001755Y-73295790D02*
X229954136Y-73343409D01*
X229954136Y-73343409D02*
X229906517Y-73438647D01*
X229906517Y-73438647D02*
X229906517Y-73676742D01*
X229906517Y-73676742D02*
X229954136Y-73771980D01*
X229954136Y-73771980D02*
X230001755Y-73819600D01*
X230001755Y-73819600D02*
X230096993Y-73867219D01*
X230096993Y-73867219D02*
X230382707Y-73867219D01*
X230382707Y-73867219D02*
X230477945Y-73819600D01*
X230477945Y-73819600D02*
X230525564Y-73771980D01*
X229620802Y-72867219D02*
X229287469Y-73867219D01*
X229287469Y-73867219D02*
X228954136Y-72867219D01*
X256354136Y-72917219D02*
X256830326Y-72917219D01*
X256830326Y-72917219D02*
X256877945Y-73393409D01*
X256877945Y-73393409D02*
X256830326Y-73345790D01*
X256830326Y-73345790D02*
X256735088Y-73298171D01*
X256735088Y-73298171D02*
X256496993Y-73298171D01*
X256496993Y-73298171D02*
X256401755Y-73345790D01*
X256401755Y-73345790D02*
X256354136Y-73393409D01*
X256354136Y-73393409D02*
X256306517Y-73488647D01*
X256306517Y-73488647D02*
X256306517Y-73726742D01*
X256306517Y-73726742D02*
X256354136Y-73821980D01*
X256354136Y-73821980D02*
X256401755Y-73869600D01*
X256401755Y-73869600D02*
X256496993Y-73917219D01*
X256496993Y-73917219D02*
X256735088Y-73917219D01*
X256735088Y-73917219D02*
X256830326Y-73869600D01*
X256830326Y-73869600D02*
X256877945Y-73821980D01*
X256020802Y-72917219D02*
X255687469Y-73917219D01*
X255687469Y-73917219D02*
X255354136Y-72917219D01*
D10*
X215010839Y-100856295D02*
X215010839Y-100056295D01*
X215010839Y-100056295D02*
X214706077Y-100056295D01*
X214706077Y-100056295D02*
X214629887Y-100094390D01*
X214629887Y-100094390D02*
X214591792Y-100132485D01*
X214591792Y-100132485D02*
X214553696Y-100208676D01*
X214553696Y-100208676D02*
X214553696Y-100322961D01*
X214553696Y-100322961D02*
X214591792Y-100399152D01*
X214591792Y-100399152D02*
X214629887Y-100437247D01*
X214629887Y-100437247D02*
X214706077Y-100475342D01*
X214706077Y-100475342D02*
X215010839Y-100475342D01*
X214210839Y-100856295D02*
X214210839Y-100056295D01*
X214210839Y-100056295D02*
X214020363Y-100056295D01*
X214020363Y-100056295D02*
X213906077Y-100094390D01*
X213906077Y-100094390D02*
X213829887Y-100170580D01*
X213829887Y-100170580D02*
X213791792Y-100246771D01*
X213791792Y-100246771D02*
X213753696Y-100399152D01*
X213753696Y-100399152D02*
X213753696Y-100513438D01*
X213753696Y-100513438D02*
X213791792Y-100665819D01*
X213791792Y-100665819D02*
X213829887Y-100742009D01*
X213829887Y-100742009D02*
X213906077Y-100818200D01*
X213906077Y-100818200D02*
X214020363Y-100856295D01*
X214020363Y-100856295D02*
X214210839Y-100856295D01*
X212534649Y-100437247D02*
X212420363Y-100475342D01*
X212420363Y-100475342D02*
X212382268Y-100513438D01*
X212382268Y-100513438D02*
X212344172Y-100589628D01*
X212344172Y-100589628D02*
X212344172Y-100703914D01*
X212344172Y-100703914D02*
X212382268Y-100780104D01*
X212382268Y-100780104D02*
X212420363Y-100818200D01*
X212420363Y-100818200D02*
X212496553Y-100856295D01*
X212496553Y-100856295D02*
X212801315Y-100856295D01*
X212801315Y-100856295D02*
X212801315Y-100056295D01*
X212801315Y-100056295D02*
X212534649Y-100056295D01*
X212534649Y-100056295D02*
X212458458Y-100094390D01*
X212458458Y-100094390D02*
X212420363Y-100132485D01*
X212420363Y-100132485D02*
X212382268Y-100208676D01*
X212382268Y-100208676D02*
X212382268Y-100284866D01*
X212382268Y-100284866D02*
X212420363Y-100361057D01*
X212420363Y-100361057D02*
X212458458Y-100399152D01*
X212458458Y-100399152D02*
X212534649Y-100437247D01*
X212534649Y-100437247D02*
X212801315Y-100437247D01*
X211887030Y-100856295D02*
X211963220Y-100818200D01*
X211963220Y-100818200D02*
X212001315Y-100780104D01*
X212001315Y-100780104D02*
X212039411Y-100703914D01*
X212039411Y-100703914D02*
X212039411Y-100475342D01*
X212039411Y-100475342D02*
X212001315Y-100399152D01*
X212001315Y-100399152D02*
X211963220Y-100361057D01*
X211963220Y-100361057D02*
X211887030Y-100322961D01*
X211887030Y-100322961D02*
X211772744Y-100322961D01*
X211772744Y-100322961D02*
X211696553Y-100361057D01*
X211696553Y-100361057D02*
X211658458Y-100399152D01*
X211658458Y-100399152D02*
X211620363Y-100475342D01*
X211620363Y-100475342D02*
X211620363Y-100703914D01*
X211620363Y-100703914D02*
X211658458Y-100780104D01*
X211658458Y-100780104D02*
X211696553Y-100818200D01*
X211696553Y-100818200D02*
X211772744Y-100856295D01*
X211772744Y-100856295D02*
X211887030Y-100856295D01*
X210934648Y-100856295D02*
X210934648Y-100437247D01*
X210934648Y-100437247D02*
X210972743Y-100361057D01*
X210972743Y-100361057D02*
X211048934Y-100322961D01*
X211048934Y-100322961D02*
X211201315Y-100322961D01*
X211201315Y-100322961D02*
X211277505Y-100361057D01*
X210934648Y-100818200D02*
X211010839Y-100856295D01*
X211010839Y-100856295D02*
X211201315Y-100856295D01*
X211201315Y-100856295D02*
X211277505Y-100818200D01*
X211277505Y-100818200D02*
X211315601Y-100742009D01*
X211315601Y-100742009D02*
X211315601Y-100665819D01*
X211315601Y-100665819D02*
X211277505Y-100589628D01*
X211277505Y-100589628D02*
X211201315Y-100551533D01*
X211201315Y-100551533D02*
X211010839Y-100551533D01*
X211010839Y-100551533D02*
X210934648Y-100513438D01*
X210553695Y-100856295D02*
X210553695Y-100322961D01*
X210553695Y-100475342D02*
X210515600Y-100399152D01*
X210515600Y-100399152D02*
X210477505Y-100361057D01*
X210477505Y-100361057D02*
X210401314Y-100322961D01*
X210401314Y-100322961D02*
X210325124Y-100322961D01*
X209715600Y-100856295D02*
X209715600Y-100056295D01*
X209715600Y-100818200D02*
X209791791Y-100856295D01*
X209791791Y-100856295D02*
X209944172Y-100856295D01*
X209944172Y-100856295D02*
X210020362Y-100818200D01*
X210020362Y-100818200D02*
X210058457Y-100780104D01*
X210058457Y-100780104D02*
X210096553Y-100703914D01*
X210096553Y-100703914D02*
X210096553Y-100475342D01*
X210096553Y-100475342D02*
X210058457Y-100399152D01*
X210058457Y-100399152D02*
X210020362Y-100361057D01*
X210020362Y-100361057D02*
X209944172Y-100322961D01*
X209944172Y-100322961D02*
X209791791Y-100322961D01*
X209791791Y-100322961D02*
X209715600Y-100361057D01*
X208267980Y-100856295D02*
X208534647Y-100475342D01*
X208725123Y-100856295D02*
X208725123Y-100056295D01*
X208725123Y-100056295D02*
X208420361Y-100056295D01*
X208420361Y-100056295D02*
X208344171Y-100094390D01*
X208344171Y-100094390D02*
X208306076Y-100132485D01*
X208306076Y-100132485D02*
X208267980Y-100208676D01*
X208267980Y-100208676D02*
X208267980Y-100322961D01*
X208267980Y-100322961D02*
X208306076Y-100399152D01*
X208306076Y-100399152D02*
X208344171Y-100437247D01*
X208344171Y-100437247D02*
X208420361Y-100475342D01*
X208420361Y-100475342D02*
X208725123Y-100475342D01*
X207925123Y-100437247D02*
X207658457Y-100437247D01*
X207544171Y-100856295D02*
X207925123Y-100856295D01*
X207925123Y-100856295D02*
X207925123Y-100056295D01*
X207925123Y-100056295D02*
X207544171Y-100056295D01*
X207315599Y-100056295D02*
X207048932Y-100856295D01*
X207048932Y-100856295D02*
X206782266Y-100056295D01*
X205677504Y-101161057D02*
X205715599Y-101122961D01*
X205715599Y-101122961D02*
X205791790Y-101008676D01*
X205791790Y-101008676D02*
X205829885Y-100932485D01*
X205829885Y-100932485D02*
X205867980Y-100818200D01*
X205867980Y-100818200D02*
X205906075Y-100627723D01*
X205906075Y-100627723D02*
X205906075Y-100475342D01*
X205906075Y-100475342D02*
X205867980Y-100284866D01*
X205867980Y-100284866D02*
X205829885Y-100170580D01*
X205829885Y-100170580D02*
X205791790Y-100094390D01*
X205791790Y-100094390D02*
X205715599Y-99980104D01*
X205715599Y-99980104D02*
X205677504Y-99942009D01*
X205220361Y-100056295D02*
X205144171Y-100056295D01*
X205144171Y-100056295D02*
X205067980Y-100094390D01*
X205067980Y-100094390D02*
X205029885Y-100132485D01*
X205029885Y-100132485D02*
X204991790Y-100208676D01*
X204991790Y-100208676D02*
X204953695Y-100361057D01*
X204953695Y-100361057D02*
X204953695Y-100551533D01*
X204953695Y-100551533D02*
X204991790Y-100703914D01*
X204991790Y-100703914D02*
X205029885Y-100780104D01*
X205029885Y-100780104D02*
X205067980Y-100818200D01*
X205067980Y-100818200D02*
X205144171Y-100856295D01*
X205144171Y-100856295D02*
X205220361Y-100856295D01*
X205220361Y-100856295D02*
X205296552Y-100818200D01*
X205296552Y-100818200D02*
X205334647Y-100780104D01*
X205334647Y-100780104D02*
X205372742Y-100703914D01*
X205372742Y-100703914D02*
X205410838Y-100551533D01*
X205410838Y-100551533D02*
X205410838Y-100361057D01*
X205410838Y-100361057D02*
X205372742Y-100208676D01*
X205372742Y-100208676D02*
X205334647Y-100132485D01*
X205334647Y-100132485D02*
X205296552Y-100094390D01*
X205296552Y-100094390D02*
X205220361Y-100056295D01*
X204648933Y-100132485D02*
X204610837Y-100094390D01*
X204610837Y-100094390D02*
X204534647Y-100056295D01*
X204534647Y-100056295D02*
X204344171Y-100056295D01*
X204344171Y-100056295D02*
X204267980Y-100094390D01*
X204267980Y-100094390D02*
X204229885Y-100132485D01*
X204229885Y-100132485D02*
X204191790Y-100208676D01*
X204191790Y-100208676D02*
X204191790Y-100284866D01*
X204191790Y-100284866D02*
X204229885Y-100399152D01*
X204229885Y-100399152D02*
X204687028Y-100856295D01*
X204687028Y-100856295D02*
X204191790Y-100856295D01*
X203925123Y-101161057D02*
X203887028Y-101122961D01*
X203887028Y-101122961D02*
X203810837Y-101008676D01*
X203810837Y-101008676D02*
X203772742Y-100932485D01*
X203772742Y-100932485D02*
X203734647Y-100818200D01*
X203734647Y-100818200D02*
X203696551Y-100627723D01*
X203696551Y-100627723D02*
X203696551Y-100475342D01*
X203696551Y-100475342D02*
X203734647Y-100284866D01*
X203734647Y-100284866D02*
X203772742Y-100170580D01*
X203772742Y-100170580D02*
X203810837Y-100094390D01*
X203810837Y-100094390D02*
X203887028Y-99980104D01*
X203887028Y-99980104D02*
X203925123Y-99942009D01*
X215010839Y-102144295D02*
X215010839Y-101344295D01*
X215010839Y-101344295D02*
X214820363Y-101344295D01*
X214820363Y-101344295D02*
X214706077Y-101382390D01*
X214706077Y-101382390D02*
X214629887Y-101458580D01*
X214629887Y-101458580D02*
X214591792Y-101534771D01*
X214591792Y-101534771D02*
X214553696Y-101687152D01*
X214553696Y-101687152D02*
X214553696Y-101801438D01*
X214553696Y-101801438D02*
X214591792Y-101953819D01*
X214591792Y-101953819D02*
X214629887Y-102030009D01*
X214629887Y-102030009D02*
X214706077Y-102106200D01*
X214706077Y-102106200D02*
X214820363Y-102144295D01*
X214820363Y-102144295D02*
X215010839Y-102144295D01*
X213906077Y-102106200D02*
X213982268Y-102144295D01*
X213982268Y-102144295D02*
X214134649Y-102144295D01*
X214134649Y-102144295D02*
X214210839Y-102106200D01*
X214210839Y-102106200D02*
X214248935Y-102030009D01*
X214248935Y-102030009D02*
X214248935Y-101725247D01*
X214248935Y-101725247D02*
X214210839Y-101649057D01*
X214210839Y-101649057D02*
X214134649Y-101610961D01*
X214134649Y-101610961D02*
X213982268Y-101610961D01*
X213982268Y-101610961D02*
X213906077Y-101649057D01*
X213906077Y-101649057D02*
X213867982Y-101725247D01*
X213867982Y-101725247D02*
X213867982Y-101801438D01*
X213867982Y-101801438D02*
X214248935Y-101877628D01*
X213563221Y-102106200D02*
X213487030Y-102144295D01*
X213487030Y-102144295D02*
X213334649Y-102144295D01*
X213334649Y-102144295D02*
X213258459Y-102106200D01*
X213258459Y-102106200D02*
X213220363Y-102030009D01*
X213220363Y-102030009D02*
X213220363Y-101991914D01*
X213220363Y-101991914D02*
X213258459Y-101915723D01*
X213258459Y-101915723D02*
X213334649Y-101877628D01*
X213334649Y-101877628D02*
X213448935Y-101877628D01*
X213448935Y-101877628D02*
X213525125Y-101839533D01*
X213525125Y-101839533D02*
X213563221Y-101763342D01*
X213563221Y-101763342D02*
X213563221Y-101725247D01*
X213563221Y-101725247D02*
X213525125Y-101649057D01*
X213525125Y-101649057D02*
X213448935Y-101610961D01*
X213448935Y-101610961D02*
X213334649Y-101610961D01*
X213334649Y-101610961D02*
X213258459Y-101649057D01*
X212877506Y-102144295D02*
X212877506Y-101610961D01*
X212877506Y-101344295D02*
X212915602Y-101382390D01*
X212915602Y-101382390D02*
X212877506Y-101420485D01*
X212877506Y-101420485D02*
X212839411Y-101382390D01*
X212839411Y-101382390D02*
X212877506Y-101344295D01*
X212877506Y-101344295D02*
X212877506Y-101420485D01*
X212153697Y-101610961D02*
X212153697Y-102258580D01*
X212153697Y-102258580D02*
X212191792Y-102334771D01*
X212191792Y-102334771D02*
X212229888Y-102372866D01*
X212229888Y-102372866D02*
X212306078Y-102410961D01*
X212306078Y-102410961D02*
X212420364Y-102410961D01*
X212420364Y-102410961D02*
X212496554Y-102372866D01*
X212153697Y-102106200D02*
X212229888Y-102144295D01*
X212229888Y-102144295D02*
X212382269Y-102144295D01*
X212382269Y-102144295D02*
X212458459Y-102106200D01*
X212458459Y-102106200D02*
X212496554Y-102068104D01*
X212496554Y-102068104D02*
X212534650Y-101991914D01*
X212534650Y-101991914D02*
X212534650Y-101763342D01*
X212534650Y-101763342D02*
X212496554Y-101687152D01*
X212496554Y-101687152D02*
X212458459Y-101649057D01*
X212458459Y-101649057D02*
X212382269Y-101610961D01*
X212382269Y-101610961D02*
X212229888Y-101610961D01*
X212229888Y-101610961D02*
X212153697Y-101649057D01*
X211772744Y-101610961D02*
X211772744Y-102144295D01*
X211772744Y-101687152D02*
X211734649Y-101649057D01*
X211734649Y-101649057D02*
X211658459Y-101610961D01*
X211658459Y-101610961D02*
X211544173Y-101610961D01*
X211544173Y-101610961D02*
X211467982Y-101649057D01*
X211467982Y-101649057D02*
X211429887Y-101725247D01*
X211429887Y-101725247D02*
X211429887Y-102144295D01*
X210744172Y-102106200D02*
X210820363Y-102144295D01*
X210820363Y-102144295D02*
X210972744Y-102144295D01*
X210972744Y-102144295D02*
X211048934Y-102106200D01*
X211048934Y-102106200D02*
X211087030Y-102030009D01*
X211087030Y-102030009D02*
X211087030Y-101725247D01*
X211087030Y-101725247D02*
X211048934Y-101649057D01*
X211048934Y-101649057D02*
X210972744Y-101610961D01*
X210972744Y-101610961D02*
X210820363Y-101610961D01*
X210820363Y-101610961D02*
X210744172Y-101649057D01*
X210744172Y-101649057D02*
X210706077Y-101725247D01*
X210706077Y-101725247D02*
X210706077Y-101801438D01*
X210706077Y-101801438D02*
X211087030Y-101877628D01*
X210020363Y-102144295D02*
X210020363Y-101344295D01*
X210020363Y-102106200D02*
X210096554Y-102144295D01*
X210096554Y-102144295D02*
X210248935Y-102144295D01*
X210248935Y-102144295D02*
X210325125Y-102106200D01*
X210325125Y-102106200D02*
X210363220Y-102068104D01*
X210363220Y-102068104D02*
X210401316Y-101991914D01*
X210401316Y-101991914D02*
X210401316Y-101763342D01*
X210401316Y-101763342D02*
X210363220Y-101687152D01*
X210363220Y-101687152D02*
X210325125Y-101649057D01*
X210325125Y-101649057D02*
X210248935Y-101610961D01*
X210248935Y-101610961D02*
X210096554Y-101610961D01*
X210096554Y-101610961D02*
X210020363Y-101649057D01*
X208763220Y-101725247D02*
X208648934Y-101763342D01*
X208648934Y-101763342D02*
X208610839Y-101801438D01*
X208610839Y-101801438D02*
X208572743Y-101877628D01*
X208572743Y-101877628D02*
X208572743Y-101991914D01*
X208572743Y-101991914D02*
X208610839Y-102068104D01*
X208610839Y-102068104D02*
X208648934Y-102106200D01*
X208648934Y-102106200D02*
X208725124Y-102144295D01*
X208725124Y-102144295D02*
X209029886Y-102144295D01*
X209029886Y-102144295D02*
X209029886Y-101344295D01*
X209029886Y-101344295D02*
X208763220Y-101344295D01*
X208763220Y-101344295D02*
X208687029Y-101382390D01*
X208687029Y-101382390D02*
X208648934Y-101420485D01*
X208648934Y-101420485D02*
X208610839Y-101496676D01*
X208610839Y-101496676D02*
X208610839Y-101572866D01*
X208610839Y-101572866D02*
X208648934Y-101649057D01*
X208648934Y-101649057D02*
X208687029Y-101687152D01*
X208687029Y-101687152D02*
X208763220Y-101725247D01*
X208763220Y-101725247D02*
X209029886Y-101725247D01*
X208306077Y-101610961D02*
X208115601Y-102144295D01*
X207925124Y-101610961D02*
X208115601Y-102144295D01*
X208115601Y-102144295D02*
X208191791Y-102334771D01*
X208191791Y-102334771D02*
X208229886Y-102372866D01*
X208229886Y-102372866D02*
X208306077Y-102410961D01*
X207010838Y-101839533D02*
X206401315Y-101839533D01*
X205448934Y-101915723D02*
X205067981Y-101915723D01*
X205525124Y-102144295D02*
X205258457Y-101344295D01*
X205258457Y-101344295D02*
X204991791Y-102144295D01*
X204725124Y-102144295D02*
X204725124Y-101610961D01*
X204725124Y-101763342D02*
X204687029Y-101687152D01*
X204687029Y-101687152D02*
X204648934Y-101649057D01*
X204648934Y-101649057D02*
X204572743Y-101610961D01*
X204572743Y-101610961D02*
X204496553Y-101610961D01*
X204306077Y-101610961D02*
X204115601Y-102144295D01*
X203925124Y-101610961D02*
X204115601Y-102144295D01*
X204115601Y-102144295D02*
X204191791Y-102334771D01*
X204191791Y-102334771D02*
X204229886Y-102372866D01*
X204229886Y-102372866D02*
X204306077Y-102410961D01*
X203277505Y-102144295D02*
X203277505Y-101725247D01*
X203277505Y-101725247D02*
X203315600Y-101649057D01*
X203315600Y-101649057D02*
X203391791Y-101610961D01*
X203391791Y-101610961D02*
X203544172Y-101610961D01*
X203544172Y-101610961D02*
X203620362Y-101649057D01*
X203277505Y-102106200D02*
X203353696Y-102144295D01*
X203353696Y-102144295D02*
X203544172Y-102144295D01*
X203544172Y-102144295D02*
X203620362Y-102106200D01*
X203620362Y-102106200D02*
X203658458Y-102030009D01*
X203658458Y-102030009D02*
X203658458Y-101953819D01*
X203658458Y-101953819D02*
X203620362Y-101877628D01*
X203620362Y-101877628D02*
X203544172Y-101839533D01*
X203544172Y-101839533D02*
X203353696Y-101839533D01*
X203353696Y-101839533D02*
X203277505Y-101801438D01*
X202896552Y-101610961D02*
X202896552Y-102144295D01*
X202896552Y-101687152D02*
X202858457Y-101649057D01*
X202858457Y-101649057D02*
X202782267Y-101610961D01*
X202782267Y-101610961D02*
X202667981Y-101610961D01*
X202667981Y-101610961D02*
X202591790Y-101649057D01*
X202591790Y-101649057D02*
X202553695Y-101725247D01*
X202553695Y-101725247D02*
X202553695Y-102144295D01*
X201296552Y-101725247D02*
X201182266Y-101763342D01*
X201182266Y-101763342D02*
X201144171Y-101801438D01*
X201144171Y-101801438D02*
X201106075Y-101877628D01*
X201106075Y-101877628D02*
X201106075Y-101991914D01*
X201106075Y-101991914D02*
X201144171Y-102068104D01*
X201144171Y-102068104D02*
X201182266Y-102106200D01*
X201182266Y-102106200D02*
X201258456Y-102144295D01*
X201258456Y-102144295D02*
X201563218Y-102144295D01*
X201563218Y-102144295D02*
X201563218Y-101344295D01*
X201563218Y-101344295D02*
X201296552Y-101344295D01*
X201296552Y-101344295D02*
X201220361Y-101382390D01*
X201220361Y-101382390D02*
X201182266Y-101420485D01*
X201182266Y-101420485D02*
X201144171Y-101496676D01*
X201144171Y-101496676D02*
X201144171Y-101572866D01*
X201144171Y-101572866D02*
X201182266Y-101649057D01*
X201182266Y-101649057D02*
X201220361Y-101687152D01*
X201220361Y-101687152D02*
X201296552Y-101725247D01*
X201296552Y-101725247D02*
X201563218Y-101725247D01*
X200420361Y-102144295D02*
X200420361Y-101725247D01*
X200420361Y-101725247D02*
X200458456Y-101649057D01*
X200458456Y-101649057D02*
X200534647Y-101610961D01*
X200534647Y-101610961D02*
X200687028Y-101610961D01*
X200687028Y-101610961D02*
X200763218Y-101649057D01*
X200420361Y-102106200D02*
X200496552Y-102144295D01*
X200496552Y-102144295D02*
X200687028Y-102144295D01*
X200687028Y-102144295D02*
X200763218Y-102106200D01*
X200763218Y-102106200D02*
X200801314Y-102030009D01*
X200801314Y-102030009D02*
X200801314Y-101953819D01*
X200801314Y-101953819D02*
X200763218Y-101877628D01*
X200763218Y-101877628D02*
X200687028Y-101839533D01*
X200687028Y-101839533D02*
X200496552Y-101839533D01*
X200496552Y-101839533D02*
X200420361Y-101801438D01*
X200115599Y-101610961D02*
X199963218Y-102144295D01*
X199963218Y-102144295D02*
X199810837Y-101763342D01*
X199810837Y-101763342D02*
X199658456Y-102144295D01*
X199658456Y-102144295D02*
X199506075Y-101610961D01*
X198858456Y-102144295D02*
X198858456Y-101725247D01*
X198858456Y-101725247D02*
X198896551Y-101649057D01*
X198896551Y-101649057D02*
X198972742Y-101610961D01*
X198972742Y-101610961D02*
X199125123Y-101610961D01*
X199125123Y-101610961D02*
X199201313Y-101649057D01*
X198858456Y-102106200D02*
X198934647Y-102144295D01*
X198934647Y-102144295D02*
X199125123Y-102144295D01*
X199125123Y-102144295D02*
X199201313Y-102106200D01*
X199201313Y-102106200D02*
X199239409Y-102030009D01*
X199239409Y-102030009D02*
X199239409Y-101953819D01*
X199239409Y-101953819D02*
X199201313Y-101877628D01*
X199201313Y-101877628D02*
X199125123Y-101839533D01*
X199125123Y-101839533D02*
X198934647Y-101839533D01*
X198934647Y-101839533D02*
X198858456Y-101801438D01*
X198477503Y-101610961D02*
X198477503Y-102144295D01*
X198477503Y-101687152D02*
X198439408Y-101649057D01*
X198439408Y-101649057D02*
X198363218Y-101610961D01*
X198363218Y-101610961D02*
X198248932Y-101610961D01*
X198248932Y-101610961D02*
X198172741Y-101649057D01*
X198172741Y-101649057D02*
X198134646Y-101725247D01*
X198134646Y-101725247D02*
X198134646Y-102144295D01*
X197753693Y-102144295D02*
X197753693Y-101344295D01*
X197677503Y-101839533D02*
X197448931Y-102144295D01*
X197448931Y-101610961D02*
X197753693Y-101915723D01*
X196763217Y-102144295D02*
X196763217Y-101725247D01*
X196763217Y-101725247D02*
X196801312Y-101649057D01*
X196801312Y-101649057D02*
X196877503Y-101610961D01*
X196877503Y-101610961D02*
X197029884Y-101610961D01*
X197029884Y-101610961D02*
X197106074Y-101649057D01*
X196763217Y-102106200D02*
X196839408Y-102144295D01*
X196839408Y-102144295D02*
X197029884Y-102144295D01*
X197029884Y-102144295D02*
X197106074Y-102106200D01*
X197106074Y-102106200D02*
X197144170Y-102030009D01*
X197144170Y-102030009D02*
X197144170Y-101953819D01*
X197144170Y-101953819D02*
X197106074Y-101877628D01*
X197106074Y-101877628D02*
X197029884Y-101839533D01*
X197029884Y-101839533D02*
X196839408Y-101839533D01*
X196839408Y-101839533D02*
X196763217Y-101801438D01*
X196382264Y-102144295D02*
X196382264Y-101610961D01*
X196382264Y-101763342D02*
X196344169Y-101687152D01*
X196344169Y-101687152D02*
X196306074Y-101649057D01*
X196306074Y-101649057D02*
X196229883Y-101610961D01*
X196229883Y-101610961D02*
X196153693Y-101610961D01*
D11*
X248106517Y-98117219D02*
X248677945Y-98117219D01*
X248392231Y-98117219D02*
X248392231Y-97117219D01*
X248392231Y-97117219D02*
X248487469Y-97260076D01*
X248487469Y-97260076D02*
X248582707Y-97355314D01*
X248582707Y-97355314D02*
X248677945Y-97402933D01*
X247725564Y-97212457D02*
X247677945Y-97164838D01*
X247677945Y-97164838D02*
X247582707Y-97117219D01*
X247582707Y-97117219D02*
X247344612Y-97117219D01*
X247344612Y-97117219D02*
X247249374Y-97164838D01*
X247249374Y-97164838D02*
X247201755Y-97212457D01*
X247201755Y-97212457D02*
X247154136Y-97307695D01*
X247154136Y-97307695D02*
X247154136Y-97402933D01*
X247154136Y-97402933D02*
X247201755Y-97545790D01*
X247201755Y-97545790D02*
X247773183Y-98117219D01*
X247773183Y-98117219D02*
X247154136Y-98117219D01*
X246868421Y-97117219D02*
X246535088Y-98117219D01*
X246535088Y-98117219D02*
X246201755Y-97117219D01*
D10*
X196960839Y-89965057D02*
X196913220Y-89917438D01*
X196913220Y-89917438D02*
X196817982Y-89869819D01*
X196817982Y-89869819D02*
X196579887Y-89869819D01*
X196579887Y-89869819D02*
X196484649Y-89917438D01*
X196484649Y-89917438D02*
X196437030Y-89965057D01*
X196437030Y-89965057D02*
X196389411Y-90060295D01*
X196389411Y-90060295D02*
X196389411Y-90155533D01*
X196389411Y-90155533D02*
X196437030Y-90298390D01*
X196437030Y-90298390D02*
X197008458Y-90869819D01*
X197008458Y-90869819D02*
X196389411Y-90869819D01*
X195532268Y-90203152D02*
X195532268Y-90869819D01*
X195770363Y-89822200D02*
X196008458Y-90536485D01*
X196008458Y-90536485D02*
X195389411Y-90536485D01*
X195151315Y-89869819D02*
X194817982Y-90869819D01*
X194817982Y-90869819D02*
X194484649Y-89869819D01*
D11*
G36*
X207830614Y-83232070D02*
G01*
X207864805Y-83266262D01*
X207909783Y-83356219D01*
X207961278Y-83562195D01*
X207961278Y-83823289D01*
X207909783Y-84029265D01*
X207864805Y-84119222D01*
X207830614Y-84153413D01*
X207751957Y-84192742D01*
X207684885Y-84192742D01*
X207606228Y-84153414D01*
X207572036Y-84119222D01*
X207527058Y-84029266D01*
X207475564Y-83823290D01*
X207475564Y-83562195D01*
X207527058Y-83356219D01*
X207572036Y-83266263D01*
X207606228Y-83232070D01*
X207684886Y-83192742D01*
X207751957Y-83192742D01*
X207830614Y-83232070D01*
G37*
G36*
X212361278Y-83621314D02*
G01*
X212027742Y-83621314D01*
X211949084Y-83581984D01*
X211914892Y-83547791D01*
X211875564Y-83469135D01*
X211875564Y-83344921D01*
X211914892Y-83266264D01*
X211949084Y-83232071D01*
X212027742Y-83192742D01*
X212361278Y-83192742D01*
X212361278Y-83621314D01*
G37*
G36*
X213304136Y-84564171D02*
G01*
X204766172Y-84564171D01*
X204766172Y-83923644D01*
X204937601Y-83923644D01*
X204973928Y-83973644D01*
X205032707Y-83992742D01*
X205104136Y-83992742D01*
X205104136Y-84292742D01*
X205123234Y-84351521D01*
X205173234Y-84387848D01*
X205235038Y-84387848D01*
X205285038Y-84351521D01*
X205304136Y-84292742D01*
X205304136Y-83992742D01*
X205775564Y-83992742D01*
X205775941Y-83992619D01*
X205776323Y-83992740D01*
X205805310Y-83983077D01*
X205834343Y-83973644D01*
X205834577Y-83973320D01*
X205834955Y-83973195D01*
X205852695Y-83948383D01*
X205870670Y-83923644D01*
X205870670Y-83923245D01*
X205870902Y-83922921D01*
X205870670Y-83892414D01*
X205870670Y-83861840D01*
X205870435Y-83861516D01*
X205870432Y-83861119D01*
X205728592Y-83435600D01*
X206132707Y-83435600D01*
X206137715Y-83451015D01*
X206137839Y-83467223D01*
X206194982Y-83638651D01*
X206208672Y-83657197D01*
X206219139Y-83677739D01*
X206734142Y-84192742D01*
X206232707Y-84192742D01*
X206173928Y-84211840D01*
X206137601Y-84261840D01*
X206137601Y-84323644D01*
X206173928Y-84373644D01*
X206232707Y-84392742D01*
X206975564Y-84392742D01*
X206997833Y-84385506D01*
X207020963Y-84381843D01*
X207026668Y-84376137D01*
X207034343Y-84373644D01*
X207048108Y-84354697D01*
X207064665Y-84338141D01*
X207065927Y-84330171D01*
X207070670Y-84323644D01*
X207070670Y-84300226D01*
X207074333Y-84277099D01*
X207070670Y-84269909D01*
X207070670Y-84261840D01*
X207056905Y-84242894D01*
X207046275Y-84222031D01*
X206659844Y-83835600D01*
X207275564Y-83835600D01*
X207279410Y-83847437D01*
X207278550Y-83859854D01*
X207335693Y-84088425D01*
X207341604Y-84097871D01*
X207343264Y-84108892D01*
X207400407Y-84223179D01*
X207411781Y-84234727D01*
X207419139Y-84249167D01*
X207476281Y-84306310D01*
X207490721Y-84313668D01*
X207502271Y-84325043D01*
X207616557Y-84382185D01*
X207639354Y-84385618D01*
X207661278Y-84392742D01*
X207775564Y-84392742D01*
X207797487Y-84385618D01*
X207820285Y-84382185D01*
X207934571Y-84325043D01*
X207946120Y-84313668D01*
X207960561Y-84306310D01*
X208017704Y-84249167D01*
X208025062Y-84234724D01*
X208036435Y-84223178D01*
X208093578Y-84108892D01*
X208095237Y-84097871D01*
X208101149Y-84088425D01*
X208158292Y-83859853D01*
X208157431Y-83847437D01*
X208161278Y-83835600D01*
X208161278Y-83549885D01*
X208157431Y-83538047D01*
X208158292Y-83525632D01*
X208135784Y-83435600D01*
X208418421Y-83435600D01*
X208423429Y-83451015D01*
X208423553Y-83467223D01*
X208480696Y-83638651D01*
X208494386Y-83657197D01*
X208504853Y-83677739D01*
X209019856Y-84192742D01*
X208518421Y-84192742D01*
X208459642Y-84211840D01*
X208423315Y-84261840D01*
X208423315Y-84323644D01*
X208459642Y-84373644D01*
X208518421Y-84392742D01*
X209261278Y-84392742D01*
X209283547Y-84385506D01*
X209306677Y-84381843D01*
X209312382Y-84376137D01*
X209320057Y-84373644D01*
X209333822Y-84354697D01*
X209350379Y-84338141D01*
X209351641Y-84330171D01*
X209356384Y-84323644D01*
X209356384Y-84300226D01*
X209360047Y-84277099D01*
X209356384Y-84269909D01*
X209356384Y-84261840D01*
X209342619Y-84242894D01*
X209331989Y-84222031D01*
X209304058Y-84194100D01*
X210476795Y-84194100D01*
X210504853Y-84249168D01*
X210561996Y-84306310D01*
X210582537Y-84316776D01*
X210601085Y-84330468D01*
X210772513Y-84387611D01*
X210788721Y-84387734D01*
X210804135Y-84392742D01*
X210918421Y-84392742D01*
X210933836Y-84387733D01*
X210950043Y-84387610D01*
X211121473Y-84330468D01*
X211140021Y-84316775D01*
X211160561Y-84306310D01*
X211274846Y-84192024D01*
X211282203Y-84177583D01*
X211293578Y-84166035D01*
X211350721Y-84051749D01*
X211352380Y-84040728D01*
X211358292Y-84031282D01*
X211415435Y-83802710D01*
X211414574Y-83790294D01*
X211418421Y-83778457D01*
X211418421Y-83607028D01*
X211414574Y-83595190D01*
X211415435Y-83582775D01*
X211392927Y-83492742D01*
X211675564Y-83492742D01*
X211682687Y-83514665D01*
X211686121Y-83537463D01*
X211743264Y-83651750D01*
X211754638Y-83663297D01*
X211761996Y-83677739D01*
X211819139Y-83734881D01*
X211833578Y-83742238D01*
X211845128Y-83753614D01*
X211959414Y-83810757D01*
X211982211Y-83814190D01*
X211987322Y-83815851D01*
X211693641Y-84235396D01*
X211675579Y-84294501D01*
X211695708Y-84352935D01*
X211746340Y-84388377D01*
X211808134Y-84387290D01*
X211857487Y-84350088D01*
X212227629Y-83821314D01*
X212361278Y-83821314D01*
X212361278Y-84292742D01*
X212380376Y-84351521D01*
X212430376Y-84387848D01*
X212492180Y-84387848D01*
X212542180Y-84351521D01*
X212561278Y-84292742D01*
X212932707Y-84292742D01*
X212951805Y-84351521D01*
X213001805Y-84387848D01*
X213063609Y-84387848D01*
X213113609Y-84351521D01*
X213132707Y-84292742D01*
X213132707Y-83092742D01*
X213113609Y-83033963D01*
X213063609Y-82997636D01*
X213001805Y-82997636D01*
X212951805Y-83033963D01*
X212932707Y-83092742D01*
X212932707Y-84292742D01*
X212561278Y-84292742D01*
X212561278Y-83092742D01*
X212556384Y-83077679D01*
X212556384Y-83061840D01*
X212547074Y-83049026D01*
X212542180Y-83033963D01*
X212529366Y-83024653D01*
X212520057Y-83011840D01*
X212504993Y-83006945D01*
X212492180Y-82997636D01*
X212476341Y-82997636D01*
X212461278Y-82992742D01*
X212004135Y-82992742D01*
X211982211Y-82999865D01*
X211959414Y-83003299D01*
X211845128Y-83060442D01*
X211833578Y-83071817D01*
X211819139Y-83079175D01*
X211761996Y-83136317D01*
X211754638Y-83150758D01*
X211743264Y-83162306D01*
X211686121Y-83276593D01*
X211682687Y-83299390D01*
X211675564Y-83321314D01*
X211675564Y-83492742D01*
X211392927Y-83492742D01*
X211358292Y-83354203D01*
X211352380Y-83344756D01*
X211350721Y-83333736D01*
X211293578Y-83219450D01*
X211282203Y-83207901D01*
X211274846Y-83193461D01*
X211160561Y-83079175D01*
X211140021Y-83068709D01*
X211121473Y-83055017D01*
X210950044Y-82997874D01*
X210933836Y-82997750D01*
X210918421Y-82992742D01*
X210804135Y-82992742D01*
X210788719Y-82997750D01*
X210772512Y-82997874D01*
X210601084Y-83055017D01*
X210582535Y-83068709D01*
X210561996Y-83079175D01*
X210504853Y-83136317D01*
X210476795Y-83191385D01*
X210486463Y-83252427D01*
X210530165Y-83296129D01*
X210591207Y-83305797D01*
X210646275Y-83277739D01*
X210686725Y-83237287D01*
X210820362Y-83192742D01*
X210902194Y-83192742D01*
X211035831Y-83237287D01*
X211121948Y-83323405D01*
X211166926Y-83413362D01*
X211218421Y-83619338D01*
X211218421Y-83766146D01*
X211166926Y-83972122D01*
X211121948Y-84062079D01*
X211035832Y-84148196D01*
X210902195Y-84192742D01*
X210820362Y-84192742D01*
X210686725Y-84148197D01*
X210646275Y-84107746D01*
X210591207Y-84079688D01*
X210530165Y-84089356D01*
X210486463Y-84133058D01*
X210476795Y-84194100D01*
X209304058Y-84194100D01*
X208662966Y-83553008D01*
X208618421Y-83419372D01*
X208618421Y-83344921D01*
X208657749Y-83266264D01*
X208691941Y-83232071D01*
X208770599Y-83192742D01*
X209009099Y-83192742D01*
X209087755Y-83232070D01*
X209133424Y-83277738D01*
X209188491Y-83305797D01*
X209249534Y-83296129D01*
X209293236Y-83252427D01*
X209302904Y-83191384D01*
X209274845Y-83136317D01*
X209217703Y-83079174D01*
X209203260Y-83071815D01*
X209191714Y-83060443D01*
X209077429Y-83003299D01*
X209054630Y-82999865D01*
X209032707Y-82992742D01*
X208746992Y-82992742D01*
X208725068Y-82999865D01*
X208702271Y-83003299D01*
X208587985Y-83060442D01*
X208576435Y-83071817D01*
X208561996Y-83079175D01*
X208504853Y-83136317D01*
X208497495Y-83150758D01*
X208486121Y-83162306D01*
X208428978Y-83276593D01*
X208425544Y-83299390D01*
X208418421Y-83321314D01*
X208418421Y-83435600D01*
X208135784Y-83435600D01*
X208101149Y-83297060D01*
X208095237Y-83287613D01*
X208093578Y-83276593D01*
X208036435Y-83162307D01*
X208025062Y-83150760D01*
X208017704Y-83136318D01*
X207960561Y-83079175D01*
X207946121Y-83071817D01*
X207934572Y-83060442D01*
X207820285Y-83003299D01*
X207797487Y-82999865D01*
X207775564Y-82992742D01*
X207661278Y-82992742D01*
X207639354Y-82999865D01*
X207616557Y-83003299D01*
X207502271Y-83060442D01*
X207490722Y-83071816D01*
X207476281Y-83079175D01*
X207419139Y-83136318D01*
X207411781Y-83150757D01*
X207400407Y-83162306D01*
X207343264Y-83276593D01*
X207341604Y-83287613D01*
X207335693Y-83297060D01*
X207278550Y-83525631D01*
X207279410Y-83538047D01*
X207275564Y-83549885D01*
X207275564Y-83835600D01*
X206659844Y-83835600D01*
X206377252Y-83553008D01*
X206332707Y-83419372D01*
X206332707Y-83344921D01*
X206372035Y-83266264D01*
X206406227Y-83232071D01*
X206484885Y-83192742D01*
X206723385Y-83192742D01*
X206802041Y-83232070D01*
X206847710Y-83277738D01*
X206902777Y-83305797D01*
X206963820Y-83296129D01*
X207007522Y-83252427D01*
X207017190Y-83191384D01*
X206989131Y-83136317D01*
X206931989Y-83079174D01*
X206917546Y-83071815D01*
X206906000Y-83060443D01*
X206791715Y-83003299D01*
X206768916Y-82999865D01*
X206746993Y-82992742D01*
X206461278Y-82992742D01*
X206439354Y-82999865D01*
X206416557Y-83003299D01*
X206302271Y-83060442D01*
X206290721Y-83071817D01*
X206276282Y-83079175D01*
X206219139Y-83136317D01*
X206211781Y-83150758D01*
X206200407Y-83162306D01*
X206143264Y-83276593D01*
X206139830Y-83299390D01*
X206132707Y-83321314D01*
X206132707Y-83435600D01*
X205728592Y-83435600D01*
X205584718Y-83003977D01*
X205548013Y-82954254D01*
X205489091Y-82935602D01*
X205430459Y-82955147D01*
X205394512Y-83005421D01*
X205394982Y-83067223D01*
X205636822Y-83792742D01*
X205304136Y-83792742D01*
X205304136Y-83492742D01*
X205285038Y-83433963D01*
X205235038Y-83397636D01*
X205173234Y-83397636D01*
X205123234Y-83433963D01*
X205104136Y-83492742D01*
X205104136Y-83792742D01*
X205032707Y-83792742D01*
X204973928Y-83811840D01*
X204937601Y-83861840D01*
X204937601Y-83923644D01*
X204766172Y-83923644D01*
X204766172Y-82764173D01*
X213304136Y-82764173D01*
X213304136Y-84564171D01*
G37*
X217417219Y-99593482D02*
X217417219Y-99022054D01*
X217417219Y-99307768D02*
X216417219Y-99307768D01*
X216417219Y-99307768D02*
X216560076Y-99212530D01*
X216560076Y-99212530D02*
X216655314Y-99117292D01*
X216655314Y-99117292D02*
X216702933Y-99022054D01*
X216512457Y-99974435D02*
X216464838Y-100022054D01*
X216464838Y-100022054D02*
X216417219Y-100117292D01*
X216417219Y-100117292D02*
X216417219Y-100355387D01*
X216417219Y-100355387D02*
X216464838Y-100450625D01*
X216464838Y-100450625D02*
X216512457Y-100498244D01*
X216512457Y-100498244D02*
X216607695Y-100545863D01*
X216607695Y-100545863D02*
X216702933Y-100545863D01*
X216702933Y-100545863D02*
X216845790Y-100498244D01*
X216845790Y-100498244D02*
X217417219Y-99926816D01*
X217417219Y-99926816D02*
X217417219Y-100545863D01*
X216417219Y-100831578D02*
X217417219Y-101164911D01*
X217417219Y-101164911D02*
X216417219Y-101498244D01*
X217512457Y-101593483D02*
X217512457Y-102355387D01*
X216893409Y-102926816D02*
X216941028Y-103069673D01*
X216941028Y-103069673D02*
X216988647Y-103117292D01*
X216988647Y-103117292D02*
X217083885Y-103164911D01*
X217083885Y-103164911D02*
X217226742Y-103164911D01*
X217226742Y-103164911D02*
X217321980Y-103117292D01*
X217321980Y-103117292D02*
X217369600Y-103069673D01*
X217369600Y-103069673D02*
X217417219Y-102974435D01*
X217417219Y-102974435D02*
X217417219Y-102593483D01*
X217417219Y-102593483D02*
X216417219Y-102593483D01*
X216417219Y-102593483D02*
X216417219Y-102926816D01*
X216417219Y-102926816D02*
X216464838Y-103022054D01*
X216464838Y-103022054D02*
X216512457Y-103069673D01*
X216512457Y-103069673D02*
X216607695Y-103117292D01*
X216607695Y-103117292D02*
X216702933Y-103117292D01*
X216702933Y-103117292D02*
X216798171Y-103069673D01*
X216798171Y-103069673D02*
X216845790Y-103022054D01*
X216845790Y-103022054D02*
X216893409Y-102926816D01*
X216893409Y-102926816D02*
X216893409Y-102593483D01*
X217417219Y-103736340D02*
X217369600Y-103641102D01*
X217369600Y-103641102D02*
X217321980Y-103593483D01*
X217321980Y-103593483D02*
X217226742Y-103545864D01*
X217226742Y-103545864D02*
X216941028Y-103545864D01*
X216941028Y-103545864D02*
X216845790Y-103593483D01*
X216845790Y-103593483D02*
X216798171Y-103641102D01*
X216798171Y-103641102D02*
X216750552Y-103736340D01*
X216750552Y-103736340D02*
X216750552Y-103879197D01*
X216750552Y-103879197D02*
X216798171Y-103974435D01*
X216798171Y-103974435D02*
X216845790Y-104022054D01*
X216845790Y-104022054D02*
X216941028Y-104069673D01*
X216941028Y-104069673D02*
X217226742Y-104069673D01*
X217226742Y-104069673D02*
X217321980Y-104022054D01*
X217321980Y-104022054D02*
X217369600Y-103974435D01*
X217369600Y-103974435D02*
X217417219Y-103879197D01*
X217417219Y-103879197D02*
X217417219Y-103736340D01*
X217417219Y-104641102D02*
X217369600Y-104545864D01*
X217369600Y-104545864D02*
X217321980Y-104498245D01*
X217321980Y-104498245D02*
X217226742Y-104450626D01*
X217226742Y-104450626D02*
X216941028Y-104450626D01*
X216941028Y-104450626D02*
X216845790Y-104498245D01*
X216845790Y-104498245D02*
X216798171Y-104545864D01*
X216798171Y-104545864D02*
X216750552Y-104641102D01*
X216750552Y-104641102D02*
X216750552Y-104783959D01*
X216750552Y-104783959D02*
X216798171Y-104879197D01*
X216798171Y-104879197D02*
X216845790Y-104926816D01*
X216845790Y-104926816D02*
X216941028Y-104974435D01*
X216941028Y-104974435D02*
X217226742Y-104974435D01*
X217226742Y-104974435D02*
X217321980Y-104926816D01*
X217321980Y-104926816D02*
X217369600Y-104879197D01*
X217369600Y-104879197D02*
X217417219Y-104783959D01*
X217417219Y-104783959D02*
X217417219Y-104641102D01*
X217369600Y-105355388D02*
X217417219Y-105450626D01*
X217417219Y-105450626D02*
X217417219Y-105641102D01*
X217417219Y-105641102D02*
X217369600Y-105736340D01*
X217369600Y-105736340D02*
X217274361Y-105783959D01*
X217274361Y-105783959D02*
X217226742Y-105783959D01*
X217226742Y-105783959D02*
X217131504Y-105736340D01*
X217131504Y-105736340D02*
X217083885Y-105641102D01*
X217083885Y-105641102D02*
X217083885Y-105498245D01*
X217083885Y-105498245D02*
X217036266Y-105403007D01*
X217036266Y-105403007D02*
X216941028Y-105355388D01*
X216941028Y-105355388D02*
X216893409Y-105355388D01*
X216893409Y-105355388D02*
X216798171Y-105403007D01*
X216798171Y-105403007D02*
X216750552Y-105498245D01*
X216750552Y-105498245D02*
X216750552Y-105641102D01*
X216750552Y-105641102D02*
X216798171Y-105736340D01*
X216750552Y-106069674D02*
X216750552Y-106450626D01*
X216417219Y-106212531D02*
X217274361Y-106212531D01*
X217274361Y-106212531D02*
X217369600Y-106260150D01*
X217369600Y-106260150D02*
X217417219Y-106355388D01*
X217417219Y-106355388D02*
X217417219Y-106450626D01*
D10*
X214925125Y-95268295D02*
X214658458Y-96068295D01*
X214658458Y-96068295D02*
X214391792Y-95268295D01*
X214125125Y-96068295D02*
X214125125Y-95268295D01*
X213782269Y-96030200D02*
X213667983Y-96068295D01*
X213667983Y-96068295D02*
X213477507Y-96068295D01*
X213477507Y-96068295D02*
X213401316Y-96030200D01*
X213401316Y-96030200D02*
X213363221Y-95992104D01*
X213363221Y-95992104D02*
X213325126Y-95915914D01*
X213325126Y-95915914D02*
X213325126Y-95839723D01*
X213325126Y-95839723D02*
X213363221Y-95763533D01*
X213363221Y-95763533D02*
X213401316Y-95725438D01*
X213401316Y-95725438D02*
X213477507Y-95687342D01*
X213477507Y-95687342D02*
X213629888Y-95649247D01*
X213629888Y-95649247D02*
X213706078Y-95611152D01*
X213706078Y-95611152D02*
X213744173Y-95573057D01*
X213744173Y-95573057D02*
X213782269Y-95496866D01*
X213782269Y-95496866D02*
X213782269Y-95420676D01*
X213782269Y-95420676D02*
X213744173Y-95344485D01*
X213744173Y-95344485D02*
X213706078Y-95306390D01*
X213706078Y-95306390D02*
X213629888Y-95268295D01*
X213629888Y-95268295D02*
X213439411Y-95268295D01*
X213439411Y-95268295D02*
X213325126Y-95306390D01*
X212982268Y-96068295D02*
X212982268Y-95268295D01*
X212982268Y-95649247D02*
X212525125Y-95649247D01*
X212525125Y-96068295D02*
X212525125Y-95268295D01*
X212220364Y-95268295D02*
X212029888Y-96068295D01*
X212029888Y-96068295D02*
X211877507Y-95496866D01*
X211877507Y-95496866D02*
X211725126Y-96068295D01*
X211725126Y-96068295D02*
X211534650Y-95268295D01*
X211267983Y-95839723D02*
X210887030Y-95839723D01*
X211344173Y-96068295D02*
X211077506Y-95268295D01*
X211077506Y-95268295D02*
X210810840Y-96068295D01*
X210048935Y-95268295D02*
X209782268Y-96068295D01*
X209782268Y-96068295D02*
X209515602Y-95268295D01*
X209020364Y-95268295D02*
X209020364Y-95839723D01*
X209020364Y-95839723D02*
X209058459Y-95954009D01*
X209058459Y-95954009D02*
X209134650Y-96030200D01*
X209134650Y-96030200D02*
X209248935Y-96068295D01*
X209248935Y-96068295D02*
X209325126Y-96068295D01*
X208753697Y-95268295D02*
X208296554Y-95268295D01*
X208525126Y-96068295D02*
X208525126Y-95268295D01*
X208029887Y-96068295D02*
X208029887Y-95268295D01*
X214848935Y-97127723D02*
X214467982Y-97127723D01*
X214925125Y-97356295D02*
X214658458Y-96556295D01*
X214658458Y-96556295D02*
X214391792Y-97356295D01*
X213553697Y-97318200D02*
X213439411Y-97356295D01*
X213439411Y-97356295D02*
X213248935Y-97356295D01*
X213248935Y-97356295D02*
X213172744Y-97318200D01*
X213172744Y-97318200D02*
X213134649Y-97280104D01*
X213134649Y-97280104D02*
X213096554Y-97203914D01*
X213096554Y-97203914D02*
X213096554Y-97127723D01*
X213096554Y-97127723D02*
X213134649Y-97051533D01*
X213134649Y-97051533D02*
X213172744Y-97013438D01*
X213172744Y-97013438D02*
X213248935Y-96975342D01*
X213248935Y-96975342D02*
X213401316Y-96937247D01*
X213401316Y-96937247D02*
X213477506Y-96899152D01*
X213477506Y-96899152D02*
X213515601Y-96861057D01*
X213515601Y-96861057D02*
X213553697Y-96784866D01*
X213553697Y-96784866D02*
X213553697Y-96708676D01*
X213553697Y-96708676D02*
X213515601Y-96632485D01*
X213515601Y-96632485D02*
X213477506Y-96594390D01*
X213477506Y-96594390D02*
X213401316Y-96556295D01*
X213401316Y-96556295D02*
X213210839Y-96556295D01*
X213210839Y-96556295D02*
X213096554Y-96594390D01*
X212753696Y-97356295D02*
X212753696Y-96556295D01*
X212753696Y-96556295D02*
X212448934Y-96556295D01*
X212448934Y-96556295D02*
X212372744Y-96594390D01*
X212372744Y-96594390D02*
X212334649Y-96632485D01*
X212334649Y-96632485D02*
X212296553Y-96708676D01*
X212296553Y-96708676D02*
X212296553Y-96822961D01*
X212296553Y-96822961D02*
X212334649Y-96899152D01*
X212334649Y-96899152D02*
X212372744Y-96937247D01*
X212372744Y-96937247D02*
X212448934Y-96975342D01*
X212448934Y-96975342D02*
X212753696Y-96975342D01*
X211991792Y-97127723D02*
X211610839Y-97127723D01*
X212067982Y-97356295D02*
X211801315Y-96556295D01*
X211801315Y-96556295D02*
X211534649Y-97356295D01*
X210810839Y-97280104D02*
X210848935Y-97318200D01*
X210848935Y-97318200D02*
X210963220Y-97356295D01*
X210963220Y-97356295D02*
X211039411Y-97356295D01*
X211039411Y-97356295D02*
X211153697Y-97318200D01*
X211153697Y-97318200D02*
X211229887Y-97242009D01*
X211229887Y-97242009D02*
X211267982Y-97165819D01*
X211267982Y-97165819D02*
X211306078Y-97013438D01*
X211306078Y-97013438D02*
X211306078Y-96899152D01*
X211306078Y-96899152D02*
X211267982Y-96746771D01*
X211267982Y-96746771D02*
X211229887Y-96670580D01*
X211229887Y-96670580D02*
X211153697Y-96594390D01*
X211153697Y-96594390D02*
X211039411Y-96556295D01*
X211039411Y-96556295D02*
X210963220Y-96556295D01*
X210963220Y-96556295D02*
X210848935Y-96594390D01*
X210848935Y-96594390D02*
X210810839Y-96632485D01*
X210467982Y-96937247D02*
X210201316Y-96937247D01*
X210087030Y-97356295D02*
X210467982Y-97356295D01*
X210467982Y-97356295D02*
X210467982Y-96556295D01*
X210467982Y-96556295D02*
X210087030Y-96556295D01*
X209172744Y-97318200D02*
X209058458Y-97356295D01*
X209058458Y-97356295D02*
X208867982Y-97356295D01*
X208867982Y-97356295D02*
X208791791Y-97318200D01*
X208791791Y-97318200D02*
X208753696Y-97280104D01*
X208753696Y-97280104D02*
X208715601Y-97203914D01*
X208715601Y-97203914D02*
X208715601Y-97127723D01*
X208715601Y-97127723D02*
X208753696Y-97051533D01*
X208753696Y-97051533D02*
X208791791Y-97013438D01*
X208791791Y-97013438D02*
X208867982Y-96975342D01*
X208867982Y-96975342D02*
X209020363Y-96937247D01*
X209020363Y-96937247D02*
X209096553Y-96899152D01*
X209096553Y-96899152D02*
X209134648Y-96861057D01*
X209134648Y-96861057D02*
X209172744Y-96784866D01*
X209172744Y-96784866D02*
X209172744Y-96708676D01*
X209172744Y-96708676D02*
X209134648Y-96632485D01*
X209134648Y-96632485D02*
X209096553Y-96594390D01*
X209096553Y-96594390D02*
X209020363Y-96556295D01*
X209020363Y-96556295D02*
X208829886Y-96556295D01*
X208829886Y-96556295D02*
X208715601Y-96594390D01*
X207915600Y-97280104D02*
X207953696Y-97318200D01*
X207953696Y-97318200D02*
X208067981Y-97356295D01*
X208067981Y-97356295D02*
X208144172Y-97356295D01*
X208144172Y-97356295D02*
X208258458Y-97318200D01*
X208258458Y-97318200D02*
X208334648Y-97242009D01*
X208334648Y-97242009D02*
X208372743Y-97165819D01*
X208372743Y-97165819D02*
X208410839Y-97013438D01*
X208410839Y-97013438D02*
X208410839Y-96899152D01*
X208410839Y-96899152D02*
X208372743Y-96746771D01*
X208372743Y-96746771D02*
X208334648Y-96670580D01*
X208334648Y-96670580D02*
X208258458Y-96594390D01*
X208258458Y-96594390D02*
X208144172Y-96556295D01*
X208144172Y-96556295D02*
X208067981Y-96556295D01*
X208067981Y-96556295D02*
X207953696Y-96594390D01*
X207953696Y-96594390D02*
X207915600Y-96632485D01*
X207572743Y-97356295D02*
X207572743Y-96556295D01*
X207191791Y-96937247D02*
X206925125Y-96937247D01*
X206810839Y-97356295D02*
X207191791Y-97356295D01*
X207191791Y-97356295D02*
X207191791Y-96556295D01*
X207191791Y-96556295D02*
X206810839Y-96556295D01*
X206467981Y-97356295D02*
X206467981Y-96556295D01*
X206467981Y-96556295D02*
X206010838Y-97356295D01*
X206010838Y-97356295D02*
X206010838Y-96556295D01*
X205172743Y-97280104D02*
X205210839Y-97318200D01*
X205210839Y-97318200D02*
X205325124Y-97356295D01*
X205325124Y-97356295D02*
X205401315Y-97356295D01*
X205401315Y-97356295D02*
X205515601Y-97318200D01*
X205515601Y-97318200D02*
X205591791Y-97242009D01*
X205591791Y-97242009D02*
X205629886Y-97165819D01*
X205629886Y-97165819D02*
X205667982Y-97013438D01*
X205667982Y-97013438D02*
X205667982Y-96899152D01*
X205667982Y-96899152D02*
X205629886Y-96746771D01*
X205629886Y-96746771D02*
X205591791Y-96670580D01*
X205591791Y-96670580D02*
X205515601Y-96594390D01*
X205515601Y-96594390D02*
X205401315Y-96556295D01*
X205401315Y-96556295D02*
X205325124Y-96556295D01*
X205325124Y-96556295D02*
X205210839Y-96594390D01*
X205210839Y-96594390D02*
X205172743Y-96632485D01*
X204829886Y-96937247D02*
X204563220Y-96937247D01*
X204448934Y-97356295D02*
X204829886Y-97356295D01*
X204829886Y-97356295D02*
X204829886Y-96556295D01*
X204829886Y-96556295D02*
X204448934Y-96556295D01*
X204144172Y-97318200D02*
X204029886Y-97356295D01*
X204029886Y-97356295D02*
X203839410Y-97356295D01*
X203839410Y-97356295D02*
X203763219Y-97318200D01*
X203763219Y-97318200D02*
X203725124Y-97280104D01*
X203725124Y-97280104D02*
X203687029Y-97203914D01*
X203687029Y-97203914D02*
X203687029Y-97127723D01*
X203687029Y-97127723D02*
X203725124Y-97051533D01*
X203725124Y-97051533D02*
X203763219Y-97013438D01*
X203763219Y-97013438D02*
X203839410Y-96975342D01*
X203839410Y-96975342D02*
X203991791Y-96937247D01*
X203991791Y-96937247D02*
X204067981Y-96899152D01*
X204067981Y-96899152D02*
X204106076Y-96861057D01*
X204106076Y-96861057D02*
X204144172Y-96784866D01*
X204144172Y-96784866D02*
X204144172Y-96708676D01*
X204144172Y-96708676D02*
X204106076Y-96632485D01*
X204106076Y-96632485D02*
X204067981Y-96594390D01*
X204067981Y-96594390D02*
X203991791Y-96556295D01*
X203991791Y-96556295D02*
X203801314Y-96556295D01*
X203801314Y-96556295D02*
X203687029Y-96594390D01*
X214848935Y-98415723D02*
X214467982Y-98415723D01*
X214925125Y-98644295D02*
X214658458Y-97844295D01*
X214658458Y-97844295D02*
X214391792Y-98644295D01*
X214125125Y-98644295D02*
X214125125Y-97844295D01*
X214125125Y-97844295D02*
X213667982Y-98644295D01*
X213667982Y-98644295D02*
X213667982Y-97844295D01*
X213287030Y-98644295D02*
X213287030Y-97844295D01*
X213287030Y-97844295D02*
X213096554Y-97844295D01*
X213096554Y-97844295D02*
X212982268Y-97882390D01*
X212982268Y-97882390D02*
X212906078Y-97958580D01*
X212906078Y-97958580D02*
X212867983Y-98034771D01*
X212867983Y-98034771D02*
X212829887Y-98187152D01*
X212829887Y-98187152D02*
X212829887Y-98301438D01*
X212829887Y-98301438D02*
X212867983Y-98453819D01*
X212867983Y-98453819D02*
X212906078Y-98530009D01*
X212906078Y-98530009D02*
X212982268Y-98606200D01*
X212982268Y-98606200D02*
X213096554Y-98644295D01*
X213096554Y-98644295D02*
X213287030Y-98644295D01*
X211915602Y-98415723D02*
X211534649Y-98415723D01*
X211991792Y-98644295D02*
X211725125Y-97844295D01*
X211725125Y-97844295D02*
X211458459Y-98644295D01*
X211229888Y-98606200D02*
X211115602Y-98644295D01*
X211115602Y-98644295D02*
X210925126Y-98644295D01*
X210925126Y-98644295D02*
X210848935Y-98606200D01*
X210848935Y-98606200D02*
X210810840Y-98568104D01*
X210810840Y-98568104D02*
X210772745Y-98491914D01*
X210772745Y-98491914D02*
X210772745Y-98415723D01*
X210772745Y-98415723D02*
X210810840Y-98339533D01*
X210810840Y-98339533D02*
X210848935Y-98301438D01*
X210848935Y-98301438D02*
X210925126Y-98263342D01*
X210925126Y-98263342D02*
X211077507Y-98225247D01*
X211077507Y-98225247D02*
X211153697Y-98187152D01*
X211153697Y-98187152D02*
X211191792Y-98149057D01*
X211191792Y-98149057D02*
X211229888Y-98072866D01*
X211229888Y-98072866D02*
X211229888Y-97996676D01*
X211229888Y-97996676D02*
X211191792Y-97920485D01*
X211191792Y-97920485D02*
X211153697Y-97882390D01*
X211153697Y-97882390D02*
X211077507Y-97844295D01*
X211077507Y-97844295D02*
X210887030Y-97844295D01*
X210887030Y-97844295D02*
X210772745Y-97882390D01*
X210544173Y-97844295D02*
X210087030Y-97844295D01*
X210315602Y-98644295D02*
X210315602Y-97844295D01*
X209363220Y-98644295D02*
X209629887Y-98263342D01*
X209820363Y-98644295D02*
X209820363Y-97844295D01*
X209820363Y-97844295D02*
X209515601Y-97844295D01*
X209515601Y-97844295D02*
X209439411Y-97882390D01*
X209439411Y-97882390D02*
X209401316Y-97920485D01*
X209401316Y-97920485D02*
X209363220Y-97996676D01*
X209363220Y-97996676D02*
X209363220Y-98110961D01*
X209363220Y-98110961D02*
X209401316Y-98187152D01*
X209401316Y-98187152D02*
X209439411Y-98225247D01*
X209439411Y-98225247D02*
X209515601Y-98263342D01*
X209515601Y-98263342D02*
X209820363Y-98263342D01*
X208867982Y-97844295D02*
X208715601Y-97844295D01*
X208715601Y-97844295D02*
X208639411Y-97882390D01*
X208639411Y-97882390D02*
X208563220Y-97958580D01*
X208563220Y-97958580D02*
X208525125Y-98110961D01*
X208525125Y-98110961D02*
X208525125Y-98377628D01*
X208525125Y-98377628D02*
X208563220Y-98530009D01*
X208563220Y-98530009D02*
X208639411Y-98606200D01*
X208639411Y-98606200D02*
X208715601Y-98644295D01*
X208715601Y-98644295D02*
X208867982Y-98644295D01*
X208867982Y-98644295D02*
X208944173Y-98606200D01*
X208944173Y-98606200D02*
X209020363Y-98530009D01*
X209020363Y-98530009D02*
X209058459Y-98377628D01*
X209058459Y-98377628D02*
X209058459Y-98110961D01*
X209058459Y-98110961D02*
X209020363Y-97958580D01*
X209020363Y-97958580D02*
X208944173Y-97882390D01*
X208944173Y-97882390D02*
X208867982Y-97844295D01*
X208182268Y-98644295D02*
X208182268Y-97844295D01*
X208182268Y-97844295D02*
X207725125Y-98644295D01*
X207725125Y-98644295D02*
X207725125Y-97844295D01*
X207191792Y-97844295D02*
X207039411Y-97844295D01*
X207039411Y-97844295D02*
X206963221Y-97882390D01*
X206963221Y-97882390D02*
X206887030Y-97958580D01*
X206887030Y-97958580D02*
X206848935Y-98110961D01*
X206848935Y-98110961D02*
X206848935Y-98377628D01*
X206848935Y-98377628D02*
X206887030Y-98530009D01*
X206887030Y-98530009D02*
X206963221Y-98606200D01*
X206963221Y-98606200D02*
X207039411Y-98644295D01*
X207039411Y-98644295D02*
X207191792Y-98644295D01*
X207191792Y-98644295D02*
X207267983Y-98606200D01*
X207267983Y-98606200D02*
X207344173Y-98530009D01*
X207344173Y-98530009D02*
X207382269Y-98377628D01*
X207382269Y-98377628D02*
X207382269Y-98110961D01*
X207382269Y-98110961D02*
X207344173Y-97958580D01*
X207344173Y-97958580D02*
X207267983Y-97882390D01*
X207267983Y-97882390D02*
X207191792Y-97844295D01*
X206506078Y-98644295D02*
X206506078Y-97844295D01*
X206506078Y-97844295D02*
X206239412Y-98415723D01*
X206239412Y-98415723D02*
X205972745Y-97844295D01*
X205972745Y-97844295D02*
X205972745Y-98644295D01*
X205439411Y-98263342D02*
X205439411Y-98644295D01*
X205706078Y-97844295D02*
X205439411Y-98263342D01*
X205439411Y-98263342D02*
X205172745Y-97844295D01*
X203839411Y-98568104D02*
X203877507Y-98606200D01*
X203877507Y-98606200D02*
X203991792Y-98644295D01*
X203991792Y-98644295D02*
X204067983Y-98644295D01*
X204067983Y-98644295D02*
X204182269Y-98606200D01*
X204182269Y-98606200D02*
X204258459Y-98530009D01*
X204258459Y-98530009D02*
X204296554Y-98453819D01*
X204296554Y-98453819D02*
X204334650Y-98301438D01*
X204334650Y-98301438D02*
X204334650Y-98187152D01*
X204334650Y-98187152D02*
X204296554Y-98034771D01*
X204296554Y-98034771D02*
X204258459Y-97958580D01*
X204258459Y-97958580D02*
X204182269Y-97882390D01*
X204182269Y-97882390D02*
X204067983Y-97844295D01*
X204067983Y-97844295D02*
X203991792Y-97844295D01*
X203991792Y-97844295D02*
X203877507Y-97882390D01*
X203877507Y-97882390D02*
X203839411Y-97920485D01*
X203115602Y-98644295D02*
X203496554Y-98644295D01*
X203496554Y-98644295D02*
X203496554Y-97844295D01*
X202848935Y-97844295D02*
X202848935Y-98491914D01*
X202848935Y-98491914D02*
X202810840Y-98568104D01*
X202810840Y-98568104D02*
X202772745Y-98606200D01*
X202772745Y-98606200D02*
X202696554Y-98644295D01*
X202696554Y-98644295D02*
X202544173Y-98644295D01*
X202544173Y-98644295D02*
X202467983Y-98606200D01*
X202467983Y-98606200D02*
X202429888Y-98568104D01*
X202429888Y-98568104D02*
X202391792Y-98491914D01*
X202391792Y-98491914D02*
X202391792Y-97844295D01*
X201744174Y-98225247D02*
X201629888Y-98263342D01*
X201629888Y-98263342D02*
X201591793Y-98301438D01*
X201591793Y-98301438D02*
X201553697Y-98377628D01*
X201553697Y-98377628D02*
X201553697Y-98491914D01*
X201553697Y-98491914D02*
X201591793Y-98568104D01*
X201591793Y-98568104D02*
X201629888Y-98606200D01*
X201629888Y-98606200D02*
X201706078Y-98644295D01*
X201706078Y-98644295D02*
X202010840Y-98644295D01*
X202010840Y-98644295D02*
X202010840Y-97844295D01*
X202010840Y-97844295D02*
X201744174Y-97844295D01*
X201744174Y-97844295D02*
X201667983Y-97882390D01*
X201667983Y-97882390D02*
X201629888Y-97920485D01*
X201629888Y-97920485D02*
X201591793Y-97996676D01*
X201591793Y-97996676D02*
X201591793Y-98072866D01*
X201591793Y-98072866D02*
X201629888Y-98149057D01*
X201629888Y-98149057D02*
X201667983Y-98187152D01*
X201667983Y-98187152D02*
X201744174Y-98225247D01*
X201744174Y-98225247D02*
X202010840Y-98225247D01*
%TO.C,G\u002A\u002A\u002A*%
G36*
X198148672Y-94962357D02*
G01*
X198175417Y-95026250D01*
X198190664Y-95068934D01*
X198210014Y-95097678D01*
X198242546Y-95108402D01*
X198301667Y-95110000D01*
X198314852Y-95110134D01*
X198375591Y-95117241D01*
X198397930Y-95135419D01*
X198381967Y-95165036D01*
X198327803Y-95206462D01*
X198291574Y-95232486D01*
X198267737Y-95263043D01*
X198268829Y-95296462D01*
X198280919Y-95344644D01*
X198293396Y-95405000D01*
X198297708Y-95448931D01*
X198286526Y-95465845D01*
X198255477Y-95453266D01*
X198200695Y-95411463D01*
X198131390Y-95354002D01*
X198044290Y-95413929D01*
X198009704Y-95436287D01*
X197967356Y-95458780D01*
X197946346Y-95463011D01*
X197944667Y-95452610D01*
X197951627Y-95412834D01*
X197968495Y-95356083D01*
X197981263Y-95317783D01*
X197991187Y-95277079D01*
X197986956Y-95255052D01*
X197968578Y-95240000D01*
X197955201Y-95231675D01*
X197897320Y-95190802D01*
X197855860Y-95153774D01*
X197840000Y-95128548D01*
X197849041Y-95121127D01*
X197888128Y-95113113D01*
X197947626Y-95110000D01*
X198055252Y-95110000D01*
X198078279Y-95018550D01*
X198080507Y-95009974D01*
X198101513Y-94954243D01*
X198124136Y-94938363D01*
X198148672Y-94962357D01*
G37*
G36*
X198148645Y-93582343D02*
G01*
X198175417Y-93646250D01*
X198190664Y-93688934D01*
X198210014Y-93717678D01*
X198242546Y-93728402D01*
X198301667Y-93730000D01*
X198315290Y-93730140D01*
X198375746Y-93737224D01*
X198397926Y-93755528D01*
X198382025Y-93785775D01*
X198328238Y-93828692D01*
X198285750Y-93861415D01*
X198266832Y-93891774D01*
X198269587Y-93928692D01*
X198279873Y-93972117D01*
X198293482Y-94035000D01*
X198297892Y-94067932D01*
X198289621Y-94086546D01*
X198261219Y-94077148D01*
X198208223Y-94040000D01*
X198202294Y-94035481D01*
X198156995Y-94003658D01*
X198123691Y-93993999D01*
X198087387Y-94006654D01*
X198033088Y-94041777D01*
X198009060Y-94057225D01*
X197967440Y-94079065D01*
X197946196Y-94082861D01*
X197944432Y-94073962D01*
X197950619Y-94035698D01*
X197966826Y-93980235D01*
X197998151Y-93888302D01*
X197919896Y-93834151D01*
X197894945Y-93815595D01*
X197858988Y-93782086D01*
X197847393Y-93760000D01*
X197856284Y-93752401D01*
X197895606Y-93741035D01*
X197954443Y-93734028D01*
X198055741Y-93728057D01*
X198078524Y-93637579D01*
X198080500Y-93629949D01*
X198101439Y-93574216D01*
X198124069Y-93558340D01*
X198148645Y-93582343D01*
G37*
G36*
X200112501Y-94940284D02*
G01*
X200136678Y-94988223D01*
X200167498Y-95075000D01*
X200180503Y-95094379D01*
X200214998Y-95106600D01*
X200279373Y-95110000D01*
X200315971Y-95111368D01*
X200362006Y-95118567D01*
X200380000Y-95129874D01*
X200376440Y-95138509D01*
X200349475Y-95168179D01*
X200304713Y-95204874D01*
X200272168Y-95229345D01*
X200244957Y-95257360D01*
X200240729Y-95286097D01*
X200253585Y-95330000D01*
X200255841Y-95336676D01*
X200271748Y-95392955D01*
X200278872Y-95435000D01*
X200278224Y-95454847D01*
X200268412Y-95467317D01*
X200241868Y-95456092D01*
X200191778Y-95420000D01*
X200151012Y-95391203D01*
X200105819Y-95373605D01*
X200062368Y-95383822D01*
X200005575Y-95422019D01*
X199987099Y-95435482D01*
X199947753Y-95459308D01*
X199927466Y-95464131D01*
X199925791Y-95454322D01*
X199931376Y-95414806D01*
X199945701Y-95357708D01*
X199973844Y-95261192D01*
X199896922Y-95205470D01*
X199872677Y-95186944D01*
X199834893Y-95152809D01*
X199820000Y-95130919D01*
X199827734Y-95123342D01*
X199865251Y-95112728D01*
X199923428Y-95106045D01*
X199979360Y-95101662D01*
X200015724Y-95090745D01*
X200036648Y-95064845D01*
X200055095Y-95015000D01*
X200063902Y-94990525D01*
X200083979Y-94947168D01*
X200099241Y-94930000D01*
X200112501Y-94940284D01*
G37*
G36*
X200699699Y-91416107D02*
G01*
X200910956Y-91455982D01*
X201111060Y-91530880D01*
X201294074Y-91638324D01*
X201454060Y-91775832D01*
X201484347Y-91808053D01*
X201551598Y-91885077D01*
X201610183Y-91959057D01*
X201650062Y-92017608D01*
X201711130Y-92137266D01*
X201780519Y-92341434D01*
X201812668Y-92553362D01*
X201807443Y-92768479D01*
X201764710Y-92982215D01*
X201684337Y-93190000D01*
X201678284Y-93202163D01*
X201576295Y-93362921D01*
X201442926Y-93510573D01*
X201285723Y-93638890D01*
X201112232Y-93741644D01*
X200930000Y-93812607D01*
X200903586Y-93819924D01*
X200778138Y-93844276D01*
X200676841Y-93843309D01*
X200594007Y-93817097D01*
X200549047Y-93793256D01*
X200432180Y-93726506D01*
X200299469Y-93645507D01*
X200157212Y-93554557D01*
X200011712Y-93457956D01*
X199869268Y-93360003D01*
X199736180Y-93264995D01*
X199618750Y-93177233D01*
X199523277Y-93101016D01*
X199456062Y-93040642D01*
X199409728Y-92973070D01*
X199378484Y-92874309D01*
X199363498Y-92743524D01*
X199364280Y-92578244D01*
X199376999Y-92434886D01*
X199408890Y-92284812D01*
X199463450Y-92140638D01*
X199545284Y-91987333D01*
X199549823Y-91979788D01*
X199669019Y-91820667D01*
X199817651Y-91682415D01*
X199989289Y-91568626D01*
X200177501Y-91482897D01*
X200375857Y-91428823D01*
X200577925Y-91410000D01*
X200699699Y-91416107D01*
G37*
G36*
X198695410Y-90997992D02*
G01*
X198801384Y-91005394D01*
X198893321Y-91016069D01*
X198964729Y-91029243D01*
X199009119Y-91044145D01*
X199020000Y-91060000D01*
X199012438Y-91068356D01*
X198980000Y-91075108D01*
X198914402Y-91066194D01*
X198784818Y-91056547D01*
X198653706Y-91055347D01*
X198534625Y-91062521D01*
X198441131Y-91077996D01*
X198331685Y-91115398D01*
X198227381Y-91179406D01*
X198157769Y-91263051D01*
X198122816Y-91366446D01*
X198122487Y-91489704D01*
X198156749Y-91632940D01*
X198225568Y-91796267D01*
X198279960Y-91897445D01*
X198409926Y-92096875D01*
X198575208Y-92306182D01*
X198776330Y-92525922D01*
X199013820Y-92756653D01*
X199288201Y-92998932D01*
X199600000Y-93253316D01*
X199852036Y-93441082D01*
X200149782Y-93640981D01*
X200468542Y-93835406D01*
X200801487Y-94020896D01*
X201141790Y-94193988D01*
X201482621Y-94351221D01*
X201817153Y-94489132D01*
X202138555Y-94604260D01*
X202440000Y-94693143D01*
X202451047Y-94695956D01*
X202607481Y-94728960D01*
X202771876Y-94752546D01*
X202935008Y-94766201D01*
X203087653Y-94769410D01*
X203220585Y-94761660D01*
X203324579Y-94742436D01*
X203431050Y-94698861D01*
X203525277Y-94626443D01*
X203586593Y-94532965D01*
X203613399Y-94420997D01*
X203604098Y-94293109D01*
X203589231Y-94232241D01*
X203527932Y-94068076D01*
X203433150Y-93893592D01*
X203304174Y-93707827D01*
X203140297Y-93509819D01*
X202940809Y-93298606D01*
X202705000Y-93073226D01*
X202677347Y-93047810D01*
X202593802Y-92969187D01*
X202538074Y-92912799D01*
X202507882Y-92875972D01*
X202500951Y-92856034D01*
X202515000Y-92850312D01*
X202532703Y-92860032D01*
X202575917Y-92890079D01*
X202637308Y-92935575D01*
X202710000Y-92991538D01*
X202999464Y-93225858D01*
X203282327Y-93472651D01*
X203534124Y-93712441D01*
X203753963Y-93944165D01*
X203940956Y-94166757D01*
X204094212Y-94379154D01*
X204212841Y-94580289D01*
X204295953Y-94769099D01*
X204342658Y-94944519D01*
X204351467Y-95020376D01*
X204343172Y-95156213D01*
X204300352Y-95272057D01*
X204222839Y-95368156D01*
X204110466Y-95444753D01*
X203963066Y-95502094D01*
X203896245Y-95515475D01*
X203782124Y-95524762D01*
X203644414Y-95525519D01*
X203491731Y-95518205D01*
X203332690Y-95503278D01*
X203175908Y-95481197D01*
X203030000Y-95452421D01*
X202807780Y-95395702D01*
X202404990Y-95268841D01*
X201986703Y-95107713D01*
X201554705Y-94913148D01*
X201110782Y-94685972D01*
X200656719Y-94427015D01*
X200194302Y-94137105D01*
X200144611Y-94104360D01*
X199832869Y-93889126D01*
X199533712Y-93665859D01*
X199250201Y-93437436D01*
X198985400Y-93206737D01*
X198742369Y-92976642D01*
X198524171Y-92750030D01*
X198333868Y-92529780D01*
X198174522Y-92318772D01*
X198049194Y-92119886D01*
X198017821Y-92059585D01*
X197962201Y-91933386D01*
X197912359Y-91797462D01*
X197873414Y-91666375D01*
X197850486Y-91554687D01*
X197844951Y-91474984D01*
X197862899Y-91340671D01*
X197915652Y-91223597D01*
X198001496Y-91126959D01*
X198118719Y-91053956D01*
X198170336Y-91032599D01*
X198223703Y-91016973D01*
X198286255Y-91006715D01*
X198368264Y-91000168D01*
X198480000Y-90995673D01*
X198581889Y-90994637D01*
X198695410Y-90997992D01*
G37*
G36*
X238048672Y-93462357D02*
G01*
X238075417Y-93526250D01*
X238090664Y-93568934D01*
X238110014Y-93597678D01*
X238142546Y-93608402D01*
X238201667Y-93610000D01*
X238214852Y-93610134D01*
X238275591Y-93617241D01*
X238297930Y-93635419D01*
X238281967Y-93665036D01*
X238227803Y-93706462D01*
X238191574Y-93732486D01*
X238167737Y-93763043D01*
X238168829Y-93796462D01*
X238180919Y-93844644D01*
X238193396Y-93905000D01*
X238197708Y-93948931D01*
X238186526Y-93965845D01*
X238155477Y-93953266D01*
X238100695Y-93911463D01*
X238031390Y-93854002D01*
X237944290Y-93913929D01*
X237909704Y-93936287D01*
X237867356Y-93958780D01*
X237846346Y-93963011D01*
X237844667Y-93952610D01*
X237851627Y-93912834D01*
X237868495Y-93856083D01*
X237881263Y-93817783D01*
X237891187Y-93777079D01*
X237886956Y-93755052D01*
X237868578Y-93740000D01*
X237855201Y-93731675D01*
X237797320Y-93690802D01*
X237755860Y-93653774D01*
X237740000Y-93628548D01*
X237749041Y-93621127D01*
X237788128Y-93613113D01*
X237847626Y-93610000D01*
X237955252Y-93610000D01*
X237978279Y-93518550D01*
X237980507Y-93509974D01*
X238001513Y-93454243D01*
X238024136Y-93438363D01*
X238048672Y-93462357D01*
G37*
G36*
X238048645Y-92082343D02*
G01*
X238075417Y-92146250D01*
X238090664Y-92188934D01*
X238110014Y-92217678D01*
X238142546Y-92228402D01*
X238201667Y-92230000D01*
X238215290Y-92230140D01*
X238275746Y-92237224D01*
X238297926Y-92255528D01*
X238282025Y-92285775D01*
X238228238Y-92328692D01*
X238185750Y-92361415D01*
X238166832Y-92391774D01*
X238169587Y-92428692D01*
X238179873Y-92472117D01*
X238193482Y-92535000D01*
X238197892Y-92567932D01*
X238189621Y-92586546D01*
X238161219Y-92577148D01*
X238108223Y-92540000D01*
X238102294Y-92535481D01*
X238056995Y-92503658D01*
X238023691Y-92493999D01*
X237987387Y-92506654D01*
X237933088Y-92541777D01*
X237909060Y-92557225D01*
X237867440Y-92579065D01*
X237846196Y-92582861D01*
X237844432Y-92573962D01*
X237850619Y-92535698D01*
X237866826Y-92480235D01*
X237898151Y-92388302D01*
X237819896Y-92334151D01*
X237794945Y-92315595D01*
X237758988Y-92282086D01*
X237747393Y-92260000D01*
X237756284Y-92252401D01*
X237795606Y-92241035D01*
X237854443Y-92234028D01*
X237955741Y-92228057D01*
X237978524Y-92137579D01*
X237980500Y-92129949D01*
X238001439Y-92074216D01*
X238024069Y-92058340D01*
X238048645Y-92082343D01*
G37*
G36*
X240012501Y-93440284D02*
G01*
X240036678Y-93488223D01*
X240067498Y-93575000D01*
X240080503Y-93594379D01*
X240114998Y-93606600D01*
X240179373Y-93610000D01*
X240215971Y-93611368D01*
X240262006Y-93618567D01*
X240280000Y-93629874D01*
X240276440Y-93638509D01*
X240249475Y-93668179D01*
X240204713Y-93704874D01*
X240172168Y-93729345D01*
X240144957Y-93757360D01*
X240140729Y-93786097D01*
X240153585Y-93830000D01*
X240155841Y-93836676D01*
X240171748Y-93892955D01*
X240178872Y-93935000D01*
X240178224Y-93954847D01*
X240168412Y-93967317D01*
X240141868Y-93956092D01*
X240091778Y-93920000D01*
X240051012Y-93891203D01*
X240005819Y-93873605D01*
X239962368Y-93883822D01*
X239905575Y-93922019D01*
X239887099Y-93935482D01*
X239847753Y-93959308D01*
X239827466Y-93964131D01*
X239825791Y-93954322D01*
X239831376Y-93914806D01*
X239845701Y-93857708D01*
X239873844Y-93761192D01*
X239796922Y-93705470D01*
X239772677Y-93686944D01*
X239734893Y-93652809D01*
X239720000Y-93630919D01*
X239727734Y-93623342D01*
X239765251Y-93612728D01*
X239823428Y-93606045D01*
X239879360Y-93601662D01*
X239915724Y-93590745D01*
X239936648Y-93564845D01*
X239955095Y-93515000D01*
X239963902Y-93490525D01*
X239983979Y-93447168D01*
X239999241Y-93430000D01*
X240012501Y-93440284D01*
G37*
G36*
X240599699Y-89916107D02*
G01*
X240810956Y-89955982D01*
X241011060Y-90030880D01*
X241194074Y-90138324D01*
X241354060Y-90275832D01*
X241384347Y-90308053D01*
X241451598Y-90385077D01*
X241510183Y-90459057D01*
X241550062Y-90517608D01*
X241611130Y-90637266D01*
X241680519Y-90841434D01*
X241712668Y-91053362D01*
X241707443Y-91268479D01*
X241664710Y-91482215D01*
X241584337Y-91690000D01*
X241578284Y-91702163D01*
X241476295Y-91862921D01*
X241342926Y-92010573D01*
X241185723Y-92138890D01*
X241012232Y-92241644D01*
X240830000Y-92312607D01*
X240803586Y-92319924D01*
X240678138Y-92344276D01*
X240576841Y-92343309D01*
X240494007Y-92317097D01*
X240449047Y-92293256D01*
X240332180Y-92226506D01*
X240199469Y-92145507D01*
X240057212Y-92054557D01*
X239911712Y-91957956D01*
X239769268Y-91860003D01*
X239636180Y-91764995D01*
X239518750Y-91677233D01*
X239423277Y-91601016D01*
X239356062Y-91540642D01*
X239309728Y-91473070D01*
X239278484Y-91374309D01*
X239263498Y-91243524D01*
X239264280Y-91078244D01*
X239276999Y-90934886D01*
X239308890Y-90784812D01*
X239363450Y-90640638D01*
X239445284Y-90487333D01*
X239449823Y-90479788D01*
X239569019Y-90320667D01*
X239717651Y-90182415D01*
X239889289Y-90068626D01*
X240077501Y-89982897D01*
X240275857Y-89928823D01*
X240477925Y-89910000D01*
X240599699Y-89916107D01*
G37*
G36*
X238595410Y-89497992D02*
G01*
X238701384Y-89505394D01*
X238793321Y-89516069D01*
X238864729Y-89529243D01*
X238909119Y-89544145D01*
X238920000Y-89560000D01*
X238912438Y-89568356D01*
X238880000Y-89575108D01*
X238814402Y-89566194D01*
X238684818Y-89556547D01*
X238553706Y-89555347D01*
X238434625Y-89562521D01*
X238341131Y-89577996D01*
X238231685Y-89615398D01*
X238127381Y-89679406D01*
X238057769Y-89763051D01*
X238022816Y-89866446D01*
X238022487Y-89989704D01*
X238056749Y-90132940D01*
X238125568Y-90296267D01*
X238179960Y-90397445D01*
X238309926Y-90596875D01*
X238475208Y-90806182D01*
X238676330Y-91025922D01*
X238913820Y-91256653D01*
X239188201Y-91498932D01*
X239500000Y-91753316D01*
X239752036Y-91941082D01*
X240049782Y-92140981D01*
X240368542Y-92335406D01*
X240701487Y-92520896D01*
X241041790Y-92693988D01*
X241382621Y-92851221D01*
X241717153Y-92989132D01*
X242038555Y-93104260D01*
X242340000Y-93193143D01*
X242351047Y-93195956D01*
X242507481Y-93228960D01*
X242671876Y-93252546D01*
X242835008Y-93266201D01*
X242987653Y-93269410D01*
X243120585Y-93261660D01*
X243224579Y-93242436D01*
X243331050Y-93198861D01*
X243425277Y-93126443D01*
X243486593Y-93032965D01*
X243513399Y-92920997D01*
X243504098Y-92793109D01*
X243489231Y-92732241D01*
X243427932Y-92568076D01*
X243333150Y-92393592D01*
X243204174Y-92207827D01*
X243040297Y-92009819D01*
X242840809Y-91798606D01*
X242605000Y-91573226D01*
X242577347Y-91547810D01*
X242493802Y-91469187D01*
X242438074Y-91412799D01*
X242407882Y-91375972D01*
X242400951Y-91356034D01*
X242415000Y-91350312D01*
X242432703Y-91360032D01*
X242475917Y-91390079D01*
X242537308Y-91435575D01*
X242610000Y-91491538D01*
X242899464Y-91725858D01*
X243182327Y-91972651D01*
X243434124Y-92212441D01*
X243653963Y-92444165D01*
X243840956Y-92666757D01*
X243994212Y-92879154D01*
X244112841Y-93080289D01*
X244195953Y-93269099D01*
X244242658Y-93444519D01*
X244251467Y-93520376D01*
X244243172Y-93656213D01*
X244200352Y-93772057D01*
X244122839Y-93868156D01*
X244010466Y-93944753D01*
X243863066Y-94002094D01*
X243796245Y-94015475D01*
X243682124Y-94024762D01*
X243544414Y-94025519D01*
X243391731Y-94018205D01*
X243232690Y-94003278D01*
X243075908Y-93981197D01*
X242930000Y-93952421D01*
X242707780Y-93895702D01*
X242304990Y-93768841D01*
X241886703Y-93607713D01*
X241454705Y-93413148D01*
X241010782Y-93185972D01*
X240556719Y-92927015D01*
X240094302Y-92637105D01*
X240044611Y-92604360D01*
X239732869Y-92389126D01*
X239433712Y-92165859D01*
X239150201Y-91937436D01*
X238885400Y-91706737D01*
X238642369Y-91476642D01*
X238424171Y-91250030D01*
X238233868Y-91029780D01*
X238074522Y-90818772D01*
X237949194Y-90619886D01*
X237917821Y-90559585D01*
X237862201Y-90433386D01*
X237812359Y-90297462D01*
X237773414Y-90166375D01*
X237750486Y-90054687D01*
X237744951Y-89974984D01*
X237762899Y-89840671D01*
X237815652Y-89723597D01*
X237901496Y-89626959D01*
X238018719Y-89553956D01*
X238070336Y-89532599D01*
X238123703Y-89516973D01*
X238186255Y-89506715D01*
X238268264Y-89500168D01*
X238380000Y-89495673D01*
X238481889Y-89494637D01*
X238595410Y-89497992D01*
G37*
G36*
X252048672Y-102462357D02*
G01*
X252075417Y-102526250D01*
X252090664Y-102568934D01*
X252110014Y-102597678D01*
X252142546Y-102608402D01*
X252201667Y-102610000D01*
X252214852Y-102610134D01*
X252275591Y-102617241D01*
X252297930Y-102635419D01*
X252281967Y-102665036D01*
X252227803Y-102706462D01*
X252191574Y-102732486D01*
X252167737Y-102763043D01*
X252168829Y-102796462D01*
X252180919Y-102844644D01*
X252193396Y-102905000D01*
X252197708Y-102948931D01*
X252186526Y-102965845D01*
X252155477Y-102953266D01*
X252100695Y-102911463D01*
X252031390Y-102854002D01*
X251944290Y-102913929D01*
X251909704Y-102936287D01*
X251867356Y-102958780D01*
X251846346Y-102963011D01*
X251844667Y-102952610D01*
X251851627Y-102912834D01*
X251868495Y-102856083D01*
X251881263Y-102817783D01*
X251891187Y-102777079D01*
X251886956Y-102755052D01*
X251868578Y-102740000D01*
X251855201Y-102731675D01*
X251797320Y-102690802D01*
X251755860Y-102653774D01*
X251740000Y-102628548D01*
X251749041Y-102621127D01*
X251788128Y-102613113D01*
X251847626Y-102610000D01*
X251955252Y-102610000D01*
X251978279Y-102518550D01*
X251980507Y-102509974D01*
X252001513Y-102454243D01*
X252024136Y-102438363D01*
X252048672Y-102462357D01*
G37*
G36*
X252048645Y-101082343D02*
G01*
X252075417Y-101146250D01*
X252090664Y-101188934D01*
X252110014Y-101217678D01*
X252142546Y-101228402D01*
X252201667Y-101230000D01*
X252215290Y-101230140D01*
X252275746Y-101237224D01*
X252297926Y-101255528D01*
X252282025Y-101285775D01*
X252228238Y-101328692D01*
X252185750Y-101361415D01*
X252166832Y-101391774D01*
X252169587Y-101428692D01*
X252179873Y-101472117D01*
X252193482Y-101535000D01*
X252197892Y-101567932D01*
X252189621Y-101586546D01*
X252161219Y-101577148D01*
X252108223Y-101540000D01*
X252102294Y-101535481D01*
X252056995Y-101503658D01*
X252023691Y-101493999D01*
X251987387Y-101506654D01*
X251933088Y-101541777D01*
X251909060Y-101557225D01*
X251867440Y-101579065D01*
X251846196Y-101582861D01*
X251844432Y-101573962D01*
X251850619Y-101535698D01*
X251866826Y-101480235D01*
X251898151Y-101388302D01*
X251819896Y-101334151D01*
X251794945Y-101315595D01*
X251758988Y-101282086D01*
X251747393Y-101260000D01*
X251756284Y-101252401D01*
X251795606Y-101241035D01*
X251854443Y-101234028D01*
X251955741Y-101228057D01*
X251978524Y-101137579D01*
X251980500Y-101129949D01*
X252001439Y-101074216D01*
X252024069Y-101058340D01*
X252048645Y-101082343D01*
G37*
G36*
X254012501Y-102440284D02*
G01*
X254036678Y-102488223D01*
X254067498Y-102575000D01*
X254080503Y-102594379D01*
X254114998Y-102606600D01*
X254179373Y-102610000D01*
X254215971Y-102611368D01*
X254262006Y-102618567D01*
X254280000Y-102629874D01*
X254276440Y-102638509D01*
X254249475Y-102668179D01*
X254204713Y-102704874D01*
X254172168Y-102729345D01*
X254144957Y-102757360D01*
X254140729Y-102786097D01*
X254153585Y-102830000D01*
X254155841Y-102836676D01*
X254171748Y-102892955D01*
X254178872Y-102935000D01*
X254178224Y-102954847D01*
X254168412Y-102967317D01*
X254141868Y-102956092D01*
X254091778Y-102920000D01*
X254051012Y-102891203D01*
X254005819Y-102873605D01*
X253962368Y-102883822D01*
X253905575Y-102922019D01*
X253887099Y-102935482D01*
X253847753Y-102959308D01*
X253827466Y-102964131D01*
X253825791Y-102954322D01*
X253831376Y-102914806D01*
X253845701Y-102857708D01*
X253873844Y-102761192D01*
X253796922Y-102705470D01*
X253772677Y-102686944D01*
X253734893Y-102652809D01*
X253720000Y-102630919D01*
X253727734Y-102623342D01*
X253765251Y-102612728D01*
X253823428Y-102606045D01*
X253879360Y-102601662D01*
X253915724Y-102590745D01*
X253936648Y-102564845D01*
X253955095Y-102515000D01*
X253963902Y-102490525D01*
X253983979Y-102447168D01*
X253999241Y-102430000D01*
X254012501Y-102440284D01*
G37*
G36*
X254599699Y-98916107D02*
G01*
X254810956Y-98955982D01*
X255011060Y-99030880D01*
X255194074Y-99138324D01*
X255354060Y-99275832D01*
X255384347Y-99308053D01*
X255451598Y-99385077D01*
X255510183Y-99459057D01*
X255550062Y-99517608D01*
X255611130Y-99637266D01*
X255680519Y-99841434D01*
X255712668Y-100053362D01*
X255707443Y-100268479D01*
X255664710Y-100482215D01*
X255584337Y-100690000D01*
X255578284Y-100702163D01*
X255476295Y-100862921D01*
X255342926Y-101010573D01*
X255185723Y-101138890D01*
X255012232Y-101241644D01*
X254830000Y-101312607D01*
X254803586Y-101319924D01*
X254678138Y-101344276D01*
X254576841Y-101343309D01*
X254494007Y-101317097D01*
X254449047Y-101293256D01*
X254332180Y-101226506D01*
X254199469Y-101145507D01*
X254057212Y-101054557D01*
X253911712Y-100957956D01*
X253769268Y-100860003D01*
X253636180Y-100764995D01*
X253518750Y-100677233D01*
X253423277Y-100601016D01*
X253356062Y-100540642D01*
X253309728Y-100473070D01*
X253278484Y-100374309D01*
X253263498Y-100243524D01*
X253264280Y-100078244D01*
X253276999Y-99934886D01*
X253308890Y-99784812D01*
X253363450Y-99640638D01*
X253445284Y-99487333D01*
X253449823Y-99479788D01*
X253569019Y-99320667D01*
X253717651Y-99182415D01*
X253889289Y-99068626D01*
X254077501Y-98982897D01*
X254275857Y-98928823D01*
X254477925Y-98910000D01*
X254599699Y-98916107D01*
G37*
G36*
X252595410Y-98497992D02*
G01*
X252701384Y-98505394D01*
X252793321Y-98516069D01*
X252864729Y-98529243D01*
X252909119Y-98544145D01*
X252920000Y-98560000D01*
X252912438Y-98568356D01*
X252880000Y-98575108D01*
X252814402Y-98566194D01*
X252684818Y-98556547D01*
X252553706Y-98555347D01*
X252434625Y-98562521D01*
X252341131Y-98577996D01*
X252231685Y-98615398D01*
X252127381Y-98679406D01*
X252057769Y-98763051D01*
X252022816Y-98866446D01*
X252022487Y-98989704D01*
X252056749Y-99132940D01*
X252125568Y-99296267D01*
X252179960Y-99397445D01*
X252309926Y-99596875D01*
X252475208Y-99806182D01*
X252676330Y-100025922D01*
X252913820Y-100256653D01*
X253188201Y-100498932D01*
X253500000Y-100753316D01*
X253752036Y-100941082D01*
X254049782Y-101140981D01*
X254368542Y-101335406D01*
X254701487Y-101520896D01*
X255041790Y-101693988D01*
X255382621Y-101851221D01*
X255717153Y-101989132D01*
X256038555Y-102104260D01*
X256340000Y-102193143D01*
X256351047Y-102195956D01*
X256507481Y-102228960D01*
X256671876Y-102252546D01*
X256835008Y-102266201D01*
X256987653Y-102269410D01*
X257120585Y-102261660D01*
X257224579Y-102242436D01*
X257331050Y-102198861D01*
X257425277Y-102126443D01*
X257486593Y-102032965D01*
X257513399Y-101920997D01*
X257504098Y-101793109D01*
X257489231Y-101732241D01*
X257427932Y-101568076D01*
X257333150Y-101393592D01*
X257204174Y-101207827D01*
X257040297Y-101009819D01*
X256840809Y-100798606D01*
X256605000Y-100573226D01*
X256577347Y-100547810D01*
X256493802Y-100469187D01*
X256438074Y-100412799D01*
X256407882Y-100375972D01*
X256400951Y-100356034D01*
X256415000Y-100350312D01*
X256432703Y-100360032D01*
X256475917Y-100390079D01*
X256537308Y-100435575D01*
X256610000Y-100491538D01*
X256899464Y-100725858D01*
X257182327Y-100972651D01*
X257434124Y-101212441D01*
X257653963Y-101444165D01*
X257840956Y-101666757D01*
X257994212Y-101879154D01*
X258112841Y-102080289D01*
X258195953Y-102269099D01*
X258242658Y-102444519D01*
X258251467Y-102520376D01*
X258243172Y-102656213D01*
X258200352Y-102772057D01*
X258122839Y-102868156D01*
X258010466Y-102944753D01*
X257863066Y-103002094D01*
X257796245Y-103015475D01*
X257682124Y-103024762D01*
X257544414Y-103025519D01*
X257391731Y-103018205D01*
X257232690Y-103003278D01*
X257075908Y-102981197D01*
X256930000Y-102952421D01*
X256707780Y-102895702D01*
X256304990Y-102768841D01*
X255886703Y-102607713D01*
X255454705Y-102413148D01*
X255010782Y-102185972D01*
X254556719Y-101927015D01*
X254094302Y-101637105D01*
X254044611Y-101604360D01*
X253732869Y-101389126D01*
X253433712Y-101165859D01*
X253150201Y-100937436D01*
X252885400Y-100706737D01*
X252642369Y-100476642D01*
X252424171Y-100250030D01*
X252233868Y-100029780D01*
X252074522Y-99818772D01*
X251949194Y-99619886D01*
X251917821Y-99559585D01*
X251862201Y-99433386D01*
X251812359Y-99297462D01*
X251773414Y-99166375D01*
X251750486Y-99054687D01*
X251744951Y-98974984D01*
X251762899Y-98840671D01*
X251815652Y-98723597D01*
X251901496Y-98626959D01*
X252018719Y-98553956D01*
X252070336Y-98532599D01*
X252123703Y-98516973D01*
X252186255Y-98506715D01*
X252268264Y-98500168D01*
X252380000Y-98495673D01*
X252481889Y-98494637D01*
X252595410Y-98497992D01*
G37*
G36*
X210364251Y-103937179D02*
G01*
X210385677Y-103941362D01*
X210537305Y-103983443D01*
X210679348Y-104046181D01*
X210814229Y-104130835D01*
X210944372Y-104238667D01*
X211009351Y-104304048D01*
X211110161Y-104430817D01*
X211191873Y-104571314D01*
X211254940Y-104726541D01*
X211299815Y-104897502D01*
X211326951Y-105085197D01*
X211331343Y-105141524D01*
X211332961Y-105327308D01*
X211314965Y-105505745D01*
X211278293Y-105675330D01*
X211223882Y-105834559D01*
X211152669Y-105981929D01*
X211065592Y-106115934D01*
X210963587Y-106235070D01*
X210847592Y-106337834D01*
X210718544Y-106422721D01*
X210577380Y-106488227D01*
X210425037Y-106532848D01*
X210379317Y-106541534D01*
X210329361Y-106547932D01*
X210273492Y-106551415D01*
X210205365Y-106552363D01*
X210118636Y-106551153D01*
X210046507Y-106548898D01*
X209953869Y-106542697D01*
X209873049Y-106531629D01*
X209797452Y-106514047D01*
X209720484Y-106488308D01*
X209635551Y-106452764D01*
X209536058Y-106405770D01*
X209353678Y-106316619D01*
X209496864Y-106086833D01*
X209640049Y-105857047D01*
X209710510Y-105918678D01*
X209759258Y-105957676D01*
X209860170Y-106018318D01*
X209965333Y-106057451D01*
X210072100Y-106075036D01*
X210177826Y-106071037D01*
X210279866Y-106045418D01*
X210375576Y-105998141D01*
X210462310Y-105929169D01*
X210522016Y-105857265D01*
X210575927Y-105764864D01*
X210620017Y-105658580D01*
X210651751Y-105543575D01*
X210663552Y-105468328D01*
X210671450Y-105371461D01*
X210674375Y-105265245D01*
X210672458Y-105156383D01*
X210665827Y-105051580D01*
X210654612Y-104957539D01*
X210638944Y-104880966D01*
X210626976Y-104839815D01*
X210578418Y-104713246D01*
X210517932Y-104607696D01*
X210445737Y-104523383D01*
X210362052Y-104460530D01*
X210267095Y-104419355D01*
X210161087Y-104400080D01*
X210047228Y-104401265D01*
X209937894Y-104423922D01*
X209839700Y-104468388D01*
X209753093Y-104534517D01*
X209728799Y-104556348D01*
X209705303Y-104574189D01*
X209693702Y-104578564D01*
X209692349Y-104576915D01*
X209679584Y-104559494D01*
X209655571Y-104525868D01*
X209622486Y-104479106D01*
X209582502Y-104422280D01*
X209537796Y-104358459D01*
X209388392Y-104144735D01*
X209428354Y-104131082D01*
X209441634Y-104126031D01*
X209479286Y-104109878D01*
X209528092Y-104087543D01*
X209580871Y-104062268D01*
X209719298Y-104001819D01*
X209882668Y-103950629D01*
X210043572Y-103922959D01*
X210203578Y-103918559D01*
X210364251Y-103937179D01*
G37*
G36*
X207413732Y-105692581D02*
G01*
X207407074Y-105810177D01*
X207392130Y-105911691D01*
X207355941Y-106041928D01*
X207299646Y-106170705D01*
X207227143Y-106283380D01*
X207139593Y-106378712D01*
X207038155Y-106455457D01*
X206923988Y-106512373D01*
X206798252Y-106548217D01*
X206783681Y-106549742D01*
X206745476Y-106551047D01*
X206693829Y-106551106D01*
X206635672Y-106549851D01*
X206528089Y-106541187D01*
X206434851Y-106521124D01*
X206349693Y-106487396D01*
X206264991Y-106437699D01*
X206185450Y-106384270D01*
X206185450Y-106451676D01*
X206185450Y-106519082D01*
X205860036Y-106519082D01*
X205534622Y-106519082D01*
X205558750Y-106472679D01*
X205561593Y-106467143D01*
X205569375Y-106450786D01*
X205576280Y-106433276D01*
X205582359Y-106413150D01*
X205587665Y-106388948D01*
X205592252Y-106359206D01*
X205596170Y-106322465D01*
X205599472Y-106277261D01*
X205602212Y-106222134D01*
X205604440Y-106155621D01*
X205606210Y-106076260D01*
X205607574Y-105982591D01*
X205608585Y-105873151D01*
X205608923Y-105812847D01*
X206223946Y-105812847D01*
X206224585Y-105878394D01*
X206226832Y-105928479D01*
X206231223Y-105965639D01*
X206238296Y-105992414D01*
X206248588Y-106011339D01*
X206262634Y-106024952D01*
X206280972Y-106035791D01*
X206304139Y-106046394D01*
X206332672Y-106059297D01*
X206391817Y-106081726D01*
X206469730Y-106096687D01*
X206543775Y-106095889D01*
X206606761Y-106078820D01*
X206627890Y-106067258D01*
X206679946Y-106022409D01*
X206723937Y-105960856D01*
X206755484Y-105888210D01*
X206770248Y-105823837D01*
X206780493Y-105734335D01*
X206784027Y-105633548D01*
X206781057Y-105527985D01*
X206771790Y-105424153D01*
X206756432Y-105328560D01*
X206735189Y-105247716D01*
X206720728Y-105210624D01*
X206675898Y-105135820D01*
X206618212Y-105081225D01*
X206549648Y-105047599D01*
X206472187Y-105035703D01*
X206387810Y-105046295D01*
X206298496Y-105080136D01*
X206229222Y-105114893D01*
X206225935Y-105554772D01*
X206225344Y-105625220D01*
X206224378Y-105729302D01*
X206223946Y-105812847D01*
X205608923Y-105812847D01*
X205609294Y-105746478D01*
X205609755Y-105601112D01*
X205610019Y-105435589D01*
X205610139Y-105248449D01*
X205610167Y-105038230D01*
X205610167Y-103795024D01*
X205954264Y-103795024D01*
X206298360Y-103795024D01*
X206263791Y-103846245D01*
X206229222Y-103897466D01*
X206222969Y-104318671D01*
X206221824Y-104399118D01*
X206220641Y-104491557D01*
X206219738Y-104573475D01*
X206219140Y-104642068D01*
X206218869Y-104694533D01*
X206218951Y-104728067D01*
X206219408Y-104739866D01*
X206225971Y-104736477D01*
X206248614Y-104723087D01*
X206281328Y-104703002D01*
X206302396Y-104690464D01*
X206415424Y-104639705D01*
X206537178Y-104609494D01*
X206663459Y-104599876D01*
X206790067Y-104610895D01*
X206912804Y-104642597D01*
X207027469Y-104695026D01*
X207102905Y-104749858D01*
X207176567Y-104825855D01*
X207243809Y-104917841D01*
X207301482Y-105021500D01*
X207346438Y-105132512D01*
X207365623Y-105199948D01*
X207388049Y-105312586D01*
X207403813Y-105436857D01*
X207412509Y-105565831D01*
X207413162Y-105633548D01*
X207413732Y-105692581D01*
G37*
G36*
X209356027Y-105984140D02*
G01*
X209350513Y-106027722D01*
X209320297Y-106150648D01*
X209270238Y-106258818D01*
X209200870Y-106351613D01*
X209112727Y-106428416D01*
X209006343Y-106488611D01*
X208882252Y-106531581D01*
X208864357Y-106535946D01*
X208740374Y-106553958D01*
X208616376Y-106551951D01*
X208496870Y-106530672D01*
X208386362Y-106490868D01*
X208289357Y-106433286D01*
X208255948Y-106408948D01*
X208229698Y-106390974D01*
X208217447Y-106384107D01*
X208214980Y-106390113D01*
X208212434Y-106414626D01*
X208211447Y-106451594D01*
X208211447Y-106519082D01*
X207892540Y-106519082D01*
X207817209Y-106518952D01*
X207738364Y-106518507D01*
X207671268Y-106517790D01*
X207619237Y-106516851D01*
X207585587Y-106515735D01*
X207573633Y-106514493D01*
X207576730Y-106507207D01*
X207589222Y-106483535D01*
X207608025Y-106450072D01*
X207642417Y-106390242D01*
X207646864Y-105995204D01*
X208248165Y-105995204D01*
X208308056Y-106051843D01*
X208332371Y-106072904D01*
X208378411Y-106104685D01*
X208419336Y-106123589D01*
X208426438Y-106125522D01*
X208473431Y-106133624D01*
X208526799Y-106137320D01*
X208576288Y-106136261D01*
X208611644Y-106130101D01*
X208620601Y-106126838D01*
X208690575Y-106092904D01*
X208738275Y-106050740D01*
X208765544Y-105998109D01*
X208774224Y-105932774D01*
X208774103Y-105923359D01*
X208764058Y-105856830D01*
X208736211Y-105802826D01*
X208688220Y-105758155D01*
X208617741Y-105719626D01*
X208591938Y-105709223D01*
X208560497Y-105700403D01*
X208523151Y-105695059D01*
X208473538Y-105692345D01*
X208405293Y-105691418D01*
X208255219Y-105690822D01*
X208251692Y-105843013D01*
X208248165Y-105995204D01*
X207646864Y-105995204D01*
X207649531Y-105758309D01*
X207650795Y-105647826D01*
X207652450Y-105517404D01*
X207654224Y-105407493D01*
X207656325Y-105315768D01*
X207658962Y-105239911D01*
X207662343Y-105177598D01*
X207666678Y-105126508D01*
X207672175Y-105084320D01*
X207679043Y-105048713D01*
X207687490Y-105017365D01*
X207697726Y-104987954D01*
X207709959Y-104958159D01*
X207724398Y-104925659D01*
X207757641Y-104864642D01*
X207825041Y-104783379D01*
X207912255Y-104716670D01*
X208018943Y-104664707D01*
X208144767Y-104627681D01*
X208289388Y-104605784D01*
X208351389Y-104601333D01*
X208439446Y-104600095D01*
X208530425Y-104605462D01*
X208629438Y-104617966D01*
X208741600Y-104638139D01*
X208872022Y-104666516D01*
X208936639Y-104681398D01*
X209003349Y-104696638D01*
X209059118Y-104709244D01*
X209099479Y-104718208D01*
X209119967Y-104722521D01*
X209125693Y-104723807D01*
X209132971Y-104728296D01*
X209134962Y-104738361D01*
X209130759Y-104757401D01*
X209119453Y-104788815D01*
X209100136Y-104835999D01*
X209071899Y-104902353D01*
X209058529Y-104933608D01*
X209032838Y-104993827D01*
X209010891Y-105045483D01*
X208994674Y-105083890D01*
X208986177Y-105104365D01*
X208975359Y-105131435D01*
X208891592Y-105094168D01*
X208881808Y-105089885D01*
X208787302Y-105054883D01*
X208690550Y-105029336D01*
X208596330Y-105013811D01*
X208509421Y-105008876D01*
X208434604Y-105015097D01*
X208376656Y-105033042D01*
X208343199Y-105053038D01*
X208292014Y-105103883D01*
X208260678Y-105169424D01*
X208249531Y-105249082D01*
X208248998Y-105298165D01*
X208458460Y-105299573D01*
X208506187Y-105300093D01*
X208593525Y-105302629D01*
X208665893Y-105307559D01*
X208730104Y-105315441D01*
X208792974Y-105326827D01*
X208915833Y-105360265D01*
X209036526Y-105412315D01*
X209139783Y-105478863D01*
X209224502Y-105558625D01*
X209289586Y-105650317D01*
X209333935Y-105752656D01*
X209356448Y-105864358D01*
X209356208Y-105932774D01*
X209356027Y-105984140D01*
G37*
G36*
X215114845Y-106842670D02*
G01*
X215087652Y-106871069D01*
X215060460Y-106899469D01*
X213319417Y-106899469D01*
X213101430Y-106899463D01*
X212879226Y-106899434D01*
X212679682Y-106899364D01*
X212501554Y-106899237D01*
X212343597Y-106899036D01*
X212204569Y-106898746D01*
X212083223Y-106898350D01*
X211978318Y-106897830D01*
X211888607Y-106897171D01*
X211812847Y-106896356D01*
X211749795Y-106895370D01*
X211698205Y-106894194D01*
X211656834Y-106892813D01*
X211624437Y-106891210D01*
X211599771Y-106889369D01*
X211581591Y-106887273D01*
X211568653Y-106884906D01*
X211559713Y-106882251D01*
X211553526Y-106879293D01*
X211548849Y-106876013D01*
X211519325Y-106852557D01*
X211518612Y-106519263D01*
X211726865Y-106519263D01*
X211730412Y-106519357D01*
X211756398Y-106519724D01*
X211801380Y-106520163D01*
X211861691Y-106520653D01*
X211933662Y-106521171D01*
X212013628Y-106521698D01*
X212097920Y-106522213D01*
X212182871Y-106522693D01*
X212264815Y-106523119D01*
X212340083Y-106523470D01*
X212405009Y-106523724D01*
X212455925Y-106523860D01*
X212489164Y-106523858D01*
X212501058Y-106523696D01*
X212497890Y-106517548D01*
X212485399Y-106495178D01*
X212466666Y-106462343D01*
X212432274Y-106402512D01*
X212428496Y-105617198D01*
X212428349Y-105585363D01*
X212427864Y-105448463D01*
X212427632Y-105318213D01*
X212427645Y-105196849D01*
X212427890Y-105086608D01*
X212428360Y-104989726D01*
X212429042Y-104908438D01*
X212429928Y-104844982D01*
X212431008Y-104801594D01*
X212432270Y-104780510D01*
X212433602Y-104773010D01*
X212448395Y-104726819D01*
X212470441Y-104684869D01*
X212478587Y-104672881D01*
X212494667Y-104647584D01*
X212501058Y-104634817D01*
X212500876Y-104634631D01*
X212486092Y-104633280D01*
X212449859Y-104632283D01*
X212395357Y-104631663D01*
X212325764Y-104631443D01*
X212244256Y-104631646D01*
X212154012Y-104632294D01*
X211806967Y-104635556D01*
X211800714Y-105525169D01*
X211800389Y-105571514D01*
X211799218Y-105736678D01*
X211798114Y-105879499D01*
X211796968Y-106001722D01*
X211795674Y-106105094D01*
X211794124Y-106191363D01*
X211792210Y-106262274D01*
X211789825Y-106319575D01*
X211786861Y-106365013D01*
X211783212Y-106400333D01*
X211778768Y-106427282D01*
X211773425Y-106447608D01*
X211767072Y-106463057D01*
X211759604Y-106475376D01*
X211750913Y-106486311D01*
X211740891Y-106497609D01*
X211729845Y-106511407D01*
X211726865Y-106519263D01*
X211518612Y-106519263D01*
X211515851Y-105228694D01*
X211515711Y-105160449D01*
X211515376Y-104964451D01*
X211515152Y-104775473D01*
X211515035Y-104594973D01*
X211515022Y-104424412D01*
X211515111Y-104265251D01*
X211515298Y-104118950D01*
X211515581Y-103986968D01*
X211515686Y-103954541D01*
X212634873Y-103954541D01*
X212683648Y-103989404D01*
X212693853Y-103996935D01*
X212720188Y-104018442D01*
X212750122Y-104045950D01*
X212784966Y-104080942D01*
X212826031Y-104124900D01*
X212874627Y-104179307D01*
X212932065Y-104245644D01*
X212999654Y-104325394D01*
X213078706Y-104420040D01*
X213170531Y-104531063D01*
X213276440Y-104659946D01*
X213281667Y-104666323D01*
X213357725Y-104759141D01*
X213429203Y-104846441D01*
X213494512Y-104926282D01*
X213552068Y-104996721D01*
X213600284Y-105055815D01*
X213637573Y-105101621D01*
X213662349Y-105132196D01*
X213673026Y-105145599D01*
X213674673Y-105151067D01*
X213672436Y-105161846D01*
X213664705Y-105178770D01*
X213650442Y-105203349D01*
X213628606Y-105237096D01*
X213598160Y-105281523D01*
X213558062Y-105338140D01*
X213507275Y-105408461D01*
X213444759Y-105493997D01*
X213369475Y-105596259D01*
X213280382Y-105716759D01*
X213259683Y-105744704D01*
X213150698Y-105891353D01*
X213055033Y-106019142D01*
X212971840Y-106129142D01*
X212900269Y-106222427D01*
X212839473Y-106300067D01*
X212788601Y-106363137D01*
X212746806Y-106412706D01*
X212713239Y-106449849D01*
X212687051Y-106475636D01*
X212667394Y-106491140D01*
X212647911Y-106505736D01*
X212638621Y-106517426D01*
X212649999Y-106519080D01*
X212683667Y-106520476D01*
X212736845Y-106521535D01*
X212806741Y-106522229D01*
X212890566Y-106522532D01*
X212985530Y-106522414D01*
X213088842Y-106521850D01*
X213539069Y-106518481D01*
X213539069Y-106453018D01*
X213539264Y-106441800D01*
X213541784Y-106414806D01*
X213548211Y-106386718D01*
X213559790Y-106355485D01*
X213577770Y-106319059D01*
X213603399Y-106275391D01*
X213637923Y-106222430D01*
X213682590Y-106158127D01*
X213738649Y-106080434D01*
X213807346Y-105987300D01*
X213889930Y-105876677D01*
X214164377Y-105510358D01*
X214164377Y-105890340D01*
X214164377Y-105891937D01*
X214164056Y-106014703D01*
X214162915Y-106115860D01*
X214160669Y-106198301D01*
X214157034Y-106264921D01*
X214151722Y-106318610D01*
X214144451Y-106362263D01*
X214134933Y-106398772D01*
X214122885Y-106431030D01*
X214108020Y-106461930D01*
X214095451Y-106486042D01*
X214082040Y-106512296D01*
X214076834Y-106523282D01*
X214081582Y-106523577D01*
X214088602Y-106523696D01*
X214107714Y-106524020D01*
X214154090Y-106524414D01*
X214217771Y-106524745D01*
X214295822Y-106524998D01*
X214385305Y-106525160D01*
X214483284Y-106525218D01*
X214486578Y-106525218D01*
X214604475Y-106524975D01*
X214699233Y-106524227D01*
X214772674Y-106522908D01*
X214826622Y-106520951D01*
X214862899Y-106518292D01*
X214883329Y-106514865D01*
X214889734Y-106510604D01*
X214889257Y-106506352D01*
X214877049Y-106488298D01*
X214871947Y-106483613D01*
X214855578Y-106461390D01*
X214836404Y-106429289D01*
X214808444Y-106377971D01*
X214808444Y-105236812D01*
X214808444Y-104095652D01*
X214836404Y-104044335D01*
X214845383Y-104028577D01*
X214863948Y-104000081D01*
X214877049Y-103985326D01*
X214885101Y-103979602D01*
X214888710Y-103972499D01*
X214880787Y-103966832D01*
X214859409Y-103962449D01*
X214822649Y-103959201D01*
X214768582Y-103956936D01*
X214695283Y-103955505D01*
X214600825Y-103954757D01*
X214483284Y-103954541D01*
X214423074Y-103954658D01*
X214329312Y-103955338D01*
X214246122Y-103956558D01*
X214176390Y-103958242D01*
X214123007Y-103960313D01*
X214088858Y-103962694D01*
X214076834Y-103965309D01*
X214079472Y-103973075D01*
X214094681Y-103990611D01*
X214101519Y-103998248D01*
X214118173Y-104026032D01*
X214134584Y-104062669D01*
X214135915Y-104066234D01*
X214141961Y-104085992D01*
X214146847Y-104110361D01*
X214150744Y-104142189D01*
X214153820Y-104184322D01*
X214156244Y-104239607D01*
X214158185Y-104310892D01*
X214159811Y-104401025D01*
X214161293Y-104512851D01*
X214161976Y-104572805D01*
X214162876Y-104669974D01*
X214163176Y-104746064D01*
X214162793Y-104803346D01*
X214161646Y-104844090D01*
X214159651Y-104870567D01*
X214156726Y-104885047D01*
X214152791Y-104889802D01*
X214147762Y-104887102D01*
X214139001Y-104877015D01*
X214115849Y-104849093D01*
X214080735Y-104806160D01*
X214035567Y-104750563D01*
X213982249Y-104684649D01*
X213922688Y-104610764D01*
X213858789Y-104531256D01*
X213771956Y-104422232D01*
X213699791Y-104329591D01*
X213641483Y-104251955D01*
X213595849Y-104187480D01*
X213561704Y-104134325D01*
X213537867Y-104090648D01*
X213523153Y-104054604D01*
X213516380Y-104024352D01*
X213516364Y-103998050D01*
X213521540Y-103954541D01*
X213078207Y-103954541D01*
X212634873Y-103954541D01*
X211515686Y-103954541D01*
X211515957Y-103870766D01*
X211516423Y-103771805D01*
X211516976Y-103691543D01*
X211517614Y-103631442D01*
X211518332Y-103592962D01*
X211519129Y-103577562D01*
X211532924Y-103544524D01*
X211561322Y-103518922D01*
X211606449Y-103504839D01*
X211671757Y-103500532D01*
X211763195Y-103500532D01*
X211763195Y-103559657D01*
X211763545Y-103578225D01*
X211777156Y-103666928D01*
X211811730Y-103744363D01*
X211868889Y-103814433D01*
X211871195Y-103816689D01*
X211916473Y-103856494D01*
X211958610Y-103882207D01*
X212007650Y-103900019D01*
X212036191Y-103907082D01*
X212129285Y-103915412D01*
X212217643Y-103901902D01*
X212298009Y-103868260D01*
X212367126Y-103816194D01*
X212421737Y-103747410D01*
X212458586Y-103663615D01*
X212464745Y-103639409D01*
X212472401Y-103589072D01*
X212472390Y-103547860D01*
X212465920Y-103500532D01*
X213757430Y-103500532D01*
X213874359Y-103500533D01*
X214069141Y-103500551D01*
X214241168Y-103500614D01*
X214391896Y-103500749D01*
X214522782Y-103500986D01*
X214635285Y-103501351D01*
X214730861Y-103501873D01*
X214810969Y-103502580D01*
X214877065Y-103503499D01*
X214930607Y-103504659D01*
X214973053Y-103506088D01*
X215005859Y-103507813D01*
X215030484Y-103509864D01*
X215048384Y-103512266D01*
X215061018Y-103515050D01*
X215069842Y-103518242D01*
X215076315Y-103521870D01*
X215081893Y-103525963D01*
X215114845Y-103551395D01*
X215114845Y-105197032D01*
X215114845Y-106510604D01*
X215114845Y-106842670D01*
G37*
%TD*%
M02*
