%TF.GenerationSoftware,KiCad,Pcbnew,7.0.8*%
%TF.CreationDate,2023-12-06T00:15:51+05:30*%
%TF.ProjectId,PD Board,50442042-6f61-4726-942e-6b696361645f,V04*%
%TF.SameCoordinates,Original*%
%TF.FileFunction,Paste,Top*%
%TF.FilePolarity,Positive*%
%FSLAX46Y46*%
G04 Gerber Fmt 4.6, Leading zero omitted, Abs format (unit mm)*
G04 Created by KiCad (PCBNEW 7.0.8) date 2023-12-06 00:15:51*
%MOMM*%
%LPD*%
G01*
G04 APERTURE LIST*
G04 Aperture macros list*
%AMRoundRect*
0 Rectangle with rounded corners*
0 $1 Rounding radius*
0 $2 $3 $4 $5 $6 $7 $8 $9 X,Y pos of 4 corners*
0 Add a 4 corners polygon primitive as box body*
4,1,4,$2,$3,$4,$5,$6,$7,$8,$9,$2,$3,0*
0 Add four circle primitives for the rounded corners*
1,1,$1+$1,$2,$3*
1,1,$1+$1,$4,$5*
1,1,$1+$1,$6,$7*
1,1,$1+$1,$8,$9*
0 Add four rect primitives between the rounded corners*
20,1,$1+$1,$2,$3,$4,$5,0*
20,1,$1+$1,$4,$5,$6,$7,0*
20,1,$1+$1,$6,$7,$8,$9,0*
20,1,$1+$1,$8,$9,$2,$3,0*%
G04 Aperture macros list end*
%ADD10C,0.010000*%
%ADD11RoundRect,0.250000X-0.312500X-0.625000X0.312500X-0.625000X0.312500X0.625000X-0.312500X0.625000X0*%
%ADD12R,2.950000X3.500000*%
%ADD13R,1.500000X2.000000*%
%ADD14R,3.800000X2.000000*%
%ADD15RoundRect,0.250000X0.475000X-0.250000X0.475000X0.250000X-0.475000X0.250000X-0.475000X-0.250000X0*%
%ADD16RoundRect,0.250000X-1.500000X-0.550000X1.500000X-0.550000X1.500000X0.550000X-1.500000X0.550000X0*%
%ADD17RoundRect,0.250000X1.000000X-1.400000X1.000000X1.400000X-1.000000X1.400000X-1.000000X-1.400000X0*%
%ADD18RoundRect,0.250000X-0.250000X-0.475000X0.250000X-0.475000X0.250000X0.475000X-0.250000X0.475000X0*%
%ADD19RoundRect,0.250000X0.250000X0.475000X-0.250000X0.475000X-0.250000X-0.475000X0.250000X-0.475000X0*%
%ADD20RoundRect,0.250000X0.625000X-0.312500X0.625000X0.312500X-0.625000X0.312500X-0.625000X-0.312500X0*%
%ADD21R,2.000000X1.500000*%
%ADD22R,2.000000X3.800000*%
G04 APERTURE END LIST*
%TO.C,U2*%
D10*
X206250000Y-90250000D02*
X205350000Y-90250000D01*
X205350000Y-86950000D01*
X206250000Y-86950000D01*
X206250000Y-90250000D01*
G36*
X206250000Y-90250000D02*
G01*
X205350000Y-90250000D01*
X205350000Y-86950000D01*
X206250000Y-86950000D01*
X206250000Y-90250000D01*
G37*
X207950000Y-90250000D02*
X207050000Y-90250000D01*
X207050000Y-86950000D01*
X207950000Y-86950000D01*
X207950000Y-90250000D01*
G36*
X207950000Y-90250000D02*
G01*
X207050000Y-90250000D01*
X207050000Y-86950000D01*
X207950000Y-86950000D01*
X207950000Y-90250000D01*
G37*
X209650000Y-90250000D02*
X208750000Y-90250000D01*
X208750000Y-86950000D01*
X209650000Y-86950000D01*
X209650000Y-90250000D01*
G36*
X209650000Y-90250000D02*
G01*
X208750000Y-90250000D01*
X208750000Y-86950000D01*
X209650000Y-86950000D01*
X209650000Y-90250000D01*
G37*
X211350000Y-90250000D02*
X210450000Y-90250000D01*
X210450000Y-86950000D01*
X211350000Y-86950000D01*
X211350000Y-90250000D01*
G36*
X211350000Y-90250000D02*
G01*
X210450000Y-90250000D01*
X210450000Y-86950000D01*
X211350000Y-86950000D01*
X211350000Y-90250000D01*
G37*
X213050000Y-90250000D02*
X212150000Y-90250000D01*
X212150000Y-86950000D01*
X213050000Y-86950000D01*
X213050000Y-90250000D01*
G36*
X213050000Y-90250000D02*
G01*
X212150000Y-90250000D01*
X212150000Y-86950000D01*
X213050000Y-86950000D01*
X213050000Y-90250000D01*
G37*
X214500000Y-82250000D02*
X203900000Y-82250000D01*
X203900000Y-73750000D01*
X214500000Y-73750000D01*
X214500000Y-82250000D01*
G36*
X214500000Y-82250000D02*
G01*
X203900000Y-82250000D01*
X203900000Y-73750000D01*
X214500000Y-73750000D01*
X214500000Y-82250000D01*
G37*
%TD*%
D11*
%TO.C,R2*%
X206037500Y-91850000D03*
X208962500Y-91850000D03*
%TD*%
D12*
%TO.C,L1*%
X218075000Y-94550000D03*
X212625000Y-94550000D03*
%TD*%
D11*
%TO.C,R1*%
X201087500Y-91850000D03*
X204012500Y-91850000D03*
%TD*%
D13*
%TO.C,U5*%
X238500000Y-94550000D03*
X240800000Y-94550000D03*
D14*
X240800000Y-88250000D03*
D13*
X243100000Y-94550000D03*
%TD*%
D15*
%TO.C,C2*%
X214550000Y-89750000D03*
X214550000Y-87850000D03*
%TD*%
%TO.C,C4*%
X202150000Y-82900000D03*
X202150000Y-81000000D03*
%TD*%
D16*
%TO.C,C1*%
X222250000Y-94600000D03*
X227650000Y-94600000D03*
%TD*%
D17*
%TO.C,D1*%
X202000000Y-97650000D03*
X208800000Y-97650000D03*
%TD*%
D18*
%TO.C,C11*%
X252050000Y-105750000D03*
X253950000Y-105750000D03*
%TD*%
D19*
%TO.C,C9*%
X242700000Y-97150000D03*
X240800000Y-97150000D03*
%TD*%
D18*
%TO.C,C10*%
X261250000Y-100500000D03*
X263150000Y-100500000D03*
%TD*%
D20*
%TO.C,R3*%
X202200000Y-88562500D03*
X202200000Y-85637500D03*
%TD*%
D21*
%TO.C,U4*%
X252600000Y-98350000D03*
X252600000Y-100650000D03*
D22*
X258900000Y-100650000D03*
D21*
X252600000Y-102950000D03*
%TD*%
D18*
%TO.C,C12*%
X240450000Y-85850000D03*
X242350000Y-85850000D03*
%TD*%
M02*
