%TF.GenerationSoftware,KiCad,Pcbnew,7.0.8*%
%TF.CreationDate,2023-12-06T00:15:52+05:30*%
%TF.ProjectId,PD Board,50442042-6f61-4726-942e-6b696361645f,V04*%
%TF.SameCoordinates,Original*%
%TF.FileFunction,Other,User*%
%FSLAX46Y46*%
G04 Gerber Fmt 4.6, Leading zero omitted, Abs format (unit mm)*
G04 Created by KiCad (PCBNEW 7.0.8) date 2023-12-06 00:15:52*
%MOMM*%
%LPD*%
G01*
G04 APERTURE LIST*
%ADD10C,0.150000*%
G04 APERTURE END LIST*
D10*
X224383334Y-108604818D02*
X225050000Y-108604818D01*
X225050000Y-108604818D02*
X224621429Y-109604818D01*
X225859524Y-108604818D02*
X225669048Y-108604818D01*
X225669048Y-108604818D02*
X225573810Y-108652437D01*
X225573810Y-108652437D02*
X225526191Y-108700056D01*
X225526191Y-108700056D02*
X225430953Y-108842913D01*
X225430953Y-108842913D02*
X225383334Y-109033389D01*
X225383334Y-109033389D02*
X225383334Y-109414341D01*
X225383334Y-109414341D02*
X225430953Y-109509579D01*
X225430953Y-109509579D02*
X225478572Y-109557199D01*
X225478572Y-109557199D02*
X225573810Y-109604818D01*
X225573810Y-109604818D02*
X225764286Y-109604818D01*
X225764286Y-109604818D02*
X225859524Y-109557199D01*
X225859524Y-109557199D02*
X225907143Y-109509579D01*
X225907143Y-109509579D02*
X225954762Y-109414341D01*
X225954762Y-109414341D02*
X225954762Y-109176246D01*
X225954762Y-109176246D02*
X225907143Y-109081008D01*
X225907143Y-109081008D02*
X225859524Y-109033389D01*
X225859524Y-109033389D02*
X225764286Y-108985770D01*
X225764286Y-108985770D02*
X225573810Y-108985770D01*
X225573810Y-108985770D02*
X225478572Y-109033389D01*
X225478572Y-109033389D02*
X225430953Y-109081008D01*
X225430953Y-109081008D02*
X225383334Y-109176246D01*
X226383334Y-109509579D02*
X226430953Y-109557199D01*
X226430953Y-109557199D02*
X226383334Y-109604818D01*
X226383334Y-109604818D02*
X226335715Y-109557199D01*
X226335715Y-109557199D02*
X226383334Y-109509579D01*
X226383334Y-109509579D02*
X226383334Y-109604818D01*
X226764286Y-108604818D02*
X227430952Y-108604818D01*
X227430952Y-108604818D02*
X227002381Y-109604818D01*
X228002381Y-108604818D02*
X228097619Y-108604818D01*
X228097619Y-108604818D02*
X228192857Y-108652437D01*
X228192857Y-108652437D02*
X228240476Y-108700056D01*
X228240476Y-108700056D02*
X228288095Y-108795294D01*
X228288095Y-108795294D02*
X228335714Y-108985770D01*
X228335714Y-108985770D02*
X228335714Y-109223865D01*
X228335714Y-109223865D02*
X228288095Y-109414341D01*
X228288095Y-109414341D02*
X228240476Y-109509579D01*
X228240476Y-109509579D02*
X228192857Y-109557199D01*
X228192857Y-109557199D02*
X228097619Y-109604818D01*
X228097619Y-109604818D02*
X228002381Y-109604818D01*
X228002381Y-109604818D02*
X227907143Y-109557199D01*
X227907143Y-109557199D02*
X227859524Y-109509579D01*
X227859524Y-109509579D02*
X227811905Y-109414341D01*
X227811905Y-109414341D02*
X227764286Y-109223865D01*
X227764286Y-109223865D02*
X227764286Y-108985770D01*
X227764286Y-108985770D02*
X227811905Y-108795294D01*
X227811905Y-108795294D02*
X227859524Y-108700056D01*
X227859524Y-108700056D02*
X227907143Y-108652437D01*
X227907143Y-108652437D02*
X228002381Y-108604818D01*
X228954762Y-108604818D02*
X229050000Y-108604818D01*
X229050000Y-108604818D02*
X229145238Y-108652437D01*
X229145238Y-108652437D02*
X229192857Y-108700056D01*
X229192857Y-108700056D02*
X229240476Y-108795294D01*
X229240476Y-108795294D02*
X229288095Y-108985770D01*
X229288095Y-108985770D02*
X229288095Y-109223865D01*
X229288095Y-109223865D02*
X229240476Y-109414341D01*
X229240476Y-109414341D02*
X229192857Y-109509579D01*
X229192857Y-109509579D02*
X229145238Y-109557199D01*
X229145238Y-109557199D02*
X229050000Y-109604818D01*
X229050000Y-109604818D02*
X228954762Y-109604818D01*
X228954762Y-109604818D02*
X228859524Y-109557199D01*
X228859524Y-109557199D02*
X228811905Y-109509579D01*
X228811905Y-109509579D02*
X228764286Y-109414341D01*
X228764286Y-109414341D02*
X228716667Y-109223865D01*
X228716667Y-109223865D02*
X228716667Y-108985770D01*
X228716667Y-108985770D02*
X228764286Y-108795294D01*
X228764286Y-108795294D02*
X228811905Y-108700056D01*
X228811905Y-108700056D02*
X228859524Y-108652437D01*
X228859524Y-108652437D02*
X228954762Y-108604818D01*
X229907143Y-108604818D02*
X230002381Y-108604818D01*
X230002381Y-108604818D02*
X230097619Y-108652437D01*
X230097619Y-108652437D02*
X230145238Y-108700056D01*
X230145238Y-108700056D02*
X230192857Y-108795294D01*
X230192857Y-108795294D02*
X230240476Y-108985770D01*
X230240476Y-108985770D02*
X230240476Y-109223865D01*
X230240476Y-109223865D02*
X230192857Y-109414341D01*
X230192857Y-109414341D02*
X230145238Y-109509579D01*
X230145238Y-109509579D02*
X230097619Y-109557199D01*
X230097619Y-109557199D02*
X230002381Y-109604818D01*
X230002381Y-109604818D02*
X229907143Y-109604818D01*
X229907143Y-109604818D02*
X229811905Y-109557199D01*
X229811905Y-109557199D02*
X229764286Y-109509579D01*
X229764286Y-109509579D02*
X229716667Y-109414341D01*
X229716667Y-109414341D02*
X229669048Y-109223865D01*
X229669048Y-109223865D02*
X229669048Y-108985770D01*
X229669048Y-108985770D02*
X229716667Y-108795294D01*
X229716667Y-108795294D02*
X229764286Y-108700056D01*
X229764286Y-108700056D02*
X229811905Y-108652437D01*
X229811905Y-108652437D02*
X229907143Y-108604818D01*
X231430953Y-109604818D02*
X231430953Y-108938151D01*
X231430953Y-109033389D02*
X231478572Y-108985770D01*
X231478572Y-108985770D02*
X231573810Y-108938151D01*
X231573810Y-108938151D02*
X231716667Y-108938151D01*
X231716667Y-108938151D02*
X231811905Y-108985770D01*
X231811905Y-108985770D02*
X231859524Y-109081008D01*
X231859524Y-109081008D02*
X231859524Y-109604818D01*
X231859524Y-109081008D02*
X231907143Y-108985770D01*
X231907143Y-108985770D02*
X232002381Y-108938151D01*
X232002381Y-108938151D02*
X232145238Y-108938151D01*
X232145238Y-108938151D02*
X232240477Y-108985770D01*
X232240477Y-108985770D02*
X232288096Y-109081008D01*
X232288096Y-109081008D02*
X232288096Y-109604818D01*
X232764286Y-109604818D02*
X232764286Y-108938151D01*
X232764286Y-109033389D02*
X232811905Y-108985770D01*
X232811905Y-108985770D02*
X232907143Y-108938151D01*
X232907143Y-108938151D02*
X233050000Y-108938151D01*
X233050000Y-108938151D02*
X233145238Y-108985770D01*
X233145238Y-108985770D02*
X233192857Y-109081008D01*
X233192857Y-109081008D02*
X233192857Y-109604818D01*
X233192857Y-109081008D02*
X233240476Y-108985770D01*
X233240476Y-108985770D02*
X233335714Y-108938151D01*
X233335714Y-108938151D02*
X233478571Y-108938151D01*
X233478571Y-108938151D02*
X233573810Y-108985770D01*
X233573810Y-108985770D02*
X233621429Y-109081008D01*
X233621429Y-109081008D02*
X233621429Y-109604818D01*
X190700000Y-105604416D02*
X190700000Y-110886419D01*
X267400000Y-105604416D02*
X267400000Y-110886419D01*
X190700000Y-110299999D02*
X267400000Y-110299999D01*
X190700000Y-110299999D02*
X267400000Y-110299999D01*
X190700000Y-110299999D02*
X191826504Y-109713578D01*
X190700000Y-110299999D02*
X191826504Y-110886420D01*
X267400000Y-110299999D02*
X266273496Y-110886420D01*
X267400000Y-110299999D02*
X266273496Y-109713578D01*
X270254819Y-94666665D02*
X270254819Y-94047618D01*
X270254819Y-94047618D02*
X270635771Y-94380951D01*
X270635771Y-94380951D02*
X270635771Y-94238094D01*
X270635771Y-94238094D02*
X270683390Y-94142856D01*
X270683390Y-94142856D02*
X270731009Y-94095237D01*
X270731009Y-94095237D02*
X270826247Y-94047618D01*
X270826247Y-94047618D02*
X271064342Y-94047618D01*
X271064342Y-94047618D02*
X271159580Y-94095237D01*
X271159580Y-94095237D02*
X271207200Y-94142856D01*
X271207200Y-94142856D02*
X271254819Y-94238094D01*
X271254819Y-94238094D02*
X271254819Y-94523808D01*
X271254819Y-94523808D02*
X271207200Y-94619046D01*
X271207200Y-94619046D02*
X271159580Y-94666665D01*
X270254819Y-93142856D02*
X270254819Y-93619046D01*
X270254819Y-93619046D02*
X270731009Y-93666665D01*
X270731009Y-93666665D02*
X270683390Y-93619046D01*
X270683390Y-93619046D02*
X270635771Y-93523808D01*
X270635771Y-93523808D02*
X270635771Y-93285713D01*
X270635771Y-93285713D02*
X270683390Y-93190475D01*
X270683390Y-93190475D02*
X270731009Y-93142856D01*
X270731009Y-93142856D02*
X270826247Y-93095237D01*
X270826247Y-93095237D02*
X271064342Y-93095237D01*
X271064342Y-93095237D02*
X271159580Y-93142856D01*
X271159580Y-93142856D02*
X271207200Y-93190475D01*
X271207200Y-93190475D02*
X271254819Y-93285713D01*
X271254819Y-93285713D02*
X271254819Y-93523808D01*
X271254819Y-93523808D02*
X271207200Y-93619046D01*
X271207200Y-93619046D02*
X271159580Y-93666665D01*
X271159580Y-92666665D02*
X271207200Y-92619046D01*
X271207200Y-92619046D02*
X271254819Y-92666665D01*
X271254819Y-92666665D02*
X271207200Y-92714284D01*
X271207200Y-92714284D02*
X271159580Y-92666665D01*
X271159580Y-92666665D02*
X271254819Y-92666665D01*
X270254819Y-92285713D02*
X270254819Y-91666666D01*
X270254819Y-91666666D02*
X270635771Y-91999999D01*
X270635771Y-91999999D02*
X270635771Y-91857142D01*
X270635771Y-91857142D02*
X270683390Y-91761904D01*
X270683390Y-91761904D02*
X270731009Y-91714285D01*
X270731009Y-91714285D02*
X270826247Y-91666666D01*
X270826247Y-91666666D02*
X271064342Y-91666666D01*
X271064342Y-91666666D02*
X271159580Y-91714285D01*
X271159580Y-91714285D02*
X271207200Y-91761904D01*
X271207200Y-91761904D02*
X271254819Y-91857142D01*
X271254819Y-91857142D02*
X271254819Y-92142856D01*
X271254819Y-92142856D02*
X271207200Y-92238094D01*
X271207200Y-92238094D02*
X271159580Y-92285713D01*
X270254819Y-91047618D02*
X270254819Y-90952380D01*
X270254819Y-90952380D02*
X270302438Y-90857142D01*
X270302438Y-90857142D02*
X270350057Y-90809523D01*
X270350057Y-90809523D02*
X270445295Y-90761904D01*
X270445295Y-90761904D02*
X270635771Y-90714285D01*
X270635771Y-90714285D02*
X270873866Y-90714285D01*
X270873866Y-90714285D02*
X271064342Y-90761904D01*
X271064342Y-90761904D02*
X271159580Y-90809523D01*
X271159580Y-90809523D02*
X271207200Y-90857142D01*
X271207200Y-90857142D02*
X271254819Y-90952380D01*
X271254819Y-90952380D02*
X271254819Y-91047618D01*
X271254819Y-91047618D02*
X271207200Y-91142856D01*
X271207200Y-91142856D02*
X271159580Y-91190475D01*
X271159580Y-91190475D02*
X271064342Y-91238094D01*
X271064342Y-91238094D02*
X270873866Y-91285713D01*
X270873866Y-91285713D02*
X270635771Y-91285713D01*
X270635771Y-91285713D02*
X270445295Y-91238094D01*
X270445295Y-91238094D02*
X270350057Y-91190475D01*
X270350057Y-91190475D02*
X270302438Y-91142856D01*
X270302438Y-91142856D02*
X270254819Y-91047618D01*
X270254819Y-90095237D02*
X270254819Y-89999999D01*
X270254819Y-89999999D02*
X270302438Y-89904761D01*
X270302438Y-89904761D02*
X270350057Y-89857142D01*
X270350057Y-89857142D02*
X270445295Y-89809523D01*
X270445295Y-89809523D02*
X270635771Y-89761904D01*
X270635771Y-89761904D02*
X270873866Y-89761904D01*
X270873866Y-89761904D02*
X271064342Y-89809523D01*
X271064342Y-89809523D02*
X271159580Y-89857142D01*
X271159580Y-89857142D02*
X271207200Y-89904761D01*
X271207200Y-89904761D02*
X271254819Y-89999999D01*
X271254819Y-89999999D02*
X271254819Y-90095237D01*
X271254819Y-90095237D02*
X271207200Y-90190475D01*
X271207200Y-90190475D02*
X271159580Y-90238094D01*
X271159580Y-90238094D02*
X271064342Y-90285713D01*
X271064342Y-90285713D02*
X270873866Y-90333332D01*
X270873866Y-90333332D02*
X270635771Y-90333332D01*
X270635771Y-90333332D02*
X270445295Y-90285713D01*
X270445295Y-90285713D02*
X270350057Y-90238094D01*
X270350057Y-90238094D02*
X270302438Y-90190475D01*
X270302438Y-90190475D02*
X270254819Y-90095237D01*
X270254819Y-89142856D02*
X270254819Y-89047618D01*
X270254819Y-89047618D02*
X270302438Y-88952380D01*
X270302438Y-88952380D02*
X270350057Y-88904761D01*
X270350057Y-88904761D02*
X270445295Y-88857142D01*
X270445295Y-88857142D02*
X270635771Y-88809523D01*
X270635771Y-88809523D02*
X270873866Y-88809523D01*
X270873866Y-88809523D02*
X271064342Y-88857142D01*
X271064342Y-88857142D02*
X271159580Y-88904761D01*
X271159580Y-88904761D02*
X271207200Y-88952380D01*
X271207200Y-88952380D02*
X271254819Y-89047618D01*
X271254819Y-89047618D02*
X271254819Y-89142856D01*
X271254819Y-89142856D02*
X271207200Y-89238094D01*
X271207200Y-89238094D02*
X271159580Y-89285713D01*
X271159580Y-89285713D02*
X271064342Y-89333332D01*
X271064342Y-89333332D02*
X270873866Y-89380951D01*
X270873866Y-89380951D02*
X270635771Y-89380951D01*
X270635771Y-89380951D02*
X270445295Y-89333332D01*
X270445295Y-89333332D02*
X270350057Y-89285713D01*
X270350057Y-89285713D02*
X270302438Y-89238094D01*
X270302438Y-89238094D02*
X270254819Y-89142856D01*
X271254819Y-87619046D02*
X270588152Y-87619046D01*
X270683390Y-87619046D02*
X270635771Y-87571427D01*
X270635771Y-87571427D02*
X270588152Y-87476189D01*
X270588152Y-87476189D02*
X270588152Y-87333332D01*
X270588152Y-87333332D02*
X270635771Y-87238094D01*
X270635771Y-87238094D02*
X270731009Y-87190475D01*
X270731009Y-87190475D02*
X271254819Y-87190475D01*
X270731009Y-87190475D02*
X270635771Y-87142856D01*
X270635771Y-87142856D02*
X270588152Y-87047618D01*
X270588152Y-87047618D02*
X270588152Y-86904761D01*
X270588152Y-86904761D02*
X270635771Y-86809522D01*
X270635771Y-86809522D02*
X270731009Y-86761903D01*
X270731009Y-86761903D02*
X271254819Y-86761903D01*
X271254819Y-86285713D02*
X270588152Y-86285713D01*
X270683390Y-86285713D02*
X270635771Y-86238094D01*
X270635771Y-86238094D02*
X270588152Y-86142856D01*
X270588152Y-86142856D02*
X270588152Y-85999999D01*
X270588152Y-85999999D02*
X270635771Y-85904761D01*
X270635771Y-85904761D02*
X270731009Y-85857142D01*
X270731009Y-85857142D02*
X271254819Y-85857142D01*
X270731009Y-85857142D02*
X270635771Y-85809523D01*
X270635771Y-85809523D02*
X270588152Y-85714285D01*
X270588152Y-85714285D02*
X270588152Y-85571428D01*
X270588152Y-85571428D02*
X270635771Y-85476189D01*
X270635771Y-85476189D02*
X270731009Y-85428570D01*
X270731009Y-85428570D02*
X271254819Y-85428570D01*
X265350000Y-72350000D02*
X272536420Y-72350000D01*
X265350000Y-107650000D02*
X272536420Y-107650000D01*
X271950000Y-72350000D02*
X271950000Y-107650000D01*
X271950000Y-72350000D02*
X271950000Y-107650000D01*
X271950000Y-72350000D02*
X272536421Y-73476504D01*
X271950000Y-72350000D02*
X271363579Y-73476504D01*
X271950000Y-107650000D02*
X271363579Y-106523496D01*
X271950000Y-107650000D02*
X272536421Y-106523496D01*
M02*
