M48
; DRILL file {KiCad 7.0.8} date Wed Dec  6 00:15:26 2023
; FORMAT={-:-/ absolute / inch / decimal}
; #@! TF.CreationDate,2023-12-06T00:15:26+05:30
; #@! TF.GenerationSoftware,Kicad,Pcbnew,7.0.8
; #@! TF.FileFunction,Plated,1,2,PTH
FMAT,2
INCH
; #@! TA.AperFunction,Plated,PTH,ViaDrill
T1C0.0157
; #@! TA.AperFunction,Plated,PTH,ComponentDrill
T2C0.0157
; #@! TA.AperFunction,Plated,PTH,ComponentDrill
T3C0.0295
; #@! TA.AperFunction,Plated,PTH,ComponentDrill
T4C0.0394
; #@! TA.AperFunction,Plated,PTH,ComponentDrill
T5C0.0866
; #@! TA.AperFunction,Plated,PTH,ComponentDrill
T6C0.1791
%
G90
G05
T1
X7.9567Y-2.9016
X7.9567Y-3.0807
X7.9587Y-2.9902
X8.0591Y-2.9528
X8.061Y-3.0295
X8.061Y-3.1102
X8.061Y-3.1949
X8.1575Y-2.9547
X8.1594Y-3.0315
X8.1594Y-3.1122
X8.1594Y-3.1969
X8.2126Y-3.3937
X8.2264Y-3.6693
X8.2559Y-3.3937
X8.3012Y-2.9528
X8.3031Y-3.0295
X8.3031Y-3.1102
X8.3031Y-3.1949
X8.4035Y-2.9508
X8.4055Y-3.0276
X8.4055Y-3.1083
X8.4055Y-3.1929
X8.4449Y-3.4193
X8.8917Y-3.8051
X8.9705Y-3.8091
X9.0256Y-3.7598
X9.0453Y-3.8091
X9.1339Y-3.8091
X9.1732Y-3.9134
X9.2126Y-3.8091
X9.2618Y-3.9134
X9.2913Y-3.8091
X9.3307Y-3.8484
X9.3445Y-3.7224
X9.3898Y-3.6673
X9.3898Y-3.7776
X9.4193Y-3.8484
X9.4272Y-3.4724
X9.5315Y-3.4724
X9.5433Y-3.3346
X9.5787Y-3.3819
X9.7953Y-3.7835
X9.8484Y-3.8327
X9.8543Y-3.7835
X9.8898Y-3.872
X9.9193Y-3.7835
X9.9449Y-3.8268
X10.0Y-3.872
X10.0591Y-4.1417
X10.122Y-4.1398
X10.1772Y-4.1909
X10.1791Y-4.1378
X10.1909Y-3.9114
X10.1929Y-4.0138
X10.2382Y-4.1378
X10.2382Y-4.1909
X10.3524Y-3.8917
X10.4154Y-3.8917
X10.4173Y-3.9567
T2
X7.5472Y-4.1332
X7.5663Y-4.0873
X7.5663Y-4.1791
X7.6122Y-4.0682
X7.6122Y-4.1982
X7.6581Y-4.0873
X7.6581Y-4.1791
X7.6772Y-4.1332
X10.3556Y-4.1332
X10.3747Y-4.0873
X10.3747Y-4.1791
X10.4206Y-4.0682
X10.4206Y-4.1982
X10.4665Y-4.0873
X10.4665Y-4.1791
X10.4856Y-4.1332
T3
X8.5906Y-2.9764
X8.5906Y-3.2047
X8.5906Y-3.4331
X8.6693Y-2.9764
X8.6693Y-3.2047
X8.6693Y-3.4331
X8.8681Y-2.9764
X8.8681Y-3.2047
X8.8701Y-3.4331
X8.9469Y-2.9764
X8.9469Y-3.2047
X8.9488Y-3.4331
X9.1457Y-2.9764
X9.1457Y-3.2047
X9.1476Y-3.435
X9.1476Y-3.6614
X9.2244Y-2.9764
X9.2244Y-3.2047
X9.2264Y-3.435
X9.2264Y-3.6614
X9.4232Y-2.9764
X9.4252Y-3.2047
X9.502Y-2.9764
X9.5039Y-3.2047
X9.753Y-2.9783
X9.753Y-3.2008
X9.753Y-3.4232
X9.753Y-3.6476
X9.8317Y-2.9783
X9.8317Y-3.2008
X9.8317Y-3.4232
X9.8317Y-3.6476
X10.0443Y-2.9783
X10.0443Y-3.2008
X10.0443Y-3.4232
X10.0443Y-3.6476
X10.123Y-2.9783
X10.123Y-3.2008
X10.123Y-3.4232
X10.123Y-3.6476
X10.3317Y-2.9783
X10.3317Y-3.2008
X10.3317Y-3.4232
X10.3317Y-3.6476
X10.4104Y-2.9783
X10.4104Y-3.2008
X10.4104Y-3.4232
X10.4104Y-3.6476
T4
X7.6772Y-3.687
X7.6772Y-3.8839
T5
X7.6122Y-4.1332
X10.4206Y-4.1332
T6
X7.7087Y-3.063
X7.7087Y-3.3465
X8.7559Y-4.0472
X9.0394Y-4.0472
X9.4035Y-4.0472
X9.687Y-4.0472
T0
M30
